<svg xmlns="http://www.w3.org/2000/svg" width="215.097" height="52" viewBox="0 0 215.097 52">
  <g id="Grupo_3542" data-name="Grupo 3542" transform="translate(67.088 46.399)">
    <g id="Grupo_3471" data-name="Grupo 3471">
      <path id="Trazado_2962" data-name="Trazado 2962" d="M195.191,189.334a1.079,1.079,0,0,1,.053.2.125.125,0,0,1-.03.112.252.252,0,0,1-.139.046c-.066.007-.159.01-.275.01s-.215,0-.285-.007a.778.778,0,0,1-.155-.02.165.165,0,0,1-.076-.043.272.272,0,0,1-.036-.076l-.311-.926h-1.73l-.291.9a.388.388,0,0,1-.036.083.149.149,0,0,1-.076.053.476.476,0,0,1-.146.027c-.063,0-.146.007-.248.007s-.2,0-.258-.01a.181.181,0,0,1-.129-.053.143.143,0,0,1-.026-.116,1.3,1.3,0,0,1,.053-.2l1.423-4.089a.349.349,0,0,1,.05-.1.174.174,0,0,1,.089-.056.7.7,0,0,1,.172-.023c.073,0,.172-.007.291-.007.139,0,.251,0,.334.007a1.168,1.168,0,0,1,.2.023.182.182,0,0,1,.1.06.451.451,0,0,1,.053.106Zm-2.117-3.381h0l-.652,1.959h1.307Z" transform="translate(-190.994 -184.984)" fill="#234196"/>
      <path id="Trazado_2963" data-name="Trazado 2963" d="M210.1,186.52a1.8,1.8,0,0,1-.122.688,1.309,1.309,0,0,1-.354.5,1.548,1.548,0,0,1-.569.311,2.592,2.592,0,0,1-.794.106h-.384V189.6a.087.087,0,0,1-.023.063.167.167,0,0,1-.076.046.874.874,0,0,1-.142.03,2.138,2.138,0,0,1-.228.01,2.114,2.114,0,0,1-.225-.01.657.657,0,0,1-.146-.03.167.167,0,0,1-.076-.046.109.109,0,0,1-.02-.063v-4.145a.34.34,0,0,1,.086-.251.318.318,0,0,1,.228-.083h1.085c.109,0,.212,0,.311.013s.218.026.354.053a1.575,1.575,0,0,1,.42.152,1.208,1.208,0,0,1,.361.278,1.177,1.177,0,0,1,.228.4A1.354,1.354,0,0,1,210.1,186.52Zm-.979.066a.844.844,0,0,0-.086-.4.573.573,0,0,0-.208-.232.716.716,0,0,0-.261-.1,1.99,1.99,0,0,0-.285-.02h-.4V187.4h.42a1.049,1.049,0,0,0,.377-.06.636.636,0,0,0,.248-.169.744.744,0,0,0,.146-.261A1.016,1.016,0,0,0,209.12,186.586Z" transform="translate(-201.664 -185.031)" fill="#234196"/>
      <path id="Trazado_2964" data-name="Trazado 2964" d="M221.451,189.334a1.08,1.08,0,0,1,.053.2.125.125,0,0,1-.03.112.252.252,0,0,1-.139.046c-.066.007-.159.01-.275.01s-.215,0-.285-.007a.779.779,0,0,1-.156-.02.165.165,0,0,1-.076-.043.272.272,0,0,1-.036-.076l-.311-.926h-1.73l-.291.9a.387.387,0,0,1-.036.083.149.149,0,0,1-.076.053.476.476,0,0,1-.146.027c-.063,0-.146.007-.248.007s-.2,0-.258-.01a.181.181,0,0,1-.129-.053.143.143,0,0,1-.026-.116,1.3,1.3,0,0,1,.053-.2l1.423-4.089a.348.348,0,0,1,.05-.1.174.174,0,0,1,.089-.056.7.7,0,0,1,.172-.023c.073,0,.172-.007.291-.007.139,0,.251,0,.334.007a1.168,1.168,0,0,1,.2.023.182.182,0,0,1,.1.06.451.451,0,0,1,.053.106Zm-2.114-3.381h0l-.652,1.959h1.307Z" transform="translate(-208.566 -184.984)" fill="#234196"/>
      <path id="Trazado_2965" data-name="Trazado 2965" d="M235.381,188.165a1.44,1.44,0,0,1-.136.639,1.3,1.3,0,0,1-.367.457,1.556,1.556,0,0,1-.543.275,2.254,2.254,0,0,1-.662.093,2.326,2.326,0,0,1-.443-.04,2.182,2.182,0,0,1-.361-.1,1.521,1.521,0,0,1-.261-.116.89.89,0,0,1-.152-.106.277.277,0,0,1-.066-.132,1.219,1.219,0,0,1-.02-.251c0-.073,0-.136.007-.185a.535.535,0,0,1,.023-.122.128.128,0,0,1,.043-.066.1.1,0,0,1,.063-.02.286.286,0,0,1,.139.06,2.022,2.022,0,0,0,.235.129,2.316,2.316,0,0,0,.341.129,1.593,1.593,0,0,0,.457.06,1.118,1.118,0,0,0,.308-.04.674.674,0,0,0,.228-.116.5.5,0,0,0,.146-.185.589.589,0,0,0,.05-.245.426.426,0,0,0-.086-.268.806.806,0,0,0-.222-.2,2.471,2.471,0,0,0-.311-.165c-.116-.05-.235-.106-.361-.162a3.169,3.169,0,0,1-.361-.2,1.389,1.389,0,0,1-.311-.261,1.185,1.185,0,0,1-.222-.357,1.459,1.459,0,0,1,.036-1.079,1.179,1.179,0,0,1,.331-.417,1.471,1.471,0,0,1,.493-.248,2.1,2.1,0,0,1,.6-.083,2.186,2.186,0,0,1,.328.026,2.628,2.628,0,0,1,.308.066,1.375,1.375,0,0,1,.251.1.634.634,0,0,1,.146.089.207.207,0,0,1,.046.06.255.255,0,0,1,.023.066.706.706,0,0,1,.013.1c0,.043,0,.093,0,.155a1.381,1.381,0,0,1-.007.175.937.937,0,0,1-.017.119.14.14,0,0,1-.036.069.081.081,0,0,1-.063.02.312.312,0,0,1-.126-.05q-.084-.05-.208-.109a1.7,1.7,0,0,0-.288-.106,1.237,1.237,0,0,0-.361-.046.921.921,0,0,0-.268.036.56.56,0,0,0-.192.1.359.359,0,0,0-.113.159.552.552,0,0,0-.036.2.421.421,0,0,0,.083.265.736.736,0,0,0,.225.2,2.364,2.364,0,0,0,.318.165c.119.05.242.106.364.162a3.53,3.53,0,0,1,.364.2,1.423,1.423,0,0,1,.318.261,1.153,1.153,0,0,1,.225.357A1.212,1.212,0,0,1,235.381,188.165Z" transform="translate(-218.681 -184.85)" fill="#234196"/>
      <path id="Trazado_2966" data-name="Trazado 2966" d="M245.9,189.553a.087.087,0,0,1-.023.063.167.167,0,0,1-.076.046.873.873,0,0,1-.142.03,2.136,2.136,0,0,1-.228.01,2.113,2.113,0,0,1-.225-.01.657.657,0,0,1-.146-.03.167.167,0,0,1-.076-.046.093.093,0,0,1-.023-.063V185.2a.087.087,0,0,1,.023-.063.18.18,0,0,1,.079-.046.923.923,0,0,1,.146-.03,2.114,2.114,0,0,1,.225-.01,2.138,2.138,0,0,1,.228.01.619.619,0,0,1,.142.03.166.166,0,0,1,.076.046.093.093,0,0,1,.023.063v4.354Z" transform="translate(-227.106 -184.984)" fill="#234196"/>
      <path id="Trazado_2967" data-name="Trazado 2967" d="M255.881,187.189a3.371,3.371,0,0,1-.142,1.026,2.056,2.056,0,0,1-.423.768,1.808,1.808,0,0,1-.695.48,2.6,2.6,0,0,1-.959.165,2.792,2.792,0,0,1-.94-.142,1.655,1.655,0,0,1-.668-.43,1.827,1.827,0,0,1-.4-.734,3.69,3.69,0,0,1-.132-1.055,3.268,3.268,0,0,1,.142-1.006,2.054,2.054,0,0,1,.423-.761,1.831,1.831,0,0,1,.7-.48,2.552,2.552,0,0,1,.963-.169,2.806,2.806,0,0,1,.923.139,1.615,1.615,0,0,1,.668.427,1.9,1.9,0,0,1,.407.728A3.677,3.677,0,0,1,255.881,187.189Zm-.986.05a3.679,3.679,0,0,0-.056-.662,1.435,1.435,0,0,0-.2-.51.914.914,0,0,0-.364-.328,1.262,1.262,0,0,0-.569-.116,1.158,1.158,0,0,0-.576.129,1.047,1.047,0,0,0-.374.347,1.43,1.43,0,0,0-.2.51,3.033,3.033,0,0,0-.06.615,3.822,3.822,0,0,0,.056.678,1.537,1.537,0,0,0,.192.516.893.893,0,0,0,.364.328,1.279,1.279,0,0,0,.572.112,1.189,1.189,0,0,0,.579-.129,1.047,1.047,0,0,0,.374-.347,1.44,1.44,0,0,0,.2-.516A3.467,3.467,0,0,0,254.895,187.239Z" transform="translate(-231.495 -184.85)" fill="#234196"/>
      <path id="Trazado_2968" data-name="Trazado 2968" d="M272.178,189.374a.337.337,0,0,1-.03.146.282.282,0,0,1-.076.106.291.291,0,0,1-.113.063.458.458,0,0,1-.132.02h-.4a.812.812,0,0,1-.215-.026.464.464,0,0,1-.169-.089.76.76,0,0,1-.149-.179c-.046-.076-.1-.172-.162-.291l-1.148-2.154c-.066-.129-.136-.268-.2-.414s-.132-.291-.185-.433h-.007c.01.172.017.341.023.509s.007.344.007.526v2.412a.1.1,0,0,1-.02.063.145.145,0,0,1-.069.05.53.53,0,0,1-.129.03,1.789,1.789,0,0,1-.208.01,1.726,1.726,0,0,1-.205-.01.532.532,0,0,1-.129-.03.124.124,0,0,1-.063-.05.106.106,0,0,1-.017-.063v-4.142a.31.31,0,0,1,.1-.251.357.357,0,0,1,.241-.083h.5a.915.915,0,0,1,.228.023.473.473,0,0,1,.165.076.54.54,0,0,1,.136.149,1.8,1.8,0,0,1,.132.235l.9,1.684c.053.1.1.2.156.3s.1.2.149.294.093.2.139.291.089.189.132.285h0c-.007-.165-.013-.341-.017-.519s-.007-.354-.007-.516v-2.164a.1.1,0,0,1,.02-.063.145.145,0,0,1,.069-.05.527.527,0,0,1,.132-.03,1.852,1.852,0,0,1,.212-.01,1.7,1.7,0,0,1,.2.01.437.437,0,0,1,.126.03.141.141,0,0,1,.063.05.106.106,0,0,1,.017.063Z" transform="translate(-242.777 -185.004)" fill="#234196"/>
      <path id="Trazado_2969" data-name="Trazado 2969" d="M287.151,189.334a1.08,1.08,0,0,1,.053.2.125.125,0,0,1-.03.112.252.252,0,0,1-.139.046c-.066.007-.159.01-.275.01s-.215,0-.284-.007a.778.778,0,0,1-.155-.02.164.164,0,0,1-.076-.043.271.271,0,0,1-.036-.076l-.311-.926h-1.73l-.291.9a.388.388,0,0,1-.036.083.149.149,0,0,1-.076.053.475.475,0,0,1-.146.027c-.063,0-.146.007-.248.007s-.2,0-.258-.01a.181.181,0,0,1-.129-.053.143.143,0,0,1-.026-.116,1.3,1.3,0,0,1,.053-.2l1.423-4.089a.348.348,0,0,1,.05-.1.175.175,0,0,1,.089-.056.7.7,0,0,1,.172-.023c.073,0,.172-.007.291-.007.139,0,.251,0,.334.007a1.168,1.168,0,0,1,.2.023.182.182,0,0,1,.1.06.451.451,0,0,1,.053.106Zm-2.117-3.381h0l-.652,1.959h1.307Z" transform="translate(-252.529 -184.984)" fill="#234196"/>
      <path id="Trazado_2970" data-name="Trazado 2970" d="M302.731,187.35a3.186,3.186,0,0,1-.165,1.085,1.793,1.793,0,0,1-.476.734,1.863,1.863,0,0,1-.754.417,3.675,3.675,0,0,1-1.055.132h-1.1a.291.291,0,0,1-.2-.069.286.286,0,0,1-.079-.225V185.4a.282.282,0,0,1,.079-.225.291.291,0,0,1,.2-.069h1.181a3.321,3.321,0,0,1,1.046.146,1.906,1.906,0,0,1,.725.427,1.851,1.851,0,0,1,.447.7A2.716,2.716,0,0,1,302.731,187.35Zm-.969.033a2.378,2.378,0,0,0-.076-.609,1.288,1.288,0,0,0-.245-.49,1.119,1.119,0,0,0-.433-.321,1.789,1.789,0,0,0-.695-.116h-.473v3.133h.49a1.843,1.843,0,0,0,.648-.1,1.08,1.08,0,0,0,.44-.3,1.313,1.313,0,0,0,.265-.5A2.757,2.757,0,0,0,301.762,187.383Z" transform="translate(-263.2 -185.024)" fill="#234196"/>
      <path id="Trazado_2971" data-name="Trazado 2971" d="M317.821,187.189a3.37,3.37,0,0,1-.142,1.026,2.057,2.057,0,0,1-.424.768,1.808,1.808,0,0,1-.695.48,2.6,2.6,0,0,1-.959.165,2.792,2.792,0,0,1-.94-.142,1.655,1.655,0,0,1-.668-.43,1.827,1.827,0,0,1-.4-.734,3.692,3.692,0,0,1-.132-1.055,3.268,3.268,0,0,1,.142-1.006,2.054,2.054,0,0,1,.424-.761,1.831,1.831,0,0,1,.7-.48,2.552,2.552,0,0,1,.963-.169,2.806,2.806,0,0,1,.923.139,1.615,1.615,0,0,1,.668.427,1.9,1.9,0,0,1,.407.728A3.675,3.675,0,0,1,317.821,187.189Zm-.983.05a3.685,3.685,0,0,0-.056-.662,1.436,1.436,0,0,0-.2-.51.914.914,0,0,0-.364-.328,1.262,1.262,0,0,0-.569-.116,1.158,1.158,0,0,0-.576.129,1.048,1.048,0,0,0-.374.347,1.432,1.432,0,0,0-.2.51,3.032,3.032,0,0,0-.06.615,3.815,3.815,0,0,0,.056.678,1.537,1.537,0,0,0,.192.516.893.893,0,0,0,.364.328,1.279,1.279,0,0,0,.572.112,1.189,1.189,0,0,0,.579-.129,1.047,1.047,0,0,0,.374-.347,1.439,1.439,0,0,0,.2-.516A3.478,3.478,0,0,0,316.838,187.239Z" transform="translate(-272.943 -184.85)" fill="#234196"/>
      <path id="Trazado_2972" data-name="Trazado 2972" d="M332.491,188.165a1.439,1.439,0,0,1-.136.639,1.3,1.3,0,0,1-.367.457,1.556,1.556,0,0,1-.543.275,2.255,2.255,0,0,1-.662.093,2.327,2.327,0,0,1-.443-.04,2.182,2.182,0,0,1-.361-.1,1.526,1.526,0,0,1-.261-.116.89.89,0,0,1-.152-.106.277.277,0,0,1-.066-.132,1.219,1.219,0,0,1-.02-.251c0-.073,0-.136.007-.185a.534.534,0,0,1,.023-.122.128.128,0,0,1,.043-.066.1.1,0,0,1,.063-.02.285.285,0,0,1,.139.06,2.026,2.026,0,0,0,.235.129,2.315,2.315,0,0,0,.341.129,1.593,1.593,0,0,0,.457.06,1.118,1.118,0,0,0,.308-.04.674.674,0,0,0,.228-.116.5.5,0,0,0,.146-.185.589.589,0,0,0,.05-.245.426.426,0,0,0-.086-.268.806.806,0,0,0-.222-.2,2.466,2.466,0,0,0-.311-.165c-.116-.05-.235-.106-.361-.162a3.167,3.167,0,0,1-.361-.2,1.39,1.39,0,0,1-.311-.261,1.186,1.186,0,0,1-.222-.357,1.459,1.459,0,0,1,.036-1.079,1.178,1.178,0,0,1,.331-.417,1.471,1.471,0,0,1,.493-.248,2.1,2.1,0,0,1,.6-.083,2.186,2.186,0,0,1,.328.026,2.626,2.626,0,0,1,.308.066,1.377,1.377,0,0,1,.251.1.634.634,0,0,1,.146.089.208.208,0,0,1,.046.06.256.256,0,0,1,.023.066.713.713,0,0,1,.013.1c0,.043,0,.093,0,.155a1.391,1.391,0,0,1-.007.175.936.936,0,0,1-.017.119.139.139,0,0,1-.036.069.08.08,0,0,1-.063.02.312.312,0,0,1-.126-.05q-.085-.05-.208-.109a1.7,1.7,0,0,0-.288-.106,1.236,1.236,0,0,0-.361-.046.921.921,0,0,0-.268.036.559.559,0,0,0-.192.1.359.359,0,0,0-.112.159.552.552,0,0,0-.036.2.421.421,0,0,0,.083.265.736.736,0,0,0,.225.2,2.361,2.361,0,0,0,.318.165c.119.05.242.106.364.162a3.517,3.517,0,0,1,.364.2,1.425,1.425,0,0,1,.318.261,1.152,1.152,0,0,1,.225.357A1.211,1.211,0,0,1,332.491,188.165Z" transform="translate(-283.663 -184.85)" fill="#234196"/>
      <path id="Trazado_2973" data-name="Trazado 2973" d="M351.5,186.52a1.8,1.8,0,0,1-.122.688,1.309,1.309,0,0,1-.354.5,1.548,1.548,0,0,1-.569.311,2.592,2.592,0,0,1-.794.106h-.384V189.6a.087.087,0,0,1-.023.063.167.167,0,0,1-.076.046.874.874,0,0,1-.142.03,2.138,2.138,0,0,1-.228.01,2.114,2.114,0,0,1-.225-.01.656.656,0,0,1-.146-.03.167.167,0,0,1-.076-.046.109.109,0,0,1-.02-.063v-4.145a.34.34,0,0,1,.086-.251.318.318,0,0,1,.228-.083h1.085c.109,0,.212,0,.311.013s.218.026.354.053a1.575,1.575,0,0,1,.42.152,1.208,1.208,0,0,1,.361.278,1.177,1.177,0,0,1,.228.4A1.354,1.354,0,0,1,351.5,186.52Zm-.979.066a.844.844,0,0,0-.086-.4.574.574,0,0,0-.208-.232.716.716,0,0,0-.261-.1,1.99,1.99,0,0,0-.285-.02h-.4V187.4h.42a1.048,1.048,0,0,0,.377-.06.636.636,0,0,0,.248-.169.744.744,0,0,0,.146-.261A1.017,1.017,0,0,0,350.52,186.586Z" transform="translate(-296.283 -185.031)" fill="#234196"/>
      <path id="Trazado_2974" data-name="Trazado 2974" d="M365.1,187.189a3.372,3.372,0,0,1-.142,1.026,2.058,2.058,0,0,1-.423.768,1.808,1.808,0,0,1-.695.48,2.6,2.6,0,0,1-.959.165,2.792,2.792,0,0,1-.94-.142,1.655,1.655,0,0,1-.668-.43,1.827,1.827,0,0,1-.4-.734,3.691,3.691,0,0,1-.132-1.055,3.269,3.269,0,0,1,.142-1.006,2.053,2.053,0,0,1,.423-.761,1.83,1.83,0,0,1,.7-.48,2.551,2.551,0,0,1,.963-.169,2.806,2.806,0,0,1,.923.139,1.615,1.615,0,0,1,.668.427,1.9,1.9,0,0,1,.407.728A3.562,3.562,0,0,1,365.1,187.189Zm-.983.05a3.685,3.685,0,0,0-.056-.662,1.436,1.436,0,0,0-.2-.51.915.915,0,0,0-.364-.328,1.263,1.263,0,0,0-.569-.116,1.158,1.158,0,0,0-.576.129,1.048,1.048,0,0,0-.374.347,1.431,1.431,0,0,0-.2.51,3.032,3.032,0,0,0-.06.615,3.824,3.824,0,0,0,.056.678,1.538,1.538,0,0,0,.192.516.892.892,0,0,0,.364.328,1.279,1.279,0,0,0,.572.112,1.189,1.189,0,0,0,.579-.129,1.048,1.048,0,0,0,.374-.347,1.439,1.439,0,0,0,.2-.516A3.472,3.472,0,0,0,364.118,187.239Z" transform="translate(-304.581 -184.85)" fill="#234196"/>
      <path id="Trazado_2975" data-name="Trazado 2975" d="M381.021,189.606a.131.131,0,0,1-.013.066.114.114,0,0,1-.069.043.71.71,0,0,1-.155.026c-.066.007-.162.007-.281.007-.1,0-.179,0-.238-.007a.5.5,0,0,1-.142-.026.156.156,0,0,1-.073-.05.3.3,0,0,1-.036-.073l-.414-1.029c-.05-.116-.1-.218-.146-.311a.907.907,0,0,0-.159-.225.649.649,0,0,0-.2-.139.663.663,0,0,0-.265-.046h-.291V189.6a.087.087,0,0,1-.023.063.166.166,0,0,1-.076.046.871.871,0,0,1-.142.03,2.141,2.141,0,0,1-.228.01,2.118,2.118,0,0,1-.225-.01.654.654,0,0,1-.146-.03.166.166,0,0,1-.076-.046.109.109,0,0,1-.02-.063v-4.185a.281.281,0,0,1,.079-.225.291.291,0,0,1,.2-.069h1.194c.122,0,.222,0,.3.007s.149.01.215.017a2.006,2.006,0,0,1,.5.136,1.177,1.177,0,0,1,.377.251,1.067,1.067,0,0,1,.238.367,1.315,1.315,0,0,1,.083.486,1.422,1.422,0,0,1-.06.423,1.1,1.1,0,0,1-.172.341,1.184,1.184,0,0,1-.281.261,1.613,1.613,0,0,1-.38.179,1.014,1.014,0,0,1,.2.122,1.058,1.058,0,0,1,.172.172,2.161,2.161,0,0,1,.152.232c.046.086.093.185.139.294l.387.91c.036.089.06.156.073.2A.53.53,0,0,1,381.021,189.606Zm-1.208-3.126a.671.671,0,0,0-.1-.384.561.561,0,0,0-.337-.222,1.6,1.6,0,0,0-.162-.03,2.46,2.46,0,0,0-.251-.01h-.42v1.307h.476a1.1,1.1,0,0,0,.347-.05.688.688,0,0,0,.248-.136.576.576,0,0,0,.149-.208A.691.691,0,0,0,379.813,186.48Z" transform="translate(-315.862 -185.031)" fill="#234196"/>
      <path id="Trazado_2976" data-name="Trazado 2976" d="M399.767,185.5a1.291,1.291,0,0,1-.01.175.457.457,0,0,1-.026.119.176.176,0,0,1-.043.066.092.092,0,0,1-.06.02h-1.155V189.6a.087.087,0,0,1-.023.063.167.167,0,0,1-.076.046.849.849,0,0,1-.146.03,1.512,1.512,0,0,1-.225.01,2.108,2.108,0,0,1-.225-.01.655.655,0,0,1-.146-.03.166.166,0,0,1-.076-.046.093.093,0,0,1-.023-.063v-3.715h-1.155a.092.092,0,0,1-.06-.02.177.177,0,0,1-.043-.066.457.457,0,0,1-.026-.119,1.351,1.351,0,0,1-.01-.175,1.425,1.425,0,0,1,.01-.182.457.457,0,0,1,.026-.119.161.161,0,0,1,.043-.063.093.093,0,0,1,.06-.02h3.249a.1.1,0,0,1,.06.02.113.113,0,0,1,.043.063.653.653,0,0,1,.026.119A1.425,1.425,0,0,1,399.767,185.5Z" transform="translate(-328.336 -185.031)" fill="#234196"/>
      <path id="Trazado_2977" data-name="Trazado 2977" d="M413.6,187.971a2.09,2.09,0,0,1-.126.758,1.471,1.471,0,0,1-.367.566,1.609,1.609,0,0,1-.6.354,2.828,2.828,0,0,1-1.6.013,1.5,1.5,0,0,1-.586-.331,1.44,1.44,0,0,1-.364-.549,2.175,2.175,0,0,1-.126-.771v-2.8a.1.1,0,0,1,.02-.063.15.15,0,0,1,.076-.046.922.922,0,0,1,.146-.03,1.521,1.521,0,0,1,.228-.01,2.129,2.129,0,0,1,.225.01.624.624,0,0,1,.142.03.167.167,0,0,1,.076.046.093.093,0,0,1,.023.063v2.723a1.476,1.476,0,0,0,.069.476.9.9,0,0,0,.2.334.8.8,0,0,0,.3.2,1.186,1.186,0,0,0,.791,0,.761.761,0,0,0,.294-.2.926.926,0,0,0,.189-.321,1.34,1.34,0,0,0,.066-.433v-2.776a.1.1,0,0,1,.02-.063.15.15,0,0,1,.076-.046.848.848,0,0,1,.146-.03,1.516,1.516,0,0,1,.225-.01,2.015,2.015,0,0,1,.222.01.663.663,0,0,1,.142.03.166.166,0,0,1,.076.046.109.109,0,0,1,.02.063v2.763Z" transform="translate(-337.429 -184.991)" fill="#234196"/>
      <path id="Trazado_2978" data-name="Trazado 2978" d="M437.243,189.6a.1.1,0,0,1-.02.063.142.142,0,0,1-.069.046.754.754,0,0,1-.139.03,2.373,2.373,0,0,1-.433,0,.556.556,0,0,1-.136-.03.142.142,0,0,1-.07-.046.109.109,0,0,1-.02-.063v-3.752h-.007l-1.337,3.748a.2.2,0,0,1-.046.076.268.268,0,0,1-.086.05.5.5,0,0,1-.139.023c-.056,0-.126.007-.205.007a1.807,1.807,0,0,1-.205-.01.627.627,0,0,1-.139-.03.3.3,0,0,1-.086-.046.154.154,0,0,1-.043-.069l-1.29-3.748h-.007V189.6a.1.1,0,0,1-.02.063.139.139,0,0,1-.073.046.942.942,0,0,1-.136.03,1.919,1.919,0,0,1-.215.01,1.958,1.958,0,0,1-.215-.01.556.556,0,0,1-.136-.03.154.154,0,0,1-.073-.046.109.109,0,0,1-.02-.063v-4.106a.377.377,0,0,1,.1-.278.349.349,0,0,1,.258-.1h.612a1.378,1.378,0,0,1,.281.026.507.507,0,0,1,.344.251,1.424,1.424,0,0,1,.1.251l1,2.746h.013l1.032-2.739a1.318,1.318,0,0,1,.1-.251.617.617,0,0,1,.129-.169.409.409,0,0,1,.172-.089.95.95,0,0,1,.232-.026h.632a.5.5,0,0,1,.165.026.265.265,0,0,1,.112.073.3.3,0,0,1,.066.119.473.473,0,0,1,.023.159v4.1Z" transform="translate(-352.184 -185.031)" fill="#234196"/>
      <path id="Trazado_2979" data-name="Trazado 2979" d="M455.351,189.334a1.086,1.086,0,0,1,.053.2.125.125,0,0,1-.03.112.252.252,0,0,1-.139.046c-.066.007-.159.01-.275.01s-.215,0-.285-.007a.778.778,0,0,1-.156-.02.165.165,0,0,1-.076-.043.271.271,0,0,1-.036-.076l-.311-.926h-1.73l-.291.9a.394.394,0,0,1-.036.083.149.149,0,0,1-.076.053.476.476,0,0,1-.146.027c-.063,0-.146.007-.248.007s-.2,0-.258-.01a.181.181,0,0,1-.129-.053.143.143,0,0,1-.026-.116,1.3,1.3,0,0,1,.053-.2l1.423-4.089a.349.349,0,0,1,.05-.1.174.174,0,0,1,.089-.056.7.7,0,0,1,.172-.023c.073,0,.172-.007.291-.007.139,0,.251,0,.334.007a1.167,1.167,0,0,1,.2.023.182.182,0,0,1,.1.06.453.453,0,0,1,.053.106Zm-2.117-3.381h0l-.652,1.959h1.307Z" transform="translate(-365.082 -184.984)" fill="#234196"/>
      <path id="Trazado_2980" data-name="Trazado 2980" d="M469.281,188.165a1.44,1.44,0,0,1-.136.639,1.3,1.3,0,0,1-.367.457,1.556,1.556,0,0,1-.543.275,2.254,2.254,0,0,1-.662.093,2.326,2.326,0,0,1-.443-.04,2.182,2.182,0,0,1-.361-.1,1.523,1.523,0,0,1-.261-.116.891.891,0,0,1-.152-.106.277.277,0,0,1-.066-.132,1.214,1.214,0,0,1-.02-.251c0-.073,0-.136.007-.185a.545.545,0,0,1,.023-.122.129.129,0,0,1,.043-.066.1.1,0,0,1,.063-.02.286.286,0,0,1,.139.06,2.02,2.02,0,0,0,.235.129,2.317,2.317,0,0,0,.341.129,1.593,1.593,0,0,0,.457.06,1.118,1.118,0,0,0,.308-.04.675.675,0,0,0,.228-.116.5.5,0,0,0,.146-.185.589.589,0,0,0,.05-.245.426.426,0,0,0-.086-.268.808.808,0,0,0-.222-.2,2.473,2.473,0,0,0-.311-.165c-.116-.05-.235-.106-.361-.162a3.155,3.155,0,0,1-.361-.2,1.39,1.39,0,0,1-.311-.261,1.186,1.186,0,0,1-.222-.357,1.459,1.459,0,0,1,.036-1.079,1.18,1.18,0,0,1,.331-.417,1.471,1.471,0,0,1,.493-.248,2.1,2.1,0,0,1,.6-.083,2.187,2.187,0,0,1,.328.026,2.626,2.626,0,0,1,.308.066,1.378,1.378,0,0,1,.251.1.636.636,0,0,1,.146.089.207.207,0,0,1,.046.06.254.254,0,0,1,.023.066.708.708,0,0,1,.013.1c0,.043,0,.093,0,.155a1.391,1.391,0,0,1-.007.175.941.941,0,0,1-.017.119.139.139,0,0,1-.036.069.08.08,0,0,1-.063.02.312.312,0,0,1-.126-.05q-.084-.05-.208-.109a1.7,1.7,0,0,0-.288-.106,1.237,1.237,0,0,0-.361-.046.92.92,0,0,0-.268.036.559.559,0,0,0-.192.1.36.36,0,0,0-.112.159.553.553,0,0,0-.036.2.421.421,0,0,0,.083.265.736.736,0,0,0,.225.2,2.36,2.36,0,0,0,.318.165c.119.05.242.106.364.162a3.529,3.529,0,0,1,.364.2,1.424,1.424,0,0,1,.318.261,1.153,1.153,0,0,1,.225.357A1.273,1.273,0,0,1,469.281,188.165Z" transform="translate(-375.197 -184.85)" fill="#234196"/>
      <path id="Trazado_2981" data-name="Trazado 2981" d="M481.591,188.883a1.054,1.054,0,0,1-.007.152.783.783,0,0,1-.017.106.227.227,0,0,1-.03.076.434.434,0,0,1-.056.073.746.746,0,0,1-.152.106,1.821,1.821,0,0,1-.275.122,2.534,2.534,0,0,1-1.674-.007,1.656,1.656,0,0,1-.648-.437,1.984,1.984,0,0,1-.41-.725,3.21,3.21,0,0,1-.142-1.012,3.242,3.242,0,0,1,.156-1.042,2.251,2.251,0,0,1,.437-.768,1.855,1.855,0,0,1,.675-.47,2.3,2.3,0,0,1,.867-.159,1.927,1.927,0,0,1,.371.033,2.3,2.3,0,0,1,.331.083,1.459,1.459,0,0,1,.271.119.792.792,0,0,1,.169.116.511.511,0,0,1,.066.079.338.338,0,0,1,.03.083.97.97,0,0,1,.017.116c0,.046.007.1.007.169s0,.132-.007.182a.394.394,0,0,1-.026.122.225.225,0,0,1-.043.069.09.09,0,0,1-.056.02.241.241,0,0,1-.136-.063c-.056-.043-.126-.086-.212-.139a1.851,1.851,0,0,0-.311-.139,1.282,1.282,0,0,0-.43-.063,1.027,1.027,0,0,0-.49.113,1.093,1.093,0,0,0-.367.321,1.433,1.433,0,0,0-.228.5,2.58,2.58,0,0,0-.079.665,2.609,2.609,0,0,0,.083.7,1.383,1.383,0,0,0,.238.49.957.957,0,0,0,.374.288,1.236,1.236,0,0,0,.493.1,1.377,1.377,0,0,0,.43-.06,2,2,0,0,0,.311-.129,2.163,2.163,0,0,0,.215-.129.249.249,0,0,1,.129-.056.094.094,0,0,1,.056.013.127.127,0,0,1,.036.056.47.47,0,0,1,.02.119C481.578,188.731,481.591,188.8,481.591,188.883Z" transform="translate(-383.166 -184.883)" fill="#234196"/>
      <path id="Trazado_2982" data-name="Trazado 2982" d="M495.391,187.189a3.37,3.37,0,0,1-.142,1.026,2.058,2.058,0,0,1-.424.768,1.808,1.808,0,0,1-.695.48,2.6,2.6,0,0,1-.959.165,2.792,2.792,0,0,1-.94-.142,1.655,1.655,0,0,1-.668-.43,1.828,1.828,0,0,1-.4-.734,3.69,3.69,0,0,1-.132-1.055,3.27,3.27,0,0,1,.142-1.006,2.054,2.054,0,0,1,.423-.761,1.831,1.831,0,0,1,.7-.48,2.551,2.551,0,0,1,.963-.169,2.806,2.806,0,0,1,.923.139,1.615,1.615,0,0,1,.668.427,1.9,1.9,0,0,1,.407.728A3.675,3.675,0,0,1,495.391,187.189Zm-.986.05a3.679,3.679,0,0,0-.056-.662,1.435,1.435,0,0,0-.2-.51.914.914,0,0,0-.364-.328,1.263,1.263,0,0,0-.569-.116,1.157,1.157,0,0,0-.576.129,1.047,1.047,0,0,0-.374.347,1.43,1.43,0,0,0-.2.51,3.036,3.036,0,0,0-.06.615,3.824,3.824,0,0,0,.056.678,1.538,1.538,0,0,0,.192.516.893.893,0,0,0,.364.328,1.279,1.279,0,0,0,.572.112,1.189,1.189,0,0,0,.579-.129,1.048,1.048,0,0,0,.374-.347,1.44,1.44,0,0,0,.2-.516A3.467,3.467,0,0,0,494.4,187.239Z" transform="translate(-391.765 -184.85)" fill="#234196"/>
      <path id="Trazado_2983" data-name="Trazado 2983" d="M509.557,185.5a1.281,1.281,0,0,1-.01.175.457.457,0,0,1-.026.119.175.175,0,0,1-.043.066.092.092,0,0,1-.06.02h-1.155V189.6a.087.087,0,0,1-.023.063.166.166,0,0,1-.076.046.849.849,0,0,1-.146.03,1.512,1.512,0,0,1-.225.01,2.108,2.108,0,0,1-.225-.01.655.655,0,0,1-.146-.03.166.166,0,0,1-.076-.046.093.093,0,0,1-.023-.063v-3.715h-1.155a.092.092,0,0,1-.06-.02.176.176,0,0,1-.043-.066.456.456,0,0,1-.026-.119,1.362,1.362,0,0,1-.01-.175,1.436,1.436,0,0,1,.01-.182.456.456,0,0,1,.026-.119.16.16,0,0,1,.043-.063.092.092,0,0,1,.06-.02h3.249a.1.1,0,0,1,.06.02.113.113,0,0,1,.043.063.652.652,0,0,1,.026.119A1.425,1.425,0,0,1,509.557,185.5Z" transform="translate(-401.802 -185.031)" fill="#234196"/>
      <path id="Trazado_2984" data-name="Trazado 2984" d="M520.871,189.334a1.083,1.083,0,0,1,.053.2.125.125,0,0,1-.03.112.252.252,0,0,1-.139.046c-.066.007-.159.01-.275.01s-.215,0-.284-.007a.779.779,0,0,1-.156-.02.165.165,0,0,1-.076-.043.27.27,0,0,1-.036-.076l-.311-.926h-1.73l-.291.9a.391.391,0,0,1-.036.083.149.149,0,0,1-.076.053.477.477,0,0,1-.146.027c-.063,0-.146.007-.248.007s-.2,0-.258-.01a.181.181,0,0,1-.129-.053.143.143,0,0,1-.026-.116,1.3,1.3,0,0,1,.053-.2l1.423-4.089a.347.347,0,0,1,.05-.1.174.174,0,0,1,.089-.056.7.7,0,0,1,.172-.023c.073,0,.172-.007.291-.007.139,0,.251,0,.334.007a1.169,1.169,0,0,1,.2.023.182.182,0,0,1,.1.06.446.446,0,0,1,.053.106Zm-2.117-3.381h0l-.652,1.959h1.307Z" transform="translate(-408.924 -184.984)" fill="#234196"/>
    </g>
  </g>
  <g id="Grupo_3543" data-name="Grupo 3543" transform="translate(56.987 12.295)">
    <path id="Trazado_2985" data-name="Trazado 2985" d="M182.34,92.688q.407-1.811.771-3.636c.222-.86.377-1.542.49-2.055s.175-.85.2-1c.06-.417.119-.768.185-1.062s.119-.509.165-.652a8.45,8.45,0,0,0,.248-.817c-.007-.258-.013-.5-.017-.738.069-.149.156-.351.258-.625a.336.336,0,0,0-.033-.251c-.04-.053-.122-.079-.255-.079H184.2a5.4,5.4,0,0,0-1.108.844,5.7,5.7,0,0,0-.92,1.221c-.126.232-.281.572-.473,1.016s-.4,1.009-.632,1.687q-.417,1.166-.867,2.389c-.04.3-.07.748-.089,1.337a12.156,12.156,0,0,1-.083,1.337,4.235,4.235,0,0,1-.116.569c-.056.215-.132.473-.218.771s-.162.566-.235.8a3.73,3.73,0,0,0-.146.546c-.235,1.284-.44,2.3-.609,3.054s-.294,1.247-.371,1.482c-.129.357-.281.8-.463,1.3s-.377,1.1-.6,1.773c-.162.44-.328.837-.493,1.184a5.184,5.184,0,0,0-.258.685,3.656,3.656,0,0,0-.116.506,2.4,2.4,0,0,1-.182.711.35.35,0,0,1-.318.225c-.152,0-.347-.271-.589-.817a21.76,21.76,0,0,1-.85-2.491c-.324-1.062-.625-2.177-.893-3.342s-.519-2.362-.734-3.606c-.278-1.128-.553-2.213-.83-3.246q-.293-1.151-.42-1.919a4.12,4.12,0,0,1-.073-1.158,1.887,1.887,0,0,1,.248-.672,9.494,9.494,0,0,1,.569-.811c.046-.139.126-.347.242-.605s.261-.586.457-.969c.179-.364.321-.652.41-.87a1.8,1.8,0,0,0,.156-.417.643.643,0,0,0-.01-.271.414.414,0,0,0-.162-.172,5.1,5.1,0,0,1-.509-.251,1.6,1.6,0,0,0-.546.275,4.851,4.851,0,0,0-.552.5c-.228.258-.423.473-.576.625a3.153,3.153,0,0,1-.39.331,1.4,1.4,0,0,1-.361-.311c-.175-.179-.314-.271-.43-.271a2.891,2.891,0,0,0-.529.079,3.334,3.334,0,0,1-.549.073,1.813,1.813,0,0,0-.761.146.968.968,0,0,0-.453.42c-.106.258-.215.526-.328.791s-.225.533-.337.791l.142,1.261c-.589,2.038-1.188,4.056-1.79,6.068-.586,2.055-1.055,3.646-1.4,4.794s-.576,1.853-.678,2.111c-.136.341-.248.632-.344.893s-.162.457-.212.629c-.162.658-.314,1.244-.45,1.747s-.248.916-.341,1.227c-.04.106-.132.347-.265.731s-.321.91-.553,1.588c-.215.6-.38,1.088-.493,1.476a6.542,6.542,0,0,0-.215.857,1.986,1.986,0,0,0,0,.711c.036.165.129.232.265.205a1.645,1.645,0,0,0,.41-.165.609.609,0,0,0,.182-.169,1,1,0,0,0,.645-.248,1.3,1.3,0,0,0,.371-.668c.278-.586.509-1.082.7-1.509s.357-.784.483-1.075c.119-.377.228-.764.334-1.148l.433-.642c.159-.39.3-.764.423-1.128s.258-.711.38-1.052c.414-1.009.814-1.959,1.181-2.842s.695-1.7.986-2.452a8.8,8.8,0,0,0,.539-.936c.189-.546.357-1.009.5-1.4a9.032,9.032,0,0,1,.4-.969l.142-.063c.152.3.281.586.384.85a5.225,5.225,0,0,1,.232.824c.361,1.155.685,2.15.963,3s.516,1.552.695,2.124c.036.232.069.437.1.615s.043.334.053.45a7.387,7.387,0,0,0,.38,1.393c.215.615.516,1.4.89,2.342a13.511,13.511,0,0,0,1.065,2.342c.318.513.572.771.771.771a10.454,10.454,0,0,0,1.36-.42,7.5,7.5,0,0,0,1.287-.5l.738-.969c.38-.817.711-1.581.976-2.28a14.715,14.715,0,0,0,.615-1.906,28.991,28.991,0,0,0,1.141-3.219c.354-1.2.688-2.531.983-3.977.271-1.214.549-2.422.824-3.626" transform="translate(-160.471 -81.77)" fill="#234196"/>
    <path id="Trazado_2986" data-name="Trazado 2986" d="M305.178,83.51a2.246,2.246,0,0,0-1.38.777,16.822,16.822,0,0,0-1.932,2.319c-.566.774-1.069,1.532-1.532,2.27A17.736,17.736,0,0,0,299.17,91c-.235.4-.45.754-.632,1.075a7.147,7.147,0,0,1-.519.791c-.549,1.208-1.042,2.326-1.489,3.355s-.814,1.985-1.092,2.849l.06.371a5.7,5.7,0,0,0-.48,1.264,11.421,11.421,0,0,0-.374,1.5,2.323,2.323,0,0,1,0,.41,2.386,2.386,0,0,1-.046.265.246.246,0,0,1-.109.159l-1.429,1.125a5.289,5.289,0,0,0-.546.612,3.689,3.689,0,0,1-.417.476l.013.043a2.422,2.422,0,0,1-.314.235c-.1.063-.185.109-.242.139-.109.106-.205.205-.308.311s-.2.212-.3.331a2.678,2.678,0,0,1-.38.251.688.688,0,0,1-.351.1.946.946,0,0,1-.877-.5,1.6,1.6,0,0,1-.185-1.118c.076-.6.169-1.221.285-1.873a1.88,1.88,0,0,0-.119-.963.6.6,0,0,0-.582-.318,2.985,2.985,0,0,0-1.505.516A10.014,10.014,0,0,0,285.338,104c-.122.079-.238.142-.331.2s-.2.1-.291.152c-.129.079-.351.245-.668.5s-.715.579-1.2.983a13.394,13.394,0,0,1-1.148.877,4.025,4.025,0,0,1-.959.466L280.62,107c.453-.536.817-.963,1.089-1.29s.473-.529.569-.625c.817-.632,1.469-1.174,1.969-1.634a5.686,5.686,0,0,0,.993-1.108,9.274,9.274,0,0,0,.794-.586c.208-.165.344-.288.417-.344.112-.136.238-.281.394-.453a11.075,11.075,0,0,0,1.171-.9,11.425,11.425,0,0,0,.873-.863c.414-.285.8-.546,1.158-.774a1.509,1.509,0,0,0,.526-.536,1.744,1.744,0,0,0,.241-.715.7.7,0,0,0-.155-.6,1,1,0,0,0-.721-.212,5.044,5.044,0,0,0-2.359.834,25.751,25.751,0,0,0-3.447,2.511,7.1,7.1,0,0,1-.8.592c-.242.152-.44.265-.592.344-.331.261-.609.486-.827.675s-.394.361-.519.486a3.488,3.488,0,0,0-.552.311,1.636,1.636,0,0,0-.424.43,3.41,3.41,0,0,1-.374.473,2.811,2.811,0,0,1-.268.265l-1.922,1.165c-.162.218-.3.4-.414.556a2.3,2.3,0,0,1-.268.3.03.03,0,0,1,0,.017,4.119,4.119,0,0,1-.529.328,12.083,12.083,0,0,0-1.4,1.125,6.77,6.77,0,0,1-.84.609,1.353,1.353,0,0,1-.632.225.248.248,0,0,1-.179-.06.174.174,0,0,1-.043-.159,6.942,6.942,0,0,1,.9-2.184,7.394,7.394,0,0,0,.9-2.233,6.856,6.856,0,0,0-.053-2.511,3,3,0,0,0-.95-1.615,2.157,2.157,0,0,0-.285-.212c-.248-.288-.5-.559-.774-.817a1.466,1.466,0,0,0-1.062-.39,3.724,3.724,0,0,0-1.717.662,4.409,4.409,0,0,0-1.409,1.148l.066.93a10.182,10.182,0,0,1-1.578,2.015,21.717,21.717,0,0,1-2.63,2.253c-.245.285-.476.559-.708.82l-.017-.056c-.152.053-.3.1-.45.139a1.487,1.487,0,0,1-.374.06.775.775,0,0,1-.734-.357,1.776,1.776,0,0,1-.106-1.079,3.084,3.084,0,0,0-.007-.6,2.755,2.755,0,0,1,0-.625,8.349,8.349,0,0,0,.079-.877,1.726,1.726,0,0,0-.04-.463.625.625,0,0,0-.364-.377,1.949,1.949,0,0,0-.787-.129,1.631,1.631,0,0,0-1.085.457,5.01,5.01,0,0,0-1.019,1.386,5.267,5.267,0,0,1-.4.437c-.139.139-.261.265-.364.364-.294.351-.582.711-.87,1.069-.48.5-.89.923-1.231,1.29s-.648.665-.913.907c-.278.149-.523.275-.734.38s-.38.205-.523.285c-.136.04-.208-.119-.238-.463a8.525,8.525,0,0,1,.112-1.615,8.949,8.949,0,0,1,.281-1.287q.2-.695.506-1.535c.192-.447.387-.89.592-1.343s.39-.91.549-1.363a8.506,8.506,0,0,0,.417-.8c.079-.165.146-.318.205-.463a1.335,1.335,0,0,0,.1-.334.722.722,0,0,0-.086-.529.469.469,0,0,0-.42-.185,2.5,2.5,0,0,0-.605.152c-.3.1-.725.278-1.28.529-.364.4-.715.811-1.049,1.237s-.678.824-1.016,1.217c-.4.384-.784.774-1.141,1.161s-.7.784-1.042,1.168q-.61.64-1.092,1.118a7.463,7.463,0,0,1-.854.744.408.408,0,0,1-.073.2.8.8,0,0,1-.142.136.061.061,0,0,0,.007.023c-.953.725-1.694,1.274-2.233,1.648a3.908,3.908,0,0,1-.92.566.28.28,0,0,1-.271-.159.8.8,0,0,1-.036-.466,11.175,11.175,0,0,1,.351-1.36c.2-.672.483-1.555.837-2.643q.779-2.045,1.393-3.54t1.072-2.471c.1-.245.182-.463.248-.648s.113-.344.156-.48l1.363-.271c.155-.013.3-.225.427-.652a12.081,12.081,0,0,0,.351-1.8,1.837,1.837,0,0,0,.017-.457.373.373,0,0,0-.129-.261,1.233,1.233,0,0,1-.179-.205.958.958,0,0,1-.083-.165,5.988,5.988,0,0,1,.447-1.1,3.933,3.933,0,0,0,.423-1.174,1.151,1.151,0,0,0-.136-.857.786.786,0,0,0-.675-.291c-.582,0-1.221.612-1.9,1.826s-1.244,1.853-1.71,1.909l-.612-.192c-.205.04-.39.069-.552.1s-.334.066-.51.106a2.756,2.756,0,0,0-.553-.1,8.293,8.293,0,0,0-.883-.04c-.179.04-.364.083-.559.122a7.876,7.876,0,0,0-.834-.126,9.775,9.775,0,0,0-1.019-.046,1.023,1.023,0,0,0-.893.655,5.789,5.789,0,0,0-.523,1.909.358.358,0,0,0,.086.3.835.835,0,0,0,.331.205c.1.046.2.1.3.139s.212.106.337.165c.1,0,.271.007.506.02s.41.02.516.02h2.432a1.731,1.731,0,0,0,.407-.066,1.633,1.633,0,0,1,.387-.066.234.234,0,0,1,.192.06.194.194,0,0,1,.036.172c-.205.357-.384.645-.549.877s-.3.417-.427.566a47.325,47.325,0,0,1-3.15,4.093,27.158,27.158,0,0,1-3.1,3.06c-.2.208-.371.39-.513.546s-.261.285-.351.394l-.1.152.017.017a2.223,2.223,0,0,1-.294.215,1.974,1.974,0,0,1-.235.139c-.109.109-.208.208-.311.314s-.2.212-.3.331a2.566,2.566,0,0,1-.377.251.709.709,0,0,1-.354.1.946.946,0,0,1-.877-.5,1.614,1.614,0,0,1-.189-1.112c.083-.6.172-1.224.288-1.873a1.833,1.833,0,0,0-.122-.963.6.6,0,0,0-.579-.321,3.013,3.013,0,0,0-1.509.519,9.664,9.664,0,0,0-1.889,1.581c-.126.079-.241.146-.334.2s-.2.1-.291.152a8.27,8.27,0,0,0-.665.5q-.471.377-1.208.983a12.9,12.9,0,0,1-1.148.877,4.043,4.043,0,0,1-.963.466l-.116-.172c.45-.536.814-.963,1.088-1.287s.47-.533.569-.625c.814-.629,1.466-1.174,1.965-1.634a5.59,5.59,0,0,0,.993-1.112,8.324,8.324,0,0,0,.8-.582c.205-.169.344-.288.417-.347.109-.132.238-.278.394-.45a11.906,11.906,0,0,0,1.171-.9,12.048,12.048,0,0,0,.873-.864q.625-.427,1.161-.774a1.6,1.6,0,0,0,.523-.529,1.8,1.8,0,0,0,.245-.718.689.689,0,0,0-.156-.605,1.021,1.021,0,0,0-.721-.212,5.011,5.011,0,0,0-2.356.837,25.684,25.684,0,0,0-3.447,2.508,6.384,6.384,0,0,1-.8.589c-.238.155-.443.268-.592.347-.334.258-.609.483-.827.675a6.712,6.712,0,0,0-.516.486,3.688,3.688,0,0,0-.556.311,1.744,1.744,0,0,0-.423.43,3.176,3.176,0,0,1-.374.473,3.261,3.261,0,0,1-.268.265l-1.926,1.161c-.159.222-.3.407-.414.559a2.388,2.388,0,0,1-.268.3c.089.255.159.5.222.731s.126.437.182.615c.033.1.07.175.1.242a.485.485,0,0,1,.017.205,3.4,3.4,0,0,1-.1.41,3.765,3.765,0,0,0-.794.926,2.586,2.586,0,0,0-.364,1,1.76,1.76,0,0,0,.255,1.406,1.655,1.655,0,0,0,1.32.457,1.276,1.276,0,0,0,.447-.122c.205-.086.453-.2.744-.341.463-.232.88-.463,1.254-.685a9.564,9.564,0,0,0,.993-.655c.152-.132.4-.344.751-.645s.781-.682,1.3-1.145c.371-.275.7-.506.979-.7s.513-.357.7-.49c.122-.112.222-.205.311-.278s.172-.139.242-.205a.925.925,0,0,1,.155.377,1.617,1.617,0,0,1,0,.357,3.089,3.089,0,0,0,.5,2.184,2.239,2.239,0,0,0,1.849.718,3.039,3.039,0,0,0,1.122-.225,5.923,5.923,0,0,0,1.221-.672c.354-.258.7-.536,1.036-.83s.662-.569,1-.84c.159-.2.294-.361.417-.486s.205-.228.255-.294c.771-.648,1.535-1.294,2.28-1.926q.72-.566,1.254-1.079a8.914,8.914,0,0,0,.893-.986l.208-.112c.093.05.136.106.129.175-.2.351-.4.685-.576.989-.162.513-.318,1.016-.46,1.522-.093.3-.179.559-.245.774a3.353,3.353,0,0,0-.129.526,1.425,1.425,0,0,1-.149.271,6.354,6.354,0,0,0-.43,1.337c-.129.553-.242,1.2-.344,1.955a2.209,2.209,0,0,0,.208,1.538,1.356,1.356,0,0,0,1.208.506,2.032,2.032,0,0,0,.867-.225,3.935,3.935,0,0,0,1.016-.731c.265-.245.533-.5.794-.754s.526-.519.794-.774c.261-.232.506-.44.728-.615s.4-.337.549-.476c.354-.218.665-.433.92-.625s.463-.367.615-.5l0-.017c.172-.185.314-.347.424-.483a2.761,2.761,0,0,0,.238-.337l1.264-1.141.126-.06c.089,0,.146.1.159.291a4.7,4.7,0,0,1-.01.857,3.124,3.124,0,0,0-.073.675c-.01.377,0,.9.026,1.581a2.323,2.323,0,0,0,.483,1.581,1.721,1.721,0,0,0,1.37.536,3.176,3.176,0,0,0,1.347-.357,5.7,5.7,0,0,0,1.519-1.158c.42-.4.837-.811,1.244-1.221s.811-.824,1.221-1.254c.189-.182.374-.361.552-.546s.324-.331.463-.463a3.243,3.243,0,0,1,.255.463,1.432,1.432,0,0,1,.1.473,2.447,2.447,0,0,0,.715,1.492,2.164,2.164,0,0,0,1.525.5,3.236,3.236,0,0,0,1.165-.357c.533-.235,1.208-.582,2.035-1.045a.47.47,0,0,1,.017.073,1.957,1.957,0,0,0,.3-.351c.069-.106.119-.185.152-.238a9.66,9.66,0,0,0,1.138-.8,4.327,4.327,0,0,0,.655-.658,4.528,4.528,0,0,0,.817-.6c.337-.3.728-.688,1.171-1.151a9.882,9.882,0,0,1,1.174-1.069,7.313,7.313,0,0,1,1.022-.665,1.024,1.024,0,0,1,.877.625,2.922,2.922,0,0,1,.112,1.575,9.979,9.979,0,0,1-.48,1.892,21.255,21.255,0,0,1-.959,2.27,5.029,5.029,0,0,1-.3.539c-.116.172-.225.344-.321.519a5.394,5.394,0,0,0-.327.612,1.743,1.743,0,0,0-.156.5.717.717,0,0,0,.3.781,2.187,2.187,0,0,0,1.194.248,3.892,3.892,0,0,0,.953-.414c1.062-.592,1.985-1.122,2.749-1.581s1.4-.857,1.879-1.181c.235-.179.43-.341.6-.486l.374-.311a3.033,3.033,0,0,1-.089.371,3.973,3.973,0,0,0-.8.923,2.54,2.54,0,0,0-.357,1,1.782,1.782,0,0,0,.251,1.409,1.667,1.667,0,0,0,1.32.457,1.353,1.353,0,0,0,.45-.126c.2-.086.45-.2.741-.341.463-.232.88-.463,1.254-.685a9.631,9.631,0,0,0,1-.655c.152-.132.4-.347.751-.645s.784-.685,1.3-1.148c.367-.271.7-.5.979-.695s.513-.357.7-.493c.119-.112.222-.208.308-.281s.175-.139.241-.205a.943.943,0,0,1,.156.377,1.3,1.3,0,0,1,0,.357,3.1,3.1,0,0,0,.5,2.184,2.24,2.24,0,0,0,1.849.718,3.036,3.036,0,0,0,1.118-.225,6,6,0,0,0,1.221-.672c.351-.261.7-.539,1.036-.83s.658-.572,1-.844a4.038,4.038,0,0,0-.086-.414l.112.371c.364-.3.672-.566.94-.8s.476-.44.672-.605a.941.941,0,0,1,.2.311,1.2,1.2,0,0,1,.073.311,5.076,5.076,0,0,0,.639,2.63,1.93,1.93,0,0,0,1.684.87c.222,0,.539.026.966.073a8.538,8.538,0,0,0,.94.069,3.352,3.352,0,0,0,1.264-.268,5.761,5.761,0,0,0,1.323-.764q.586-.447,1.158-.916c.374-.311.754-.619,1.135-.913l-.516-1.793c-.334.258-.632.486-.887.672s-.486.337-.665.443c-.6.192-1.062.341-1.4.423a4.051,4.051,0,0,1-.6.142,2.327,2.327,0,0,1-2.114-.963,4.2,4.2,0,0,1-.367-2.849c.513-.652,1.022-1.327,1.515-2.048.361-.437.675-.824.953-1.148s.5-.6.672-.817c.152-.245.291-.463.4-.655s.225-.357.321-.493c.222-.285.4-.516.562-.695a5.049,5.049,0,0,0,.38-.506c.192-.3.354-.556.47-.777a4.254,4.254,0,0,0,.278-.586c.169-.232.331-.443.483-.632s.268-.351.367-.48c.258-.506.5-.976.691-1.4s.367-.807.5-1.131c.215-.367.4-.675.533-.933s.251-.48.331-.662l.013-.271a1.254,1.254,0,0,0,.139-.314,3.593,3.593,0,0,1,.37-1.112,3.506,3.506,0,0,0,.337-.936,6.963,6.963,0,0,1,.238-.983,6.527,6.527,0,0,0,.235-.963,2.21,2.21,0,0,0-.2-1.641,2.044,2.044,0,0,0-1.515-.433m-2.018,7.226a5.791,5.791,0,0,0-.212.771,15.263,15.263,0,0,1-1.042,2.26,14.984,14.984,0,0,1-1.287,2.2c-.308.423-.579.8-.814,1.108a7.854,7.854,0,0,0-.556.817,9.528,9.528,0,0,1-.715.973.984.984,0,0,1-.48.351l-.089-.159a4.252,4.252,0,0,1,.321-.969c.189-.45.463-1.042.8-1.773.285-.48.556-.916.82-1.32.212-.341.374-.609.49-.824a1.854,1.854,0,0,0,.189-.46,4.079,4.079,0,0,1,.794-1.806,12.053,12.053,0,0,1,1.912-1.985l.126.073c-.079.248-.169.493-.261.744" transform="translate(-201.376 -82.934)" fill="#234196"/>
    <path id="Trazado_2987" data-name="Trazado 2987" d="M544.192,105.316c-.086-.3-.192-.639-.308-1.016a2.782,2.782,0,0,1-.47.285c-.152.073-.265.129-.331.165a6.574,6.574,0,0,1-1.178.463,5.988,5.988,0,0,1-1.413.251,5.382,5.382,0,0,1-.784-.212,1.39,1.39,0,0,1-.46-.232.821.821,0,0,1-.351-.47,1.6,1.6,0,0,1-.05-.721,1.123,1.123,0,0,1,.149-.437,1.718,1.718,0,0,1,.281-.341,35,35,0,0,0,2.945-2.8,8.161,8.161,0,0,0,1.519-2.157l.261-.625c.136-.311.232-.539.3-.678q.064-.154.079-.139c-.013-.3-.02-.569-.016-.817a5.38,5.38,0,0,0-.142-.758,1.448,1.448,0,0,0-.205-.473.837.837,0,0,0-.45-.328,2.458,2.458,0,0,0-.774-.1,3.383,3.383,0,0,0-.652.06,4.94,4.94,0,0,0-.539.132c-.185.132-.374.248-.552.351a4.838,4.838,0,0,0-.51.334c-.347.367-.692.725-1.042,1.075s-.675.691-.986.983c-.4.539-.721,1.016-.986,1.439s-.466.781-.615,1.069-.271.553-.394.8-.205.457-.275.635c-.046.258-.109.519-.175.771s-.149.513-.222.771a8.656,8.656,0,0,0-1.049.864,6.5,6.5,0,0,0-.715.824c0,.007,0,.01.007.017a13.232,13.232,0,0,0-1.158,1.386,9.793,9.793,0,0,0-.916,1.519c-.05.073-.185.407-.423.983s-.579,1.38-1.045,2.425a3.358,3.358,0,0,1-.337.7c-.126.185-.222.331-.288.45l.007.384c-.827,1.6-1.479,2.8-1.975,3.593s-.82,1.2-1,1.2c-.079,0-.126-.106-.142-.321a7.506,7.506,0,0,1,0-.923c.007-.337.023-.662.056-.976.106-.817.285-1.78.519-2.888s.553-2.372.923-3.785c.38-1.5.758-2.8,1.118-3.9s.708-2.018,1.039-2.749c.185-.308.347-.572.483-.781a2.162,2.162,0,0,1,.367-.443,4.167,4.167,0,0,0,.251-.5c.066-.146.122-.265.175-.357.311-.5.576-.943.8-1.3s.4-.665.566-.9q1.181-2.546,2-4.483c.549-1.294.983-2.369,1.317-3.242.443-1.753.675-2.683.688-2.782.063-.457.1-.824.116-1.108a5.129,5.129,0,0,0,.013-.605.81.81,0,0,0-.324-.652,1.307,1.307,0,0,0-.791-.2,2.092,2.092,0,0,0-1.37.648,7.8,7.8,0,0,0-1.433,1.939q-1.985,3.677-3.394,6.865a42.964,42.964,0,0,0-2.167,5.972,9.976,9.976,0,0,1-.42,1.131,6.34,6.34,0,0,1-.572,1.049c-.119.189-.308.44-.552.771s-.566.725-.94,1.174c-.132.155-.258.288-.351.4a2.332,2.332,0,0,0-.248.3.012.012,0,0,1,0,.01c-.222.162-.453.334-.685.509s-.466.344-.688.509a2.993,2.993,0,0,1-.814.437,2.246,2.246,0,0,1-.731.129,1.108,1.108,0,0,1-.483-.086.519.519,0,0,1-.255-.281,3.493,3.493,0,0,1-.172-.9c-.056-.526-.113-.916-.165-1.174,0-.417-.01-.824-.03-1.234s-.053-.811-.093-1.214a1.393,1.393,0,0,0-.486-1.022,1.685,1.685,0,0,0-1.1-.337,1.226,1.226,0,0,0-.529.132,1.583,1.583,0,0,0-.506.45,15.017,15.017,0,0,1-2.078,1.876,16.032,16.032,0,0,0-2.1,1.873l-.079.2-.079.073a.55.55,0,0,0-.023-.069,2.339,2.339,0,0,1-.377.337,4.154,4.154,0,0,1-.486.328,2.973,2.973,0,0,1-.424.5c-.109.04-.215.079-.314.119a1.353,1.353,0,0,1-.318.079,19.291,19.291,0,0,1-2.723.8,11.947,11.947,0,0,1-2.514.271c-.189,0-.3-.112-.367-.347a2.742,2.742,0,0,1,0-.993,16.3,16.3,0,0,1,.5-2.094c.281-.93.655-2.1,1.148-3.514.112-.351.205-.648.268-.91s.136-.493.185-.685c.026-.063.113-.245.235-.543s.294-.718.516-1.27c.179-.4.328-.744.43-1.036a3.775,3.775,0,0,0,.189-.711,7.167,7.167,0,0,1,.672-1.879,7.457,7.457,0,0,0,.695-2.051,8.313,8.313,0,0,1,.208-.87c.109-.407.261-.916.427-1.528.165-.218.288-.4.39-.562.069-.222.132-.457.2-.718s.119-.543.175-.857c.04-.116.1-.275.172-.466s.149-.43.238-.7a4.593,4.593,0,0,0,.241-.691,5.358,5.358,0,0,0,.1-.529,1.823,1.823,0,0,0-.1-1.1.744.744,0,0,0-.718-.357,1.646,1.646,0,0,0-.38.066,5.257,5.257,0,0,0-.652.205,3.97,3.97,0,0,0-.777.44,2.133,2.133,0,0,0-.526.553c-.136.265-.268.506-.384.731s-.265.47-.41.731c-.308.529-.576,1.009-.8,1.423a11.246,11.246,0,0,0-.513,1.049c-.122.417-.258.84-.414,1.287s-.308.877-.46,1.3c-.142.364-.278.734-.424,1.112s-.285.764-.447,1.141A11.559,11.559,0,0,0,505.6,93.5a9.364,9.364,0,0,0-.218,1.049.469.469,0,0,0,.218.5.508.508,0,0,1,.208.536,18.036,18.036,0,0,1-.744,2.693,18.306,18.306,0,0,0-.711,2.478,2.385,2.385,0,0,0-.017.4,1.8,1.8,0,0,1-.013.377,13.845,13.845,0,0,1-.827,2.491,13.414,13.414,0,0,0-.854,2.729,12.415,12.415,0,0,0-.146,1.866c.017.427.093.685.235.781.112.066.265.162.473.291.093.066.189.136.288.212s.205.159.311.232a.8.8,0,0,0,.314.112,2.871,2.871,0,0,0,.48.026c.235,0,.5,0,.774-.026a4.769,4.769,0,0,0,.863-.149c.414-.053.84-.112,1.277-.165a4.266,4.266,0,0,0,1.267-.367c.361-.165.761-.337,1.2-.509s.907-.357,1.4-.536a5.033,5.033,0,0,0,.913-.427,2.775,2.775,0,0,0,.678-.6c.208-.275.4-.539.579-.8a8.142,8.142,0,0,1,.509-.672.571.571,0,0,1,.017.063,14.7,14.7,0,0,1,1.452-1.257,1.784,1.784,0,0,1,.893-.417c.076,0,.169.073.258.225a3.575,3.575,0,0,1,.321.672c.1.192.2.357.284.506a2.7,2.7,0,0,1,.182.371,4.671,4.671,0,0,0,.86,2.273,3.9,3.9,0,0,0,2.237.41,2.385,2.385,0,0,0,.893-.278,12.5,12.5,0,0,0,1.479-.87c.533-.351.983-.658,1.36-.923a10.519,10.519,0,0,0,.916-.7l.437.437q-.387,1.32-.678,2.359c-.189.691-.337,1.254-.437,1.71.027.4.053.8.073,1.188a3.656,3.656,0,0,1-.179.678,4.115,4.115,0,0,0-.175.665l-.4,2.954a6.264,6.264,0,0,0-.066.923,5.369,5.369,0,0,0,.063.811c0,.407-.007.811-.016,1.217s-.013.824,0,1.234a1.63,1.63,0,0,0,.543,1.108,1.953,1.953,0,0,0,1.284.371,1.1,1.1,0,0,0,.543-.146,2.712,2.712,0,0,0,.539-.4c.126-.152.261-.318.4-.486a4.913,4.913,0,0,0,.394-.509,20.983,20.983,0,0,0,2.263-3.669q1.266-2.461,2.739-6.177c.139-.351.275-.715.414-1.1s.288-.758.447-1.118a7.387,7.387,0,0,1,.573-1.181,5.721,5.721,0,0,1,.645-.883.143.143,0,0,0,0-.017,3.325,3.325,0,0,1,.47-.423.7.7,0,0,1,.371-.146.364.364,0,0,1,.324.208,2.38,2.38,0,0,1,.245.629c.093.354.192.652.284.9a1.836,1.836,0,0,0,.314.576,2,2,0,0,0,.84.625,3.369,3.369,0,0,0,1.241.212,5.043,5.043,0,0,0,.956-.083,2.656,2.656,0,0,0,.751-.285,3.653,3.653,0,0,0,1.74-.553,14.635,14.635,0,0,0,2.233-1.648,5.855,5.855,0,0,0-.192-.768m-5.28-4.569a4.322,4.322,0,0,1,.936-1.644c.586-.744,1.012-1.118,1.3-1.118a.2.2,0,0,1,.192.106.468.468,0,0,1,.026.288,1.462,1.462,0,0,1-.188.543,2.493,2.493,0,0,1-.42.546c-.152.139-.3.285-.457.43s-.321.291-.473.417c-.1.132-.2.275-.308.42a.475.475,0,0,1-.384.225c-.106,0-.172-.01-.2-.046a.193.193,0,0,1-.023-.165m-6.17-6.842c.089-.212.205-.463.347-.751.172-.337.318-.615.427-.834a3.21,3.21,0,0,0,.205-.526c.089-.179.156-.318.2-.417s.106-.146.185-.146.155.03.179.1a.642.642,0,0,1,.013.334,1.876,1.876,0,0,1-.159.483c-.093.192-.222.427-.384.7a8.8,8.8,0,0,0-.476.8,2.275,2.275,0,0,0-.242.645l-.331.291-.122-.152a2.072,2.072,0,0,1,.156-.523" transform="translate(-389.337 -82.044)" fill="#234196"/>
    <path id="Trazado_2988" data-name="Trazado 2988" d="M553.5,107.884c.192,0,.39.013.586.026s.41.046.622.073a1.072,1.072,0,0,0,.433-.106,5.247,5.247,0,0,0,.811-.437,4.061,4.061,0,0,0,.807-.579,3.112,3.112,0,0,0,.579-.751c.069-.126.172-.337.308-.639s.3-.685.5-1.148c.089-.245.189-.553.318-.916a.631.631,0,0,0-.152-.566.97.97,0,0,0-.682-.192,2.7,2.7,0,0,0-.728.086,2.087,2.087,0,0,0-.536.225c-.347.354-.645.658-.9.93a2.618,2.618,0,0,0-1.383.953,3,3,0,0,0-.91,1.466,2.888,2.888,0,0,0,.007,1.052.751.751,0,0,0,.327.523" transform="translate(-423.213 -95.742)" fill="#234196"/>
    <g id="Grupo_3473" data-name="Grupo 3473" transform="translate(155.08 8.42)">
      <path id="Trazado_2989" data-name="Trazado 2989" d="M632.241,108.7a1.516,1.516,0,1,1-1.5-1.476A1.487,1.487,0,0,1,632.241,108.7Zm-2.657,0a1.15,1.15,0,0,0,1.151,1.178,1.13,1.13,0,0,0,1.125-1.168,1.139,1.139,0,1,0-2.276-.01Zm.91.768h-.341v-1.476a4.2,4.2,0,0,1,.566-.046.8.8,0,0,1,.5.116.373.373,0,0,1,.152.314.382.382,0,0,1-.3.351v.017c.146.046.215.162.261.361a1.282,1.282,0,0,0,.109.361h-.361a1.064,1.064,0,0,1-.116-.361c-.026-.152-.116-.225-.3-.225H630.5v.589Zm.01-.83h.162c.189,0,.341-.063.341-.215,0-.136-.1-.225-.314-.225a1.021,1.021,0,0,0-.189.017Z" transform="translate(-629.21 -107.22)" fill="#234196"/>
    </g>
  </g>
  <g id="Grupo_3544" data-name="Grupo 3544">
    <path id="Trazado_2695" data-name="Trazado 2695" d="M1480.317-53.15c3.012.372,5.342-2.045,5.7-4.927a4.732,4.732,0,0,0-4.408-5.5A4.9,4.9,0,0,0,1476.048-59c-.354,2.875,1.262,5.481,4.269,5.851" transform="translate(-1452.583 63.617)" fill="#234196"/>
    <path id="Trazado_2696" data-name="Trazado 2696" d="M1572.141-6.446a4.521,4.521,0,0,0,4.868-4.211,4.043,4.043,0,0,0-3.766-4.7,4.185,4.185,0,0,0-4.75,3.91,4.233,4.233,0,0,0,3.647,5" transform="translate(-1531.777 22.306)" fill="#234196"/>
    <path id="Trazado_2697" data-name="Trazado 2697" d="M1382.562-35.622c2.988-.486,4.548-3.463,4.079-6.326a4.733,4.733,0,0,0-5.777-4.038,4.9,4.9,0,0,0-4.044,5.949c.467,2.859,2.749,4.91,5.742,4.415" transform="translate(-1367.554 48.587)" fill="#234196"/>
    <path id="Trazado_2698" data-name="Trazado 2698" d="M1320.616,37.055a4.731,4.731,0,0,0-6.936,1.247,4.887,4.887,0,0,0,1.358,7.059c2.359,1.694,5.425,1.524,7.187-.95s.752-5.669-1.609-7.355" transform="translate(-1312.711 -21.76)" fill="#234196"/>
    <path id="Trazado_2699" data-name="Trazado 2699" d="M1415.744,67.16v0a2.3,2.3,0,0,0,1.607-.69,2.574,2.574,0,0,1-1.9.375l-.013-.014c-1.51-.212-4.217-2.912-4.769-3.252s-1.657-.349-1.873.173-1.176.393-1.176.393-1.031-.924.885-2.012a3.426,3.426,0,0,1,3.918-.035s1.36.859,1.733.359a10.936,10.936,0,0,1,1-1.167.383.383,0,0,0-.054-.595,7.464,7.464,0,0,0-1.7-.649c-.385-.01-.866-.659-1.022-1.122-.263-.2-.267-.6-.232-1.021-.278-.489-.136-.7.217-.9a1.421,1.421,0,0,0,.726-.714c.668-1.32.9-1.655,2.2-1.868.21-.357.488-.495.488-.89,0-.478.172-1.114.477-1.142a3.373,3.373,0,0,1,1.57,1.988,4.981,4.981,0,0,1,1.843,2.991,23.247,23.247,0,0,0,.644,2.35c.036.1.076.2.119.305a6.085,6.085,0,0,0,2.809,2.661l0,.012a24.832,24.832,0,0,0,1.035-6.906l-.02.024a24.789,24.789,0,0,0-.971-7.26l.011,0a17.163,17.163,0,0,0-7.127-9.985c-8.959-5.571-19.268-.955-24.6,7.624a20.989,20.989,0,0,0-2.308,5.03,0,0,0,0,1,0,0c1.125-.68,4.94-3.21,5.934-3.824s1.921-1.19,2.127-1.322a15.745,15.745,0,0,1,2.7-2.184,4.215,4.215,0,0,1,4.111-.024,7.15,7.15,0,0,1,3.223,2.663,3.352,3.352,0,0,1,.871,1.055c.156.363-.389,1.4.778,2.427.98.861,2.989,2.154,3.172,2.845.133.5-1.086,1.125-1.616,1.617a4.114,4.114,0,0,1-2.888,1.278c-1.028,0-2.07-.876-2.949-1.474a5.9,5.9,0,0,0-1.952-.979c.049-1.293,1-1.4,1.251-3.113.15-1.135-.35-2.393-.22-3.375a5.77,5.77,0,0,0,.082-1.441,2.913,2.913,0,0,0-.518,1.284c-.107.933.324,2.5.14,3.567-.269,1.58-.892,1.532-1.051,2.939a2.246,2.246,0,0,1-.472,1.158c-.355.211-1.009.509-1.475.131a5.671,5.671,0,0,1-1.908-2.883c-.852-2.25-.962-2.743-.793-4.294-.493,1.543-.246,2.464.392,4.394a4.284,4.284,0,0,0,1.357,2.216,12.162,12.162,0,0,0-1.4.687,3.66,3.66,0,0,0-.873,2.678,14.939,14.939,0,0,1,.046,2.53c-.151,1.024-.109,2.073-.336,3.083a9.786,9.786,0,0,1-.907,2.547A10.107,10.107,0,0,0,1395,68.292c.289.222.584.442.89.655l-.064-.008c.336.233.679.463,1.035.684,7.857,4.878,16.487,6.09,22.089.54a8.952,8.952,0,0,1-3.211-3" transform="translate(-1378.278 -21.836)" fill="#234196"/>
    <path id="Trazado_2700" data-name="Trazado 2700" d="M1429.331,260.306h0l0,0,0,0" transform="translate(-1412.605 -213.851)" fill="#234196"/>
    <path id="Trazado_2701" data-name="Trazado 2701" d="M1596.357,273.333a.008.008,0,0,1,0,0,.008.008,0,0,0,0,0Z" transform="translate(-1555.68 -225.008)" fill="#234196"/>
  </g>
</svg>
