<svg xmlns="http://www.w3.org/2000/svg" xmlns:xlink="http://www.w3.org/1999/xlink" width="44.919" height="24.063" viewBox="0 0 44.919 24.063">
  <defs>
    <linearGradient id="linear-gradient" x1="0.103" y1="0.972" x2="0.931" y2="-0.011" gradientUnits="objectBoundingBox">
      <stop offset="0" stop-color="#252855"/>
      <stop offset="1" stop-color="#253788"/>
    </linearGradient>
  </defs>
  <g id="Grupo_3497" data-name="Grupo 3497" transform="translate(2558 -15217.967)">
    <rect id="Rectángulo_2664" data-name="Rectángulo 2664" width="44.919" height="24.063" rx="3" transform="translate(-2558 15217.967)" fill="#fff"/>
    <g id="logos_visa.062f66a8" transform="translate(-2552.557 15224.69)">
      <path id="Trazado_1444" data-name="Trazado 1444" d="M112.658,63.578l-4.466,10.668h-2.918l-2.2-8.513a1.18,1.18,0,0,0-.659-.941,11.656,11.656,0,0,0-2.719-.91l.063-.3h4.7a1.29,1.29,0,0,1,1.276,1.088l1.161,6.171,2.866-7.258Zm11.431,7.185c.01-2.813-3.891-2.97-3.87-4.225.01-.387.377-.795,1.171-.889a5.138,5.138,0,0,1,2.719.481l.481-2.259a7.45,7.45,0,0,0-2.583-.471c-2.73,0-4.644,1.454-4.665,3.525-.021,1.537,1.37,2.4,2.416,2.908,1.077.523,1.433.858,1.433,1.328-.01.722-.858,1.035-1.652,1.046a5.867,5.867,0,0,1-2.834-.669l-.5,2.332a8.371,8.371,0,0,0,3.064.565c2.918-.021,4.811-1.454,4.821-3.671m7.2,3.483h2.552L131.61,63.578h-2.353a1.24,1.24,0,0,0-1.171.784l-4.142,9.883h2.9l.575-1.59h3.546Zm-3.075-3.776,1.454-4.006.837,4.006ZM116.6,63.578l-2.28,10.668H111.56l2.28-10.668Z" transform="translate(-99.7 -63.4)" fill="url(#linear-gradient)"/>
    </g>
  </g>
</svg>
