<svg xmlns="http://www.w3.org/2000/svg" width="20" height="20" viewBox="0 0 20 20"><path d="M118.666,10a10,10,0,1,1-10-10,10,10,0,0,1,10,10" transform="translate(-98.666 -0.001)" fill="#234196"/><path d="M109.886,20.106a4.267,4.267,0,0,1,1-.216,6.307,6.307,0,0,1,.861-1.744,4.767,4.767,0,0,1,.77-.838,3.7,3.7,0,0,0-2.546-.43,2.223,2.223,0,0,0-1.6,2.019.233.233,0,0,0,.331.243A2.05,2.05,0,0,1,110,18.97a3.994,3.994,0,0,0-.408.831.235.235,0,0,0,.3.305" transform="translate(-105.7 -12.181)" fill="#fff"/><path d="M130.646,44.78a.673.673,0,0,0,.373.549,1.7,1.7,0,0,0,.838.211,1.737,1.737,0,0,0,.835-.211.671.671,0,0,0,.372-.549c0-.418-.536-.759-1.207-.759s-1.21.341-1.21.759" transform="translate(-121.853 -31.917)" fill="#fff"/><path d="M150.439,19.152a.235.235,0,0,0,.331-.243,2.224,2.224,0,0,0-1.6-2.019,3.7,3.7,0,0,0-2.546.43,4.639,4.639,0,0,1,.77.839,6.261,6.261,0,0,1,.86,1.743,4.174,4.174,0,0,1,1,.217.234.234,0,0,0,.3-.3,3.856,3.856,0,0,0-.409-.831,2.007,2.007,0,0,1,1.294.167" transform="translate(-133.44 -12.19)" fill="#fff"/><path d="M125.462,27.1a.234.234,0,0,0,.234-.264,46.215,46.215,0,0,0-1.3-6.364c-.051-.188-.206-.637-.226-.69a5.085,5.085,0,0,0-1.041-1.7,3.735,3.735,0,0,0-1.712-1.021,5.659,5.659,0,0,0-1.157-.155s0,4.436,1.063,6.194c.7,1.154.923,2.133.612,2.688a1.183,1.183,0,0,1-.619.494,4.525,4.525,0,0,1-2.638,0,1.267,1.267,0,0,1-.619-.494c-.312-.555-.091-1.534.611-2.688,1.068-1.758,1.065-6.193,1.065-6.193a5.618,5.618,0,0,0-1.157.156,3.724,3.724,0,0,0-1.712,1.021,5.082,5.082,0,0,0-1.042,1.7c-.02.051-.175.5-.226.689a46,46,0,0,0-1.3,6.364.234.234,0,0,0,.233.264.226.226,0,0,0,.155-.061l.621-.556a5.269,5.269,0,0,0-.012,1.908.234.234,0,0,0,.231.191.222.222,0,0,0,.17-.077c.448-.486,1.325-1.426,2.026-2.092-.027.033.4.323.435.34a3.744,3.744,0,0,0,1.844.386h0a3.747,3.747,0,0,0,1.841-.386,1.8,1.8,0,0,0,.436-.34c.7.666,1.578,1.608,2.025,2.094a.232.232,0,0,0,.4-.114,5.256,5.256,0,0,0-.007-1.912l.62.556a.225.225,0,0,0,.154.061M117.3,19.932a.5.5,0,1,1,.5.5.5.5,0,0,1-.5-.5m4.891.5a.5.5,0,1,1,.5-.5.5.5,0,0,1-.5.5" transform="translate(-109.991 -12.258)" fill="#fff"/></svg>