<svg xmlns="http://www.w3.org/2000/svg" width="229.89" height="49.928" viewBox="0 0 229.89 49.928">
  <g id="logo_horizontal_rgb_azul-01" data-name="logo horizontal rgb azul-01" transform="translate(-59.695 -76.102)">
    <g id="Grupo_3476" data-name="Grupo 3476" transform="translate(59.695 76.102)">
      <g id="Grupo_3472" data-name="Grupo 3472" transform="translate(52.161 43.202)">
        <g id="Grupo_3471" data-name="Grupo 3471">
          <path id="Trazado_2962" data-name="Trazado 2962" d="M196.034,190.195a1.3,1.3,0,0,1,.064.242.15.15,0,0,1-.036.135.3.3,0,0,1-.167.056c-.079.008-.191.012-.33.012s-.258,0-.342-.008a.937.937,0,0,1-.187-.024.2.2,0,0,1-.091-.052.327.327,0,0,1-.044-.091l-.373-1.112H192.45l-.35,1.081a.464.464,0,0,1-.044.1.179.179,0,0,1-.091.064.573.573,0,0,1-.175.032c-.075,0-.175.008-.3.008s-.234,0-.31-.012a.217.217,0,0,1-.155-.064.171.171,0,0,1-.032-.139,1.555,1.555,0,0,1,.064-.238l1.708-4.91a.418.418,0,0,1,.06-.119.209.209,0,0,1,.107-.068.835.835,0,0,1,.207-.028c.087,0,.207-.008.35-.008.167,0,.3,0,.4.008a1.4,1.4,0,0,1,.234.028.218.218,0,0,1,.119.072.54.54,0,0,1,.064.127Zm-2.543-4.06h0l-.783,2.352h1.569Z" transform="translate(-190.994 -184.971)" fill="#fff"/>
          <path id="Trazado_2963" data-name="Trazado 2963" d="M210.734,186.8a2.159,2.159,0,0,1-.147.826,1.572,1.572,0,0,1-.425.6,1.86,1.86,0,0,1-.683.373,3.113,3.113,0,0,1-.953.127h-.461V190.5a.1.1,0,0,1-.028.075.2.2,0,0,1-.091.056,1.048,1.048,0,0,1-.171.036,2.563,2.563,0,0,1-.274.012,2.533,2.533,0,0,1-.27-.012.788.788,0,0,1-.175-.036.2.2,0,0,1-.091-.056.131.131,0,0,1-.024-.075v-4.978a.408.408,0,0,1,.1-.3.382.382,0,0,1,.274-.1h1.3c.131,0,.254,0,.373.016s.262.032.425.064a1.892,1.892,0,0,1,.5.183,1.451,1.451,0,0,1,.433.334,1.413,1.413,0,0,1,.274.477A1.626,1.626,0,0,1,210.734,186.8Zm-1.176.079a1.013,1.013,0,0,0-.1-.481.689.689,0,0,0-.25-.278.86.86,0,0,0-.314-.115,2.387,2.387,0,0,0-.342-.024h-.481v1.879h.5a1.26,1.26,0,0,0,.453-.072.764.764,0,0,0,.3-.2.893.893,0,0,0,.175-.314A1.221,1.221,0,0,0,209.558,186.88Z" transform="translate(-200.605 -185.013)" fill="#fff"/>
          <path id="Trazado_2964" data-name="Trazado 2964" d="M222.294,190.195a1.3,1.3,0,0,1,.064.242.15.15,0,0,1-.036.135.3.3,0,0,1-.167.056c-.079.008-.191.012-.33.012s-.258,0-.342-.008a.937.937,0,0,1-.187-.024.2.2,0,0,1-.091-.052.327.327,0,0,1-.044-.091l-.373-1.112H218.71l-.35,1.081a.464.464,0,0,1-.044.1.179.179,0,0,1-.091.064.573.573,0,0,1-.175.032c-.075,0-.175.008-.3.008s-.234,0-.31-.012a.217.217,0,0,1-.155-.064.171.171,0,0,1-.032-.139,1.555,1.555,0,0,1,.064-.238l1.708-4.91a.418.418,0,0,1,.06-.119.209.209,0,0,1,.107-.068.835.835,0,0,1,.207-.028c.087,0,.207-.008.35-.008.167,0,.3,0,.4.008a1.4,1.4,0,0,1,.234.028.218.218,0,0,1,.119.072.54.54,0,0,1,.064.127Zm-2.539-4.06h0l-.783,2.352h1.569Z" transform="translate(-206.822 -184.971)" fill="#fff"/>
          <path id="Trazado_2965" data-name="Trazado 2965" d="M235.985,188.831a1.729,1.729,0,0,1-.163.767,1.566,1.566,0,0,1-.441.548,1.868,1.868,0,0,1-.652.33,2.706,2.706,0,0,1-.795.111,2.792,2.792,0,0,1-.532-.048,2.614,2.614,0,0,1-.433-.115,1.831,1.831,0,0,1-.314-.139,1.07,1.07,0,0,1-.183-.127.333.333,0,0,1-.079-.159,1.461,1.461,0,0,1-.024-.3c0-.087,0-.163.008-.222a.646.646,0,0,1,.028-.147.154.154,0,0,1,.052-.079.122.122,0,0,1,.075-.024.343.343,0,0,1,.167.072,2.431,2.431,0,0,0,.282.155,2.777,2.777,0,0,0,.409.155,1.911,1.911,0,0,0,.548.072,1.342,1.342,0,0,0,.369-.048.81.81,0,0,0,.274-.139.6.6,0,0,0,.175-.222.707.707,0,0,0,.06-.294.512.512,0,0,0-.1-.322.969.969,0,0,0-.266-.238,2.971,2.971,0,0,0-.373-.2c-.139-.06-.282-.127-.433-.195a3.807,3.807,0,0,1-.433-.234,1.668,1.668,0,0,1-.373-.314,1.423,1.423,0,0,1-.266-.429,1.752,1.752,0,0,1,.044-1.3,1.416,1.416,0,0,1,.4-.5,1.766,1.766,0,0,1,.592-.3,2.516,2.516,0,0,1,.719-.1,2.627,2.627,0,0,1,.393.032,3.176,3.176,0,0,1,.369.079,1.653,1.653,0,0,1,.3.115.761.761,0,0,1,.175.107.249.249,0,0,1,.056.072.307.307,0,0,1,.028.079.853.853,0,0,1,.016.123c0,.052,0,.111,0,.187a1.663,1.663,0,0,1-.008.211,1.131,1.131,0,0,1-.02.143.168.168,0,0,1-.044.083.1.1,0,0,1-.075.024.375.375,0,0,1-.151-.06q-.1-.06-.25-.131a2.038,2.038,0,0,0-.346-.127,1.486,1.486,0,0,0-.433-.056,1.106,1.106,0,0,0-.322.044.672.672,0,0,0-.23.123.432.432,0,0,0-.135.191.664.664,0,0,0-.044.234.506.506,0,0,0,.1.318.883.883,0,0,0,.27.238,2.835,2.835,0,0,0,.381.2c.143.06.29.127.437.195a4.233,4.233,0,0,1,.437.234,1.711,1.711,0,0,1,.381.314,1.385,1.385,0,0,1,.27.429A1.455,1.455,0,0,1,235.985,188.831Z" transform="translate(-215.933 -184.85)" fill="#fff"/>
          <path id="Trazado_2966" data-name="Trazado 2966" d="M246.088,190.457a.1.1,0,0,1-.028.075.2.2,0,0,1-.091.056,1.048,1.048,0,0,1-.171.036,2.567,2.567,0,0,1-.274.012,2.538,2.538,0,0,1-.27-.012.788.788,0,0,1-.175-.036.2.2,0,0,1-.091-.056.111.111,0,0,1-.028-.075v-5.228a.1.1,0,0,1,.028-.075.216.216,0,0,1,.1-.056,1.11,1.11,0,0,1,.175-.036,2.538,2.538,0,0,1,.27-.012,2.568,2.568,0,0,1,.274.012.747.747,0,0,1,.171.036.2.2,0,0,1,.091.056.111.111,0,0,1,.028.075v5.228Z" transform="translate(-223.521 -184.971)" fill="#fff"/>
          <path id="Trazado_2967" data-name="Trazado 2967" d="M256.756,187.659a4.048,4.048,0,0,1-.171,1.232,2.47,2.47,0,0,1-.508.922,2.171,2.171,0,0,1-.834.576,3.124,3.124,0,0,1-1.152.2,3.353,3.353,0,0,1-1.128-.171,1.987,1.987,0,0,1-.8-.516,2.194,2.194,0,0,1-.481-.882,4.432,4.432,0,0,1-.159-1.267,3.924,3.924,0,0,1,.171-1.208,2.466,2.466,0,0,1,.508-.914,2.2,2.2,0,0,1,.838-.576,3.064,3.064,0,0,1,1.156-.2,3.37,3.37,0,0,1,1.108.167,1.939,1.939,0,0,1,.8.512,2.278,2.278,0,0,1,.489.874A4.414,4.414,0,0,1,256.756,187.659Zm-1.184.06a4.423,4.423,0,0,0-.068-.795,1.725,1.725,0,0,0-.234-.612,1.1,1.1,0,0,0-.437-.393,1.516,1.516,0,0,0-.683-.139,1.391,1.391,0,0,0-.691.155,1.258,1.258,0,0,0-.449.417,1.718,1.718,0,0,0-.242.612,3.644,3.644,0,0,0-.072.739,4.589,4.589,0,0,0,.068.814,1.846,1.846,0,0,0,.23.62,1.072,1.072,0,0,0,.437.393,1.536,1.536,0,0,0,.687.135,1.428,1.428,0,0,0,.7-.155,1.258,1.258,0,0,0,.449-.417,1.729,1.729,0,0,0,.242-.62A4.168,4.168,0,0,0,255.572,187.718Z" transform="translate(-227.475 -184.85)" fill="#fff"/>
          <path id="Trazado_2968" data-name="Trazado 2968" d="M272.941,190.237a.4.4,0,0,1-.036.175.337.337,0,0,1-.091.127.349.349,0,0,1-.135.076.551.551,0,0,1-.159.024h-.481a.975.975,0,0,1-.258-.032.556.556,0,0,1-.2-.107.914.914,0,0,1-.179-.215c-.056-.091-.123-.207-.195-.35l-1.379-2.586c-.079-.155-.163-.322-.242-.5s-.159-.35-.222-.52h-.008c.012.207.02.409.028.612s.008.413.008.632v2.9a.122.122,0,0,1-.024.075.174.174,0,0,1-.083.06.639.639,0,0,1-.155.036,2.148,2.148,0,0,1-.25.012,2.073,2.073,0,0,1-.246-.012.639.639,0,0,1-.155-.036.149.149,0,0,1-.075-.06.127.127,0,0,1-.02-.075V185.5a.372.372,0,0,1,.119-.3.429.429,0,0,1,.29-.1h.6a1.1,1.1,0,0,1,.274.028.568.568,0,0,1,.2.091.649.649,0,0,1,.163.179,2.169,2.169,0,0,1,.159.282l1.077,2.022c.064.123.123.242.187.362s.119.238.179.354.111.234.167.35.107.226.159.342h0c-.008-.2-.016-.409-.02-.624s-.008-.425-.008-.62v-2.6a.122.122,0,0,1,.024-.075.174.174,0,0,1,.083-.06.632.632,0,0,1,.159-.036,2.223,2.223,0,0,1,.254-.012,2.048,2.048,0,0,1,.242.012.525.525,0,0,1,.151.036.169.169,0,0,1,.075.06.127.127,0,0,1,.02.075Z" transform="translate(-237.637 -184.989)" fill="#fff"/>
          <path id="Trazado_2969" data-name="Trazado 2969" d="M287.994,190.195a1.3,1.3,0,0,1,.064.242.151.151,0,0,1-.036.135.3.3,0,0,1-.167.056c-.079.008-.191.012-.33.012s-.258,0-.342-.008a.937.937,0,0,1-.187-.024.2.2,0,0,1-.091-.052.326.326,0,0,1-.044-.091l-.373-1.112H284.41l-.35,1.081a.465.465,0,0,1-.044.1.179.179,0,0,1-.091.064.573.573,0,0,1-.175.032c-.076,0-.175.008-.3.008s-.234,0-.31-.012a.217.217,0,0,1-.155-.064.171.171,0,0,1-.032-.139,1.559,1.559,0,0,1,.064-.238l1.708-4.91a.418.418,0,0,1,.06-.119.209.209,0,0,1,.107-.068.835.835,0,0,1,.207-.028c.087,0,.207-.008.35-.008.167,0,.3,0,.4.008a1.4,1.4,0,0,1,.234.028.218.218,0,0,1,.119.072.54.54,0,0,1,.064.127Zm-2.543-4.06h0l-.783,2.352h1.569Z" transform="translate(-246.421 -184.971)" fill="#fff"/>
          <path id="Trazado_2970" data-name="Trazado 2970" d="M303.5,187.8a3.825,3.825,0,0,1-.2,1.3,2.153,2.153,0,0,1-.572.882,2.237,2.237,0,0,1-.906.5,4.413,4.413,0,0,1-1.267.159h-1.323a.349.349,0,0,1-.238-.083.344.344,0,0,1-.1-.27v-4.827a.338.338,0,0,1,.1-.27.349.349,0,0,1,.238-.083h1.418a3.987,3.987,0,0,1,1.255.175,2.288,2.288,0,0,1,.87.512,2.222,2.222,0,0,1,.536.842A3.261,3.261,0,0,1,303.5,187.8Zm-1.164.04a2.854,2.854,0,0,0-.091-.731,1.546,1.546,0,0,0-.294-.588,1.343,1.343,0,0,0-.52-.385A2.148,2.148,0,0,0,300.6,186h-.568v3.762h.588a2.214,2.214,0,0,0,.779-.119,1.3,1.3,0,0,0,.528-.362,1.576,1.576,0,0,0,.318-.6A3.309,3.309,0,0,0,302.336,187.839Z" transform="translate(-256.032 -185.007)" fill="#fff"/>
          <path id="Trazado_2971" data-name="Trazado 2971" d="M318.7,187.659a4.048,4.048,0,0,1-.171,1.232,2.47,2.47,0,0,1-.509.922,2.17,2.17,0,0,1-.834.576,3.124,3.124,0,0,1-1.152.2,3.353,3.353,0,0,1-1.128-.171,1.987,1.987,0,0,1-.8-.516,2.194,2.194,0,0,1-.481-.882,4.433,4.433,0,0,1-.159-1.267,3.925,3.925,0,0,1,.171-1.208,2.466,2.466,0,0,1,.509-.914,2.2,2.2,0,0,1,.838-.576,3.064,3.064,0,0,1,1.156-.2,3.37,3.37,0,0,1,1.108.167,1.94,1.94,0,0,1,.8.512,2.278,2.278,0,0,1,.489.874A4.416,4.416,0,0,1,318.7,187.659Zm-1.18.06a4.423,4.423,0,0,0-.068-.795,1.725,1.725,0,0,0-.234-.612,1.1,1.1,0,0,0-.437-.393,1.516,1.516,0,0,0-.683-.139,1.391,1.391,0,0,0-.691.155,1.257,1.257,0,0,0-.449.417,1.718,1.718,0,0,0-.242.612,3.644,3.644,0,0,0-.071.739,4.586,4.586,0,0,0,.068.814,1.846,1.846,0,0,0,.23.62,1.072,1.072,0,0,0,.437.393,1.536,1.536,0,0,0,.687.135,1.428,1.428,0,0,0,.7-.155,1.258,1.258,0,0,0,.449-.417,1.728,1.728,0,0,0,.242-.62A4.17,4.17,0,0,0,317.516,187.718Z" transform="translate(-264.808 -184.85)" fill="#fff"/>
          <path id="Trazado_2972" data-name="Trazado 2972" d="M333.1,188.831a1.729,1.729,0,0,1-.163.767,1.566,1.566,0,0,1-.441.548,1.868,1.868,0,0,1-.651.33,2.706,2.706,0,0,1-.795.111,2.793,2.793,0,0,1-.532-.048,2.614,2.614,0,0,1-.433-.115,1.832,1.832,0,0,1-.314-.139,1.069,1.069,0,0,1-.183-.127A.333.333,0,0,1,329.5,190a1.462,1.462,0,0,1-.024-.3c0-.087,0-.163.008-.222a.644.644,0,0,1,.028-.147.154.154,0,0,1,.052-.079.122.122,0,0,1,.076-.024.343.343,0,0,1,.167.072,2.428,2.428,0,0,0,.282.155,2.775,2.775,0,0,0,.409.155,1.911,1.911,0,0,0,.548.072,1.342,1.342,0,0,0,.369-.048.809.809,0,0,0,.274-.139.6.6,0,0,0,.175-.222.707.707,0,0,0,.06-.294.511.511,0,0,0-.1-.322.968.968,0,0,0-.266-.238,2.968,2.968,0,0,0-.373-.2c-.139-.06-.282-.127-.433-.195a3.809,3.809,0,0,1-.433-.234,1.669,1.669,0,0,1-.373-.314,1.424,1.424,0,0,1-.266-.429,1.752,1.752,0,0,1,.044-1.3,1.416,1.416,0,0,1,.4-.5,1.766,1.766,0,0,1,.592-.3,2.516,2.516,0,0,1,.719-.1,2.627,2.627,0,0,1,.393.032,3.174,3.174,0,0,1,.369.079,1.653,1.653,0,0,1,.3.115.762.762,0,0,1,.175.107.249.249,0,0,1,.056.072.307.307,0,0,1,.028.079.856.856,0,0,1,.016.123c0,.052,0,.111,0,.187a1.66,1.66,0,0,1-.008.211,1.131,1.131,0,0,1-.02.143.167.167,0,0,1-.044.083.1.1,0,0,1-.076.024.375.375,0,0,1-.151-.06q-.1-.06-.25-.131a2.039,2.039,0,0,0-.346-.127,1.486,1.486,0,0,0-.433-.056,1.106,1.106,0,0,0-.322.044.672.672,0,0,0-.23.123.432.432,0,0,0-.135.191.663.663,0,0,0-.044.234.506.506,0,0,0,.1.318.884.884,0,0,0,.27.238,2.836,2.836,0,0,0,.381.2c.143.06.29.127.437.195a4.232,4.232,0,0,1,.437.234,1.711,1.711,0,0,1,.381.314,1.385,1.385,0,0,1,.27.429A1.454,1.454,0,0,1,333.1,188.831Z" transform="translate(-274.464 -184.85)" fill="#fff"/>
          <path id="Trazado_2973" data-name="Trazado 2973" d="M352.134,186.8a2.159,2.159,0,0,1-.147.826,1.572,1.572,0,0,1-.425.6,1.861,1.861,0,0,1-.683.373,3.113,3.113,0,0,1-.953.127h-.461V190.5a.1.1,0,0,1-.028.075.2.2,0,0,1-.091.056,1.048,1.048,0,0,1-.171.036,2.562,2.562,0,0,1-.274.012,2.534,2.534,0,0,1-.27-.012.789.789,0,0,1-.175-.036.2.2,0,0,1-.091-.056.131.131,0,0,1-.024-.075v-4.978a.408.408,0,0,1,.1-.3.382.382,0,0,1,.274-.1h1.3c.131,0,.254,0,.373.016s.262.032.425.064a1.891,1.891,0,0,1,.5.183,1.451,1.451,0,0,1,.433.334,1.414,1.414,0,0,1,.274.477A1.626,1.626,0,0,1,352.134,186.8Zm-1.176.079a1.013,1.013,0,0,0-.1-.481.689.689,0,0,0-.25-.278.86.86,0,0,0-.314-.115,2.387,2.387,0,0,0-.342-.024h-.481v1.879h.5a1.26,1.26,0,0,0,.453-.072.764.764,0,0,0,.3-.2.893.893,0,0,0,.175-.314A1.221,1.221,0,0,0,350.958,186.88Z" transform="translate(-285.831 -185.013)" fill="#fff"/>
          <path id="Trazado_2974" data-name="Trazado 2974" d="M365.976,187.659a4.048,4.048,0,0,1-.171,1.232,2.47,2.47,0,0,1-.509.922,2.171,2.171,0,0,1-.834.576,3.124,3.124,0,0,1-1.152.2,3.353,3.353,0,0,1-1.128-.171,1.988,1.988,0,0,1-.8-.516,2.194,2.194,0,0,1-.481-.882,4.432,4.432,0,0,1-.159-1.267,3.925,3.925,0,0,1,.171-1.208,2.466,2.466,0,0,1,.508-.914,2.2,2.2,0,0,1,.838-.576,3.064,3.064,0,0,1,1.156-.2,3.369,3.369,0,0,1,1.108.167,1.939,1.939,0,0,1,.8.512,2.277,2.277,0,0,1,.489.874A4.277,4.277,0,0,1,365.976,187.659Zm-1.18.06a4.423,4.423,0,0,0-.068-.795,1.725,1.725,0,0,0-.234-.612,1.1,1.1,0,0,0-.437-.393,1.516,1.516,0,0,0-.683-.139,1.391,1.391,0,0,0-.691.155,1.258,1.258,0,0,0-.449.417,1.717,1.717,0,0,0-.242.612,3.644,3.644,0,0,0-.072.739,4.589,4.589,0,0,0,.068.814,1.846,1.846,0,0,0,.23.62,1.072,1.072,0,0,0,.437.393,1.536,1.536,0,0,0,.687.135,1.428,1.428,0,0,0,.7-.155,1.257,1.257,0,0,0,.449-.417,1.729,1.729,0,0,0,.242-.62A4.168,4.168,0,0,0,364.8,187.718Z" transform="translate(-293.305 -184.85)" fill="#fff"/>
          <path id="Trazado_2975" data-name="Trazado 2975" d="M381.708,190.507a.157.157,0,0,1-.016.079.137.137,0,0,1-.083.052.852.852,0,0,1-.187.032c-.079.008-.195.008-.338.008-.119,0-.215,0-.286-.008a.6.6,0,0,1-.171-.032.188.188,0,0,1-.087-.06.357.357,0,0,1-.044-.087l-.5-1.236c-.06-.139-.119-.262-.175-.373a1.088,1.088,0,0,0-.191-.27.778.778,0,0,0-.242-.167.8.8,0,0,0-.318-.056h-.35v2.11a.1.1,0,0,1-.028.075.2.2,0,0,1-.091.056,1.048,1.048,0,0,1-.171.036,2.572,2.572,0,0,1-.274.012,2.542,2.542,0,0,1-.27-.012.788.788,0,0,1-.175-.036.2.2,0,0,1-.091-.056.131.131,0,0,1-.024-.075v-5.025a.338.338,0,0,1,.1-.27.349.349,0,0,1,.238-.083h1.434c.147,0,.266,0,.358.008s.179.012.258.02a2.409,2.409,0,0,1,.6.163,1.413,1.413,0,0,1,.453.3,1.282,1.282,0,0,1,.286.441,1.579,1.579,0,0,1,.1.584,1.71,1.71,0,0,1-.072.509,1.323,1.323,0,0,1-.207.409,1.422,1.422,0,0,1-.338.314,1.938,1.938,0,0,1-.457.215,1.218,1.218,0,0,1,.234.147,1.27,1.27,0,0,1,.207.207,2.593,2.593,0,0,1,.183.278c.056.1.111.222.167.354l.465,1.092c.044.107.071.187.087.238A.638.638,0,0,1,381.708,190.507Zm-1.45-3.754a.806.806,0,0,0-.123-.461.674.674,0,0,0-.405-.266,1.923,1.923,0,0,0-.195-.036,2.953,2.953,0,0,0-.3-.012h-.5v1.569h.572a1.321,1.321,0,0,0,.417-.06.827.827,0,0,0,.3-.163.692.692,0,0,0,.179-.25A.83.83,0,0,0,380.258,186.753Z" transform="translate(-303.467 -185.013)" fill="#fff"/>
          <path id="Trazado_2976" data-name="Trazado 2976" d="M400.475,185.581a1.548,1.548,0,0,1-.012.211.551.551,0,0,1-.032.143.212.212,0,0,1-.052.079.111.111,0,0,1-.072.024h-1.386V190.5a.1.1,0,0,1-.028.075.2.2,0,0,1-.091.056,1.019,1.019,0,0,1-.175.036,1.818,1.818,0,0,1-.27.012,2.533,2.533,0,0,1-.27-.012.787.787,0,0,1-.175-.036.2.2,0,0,1-.091-.056.111.111,0,0,1-.028-.075v-4.461h-1.386a.111.111,0,0,1-.072-.024.212.212,0,0,1-.052-.079.55.55,0,0,1-.032-.143,1.627,1.627,0,0,1-.012-.211,1.716,1.716,0,0,1,.012-.219.55.55,0,0,1,.032-.143.193.193,0,0,1,.052-.075.111.111,0,0,1,.072-.024h3.9a.119.119,0,0,1,.072.024.136.136,0,0,1,.052.075.785.785,0,0,1,.032.143A1.716,1.716,0,0,1,400.475,185.581Z" transform="translate(-314.702 -185.013)" fill="#fff"/>
          <path id="Trazado_2977" data-name="Trazado 2977" d="M414.355,188.556a2.512,2.512,0,0,1-.151.91,1.767,1.767,0,0,1-.441.679,1.932,1.932,0,0,1-.719.425,3.4,3.4,0,0,1-1.923.016,1.8,1.8,0,0,1-.7-.4,1.729,1.729,0,0,1-.437-.659,2.613,2.613,0,0,1-.151-.926v-3.365a.122.122,0,0,1,.024-.076.18.18,0,0,1,.091-.056,1.109,1.109,0,0,1,.175-.036,1.825,1.825,0,0,1,.274-.012,2.543,2.543,0,0,1,.27.012.748.748,0,0,1,.171.036.2.2,0,0,1,.091.056.111.111,0,0,1,.028.076v3.27a1.772,1.772,0,0,0,.083.572,1.083,1.083,0,0,0,.234.4.958.958,0,0,0,.366.238,1.425,1.425,0,0,0,.949,0,.914.914,0,0,0,.354-.238,1.112,1.112,0,0,0,.226-.385,1.61,1.61,0,0,0,.079-.52v-3.333a.122.122,0,0,1,.024-.075.18.18,0,0,1,.091-.056,1.02,1.02,0,0,1,.175-.036,1.821,1.821,0,0,1,.27-.012,2.41,2.41,0,0,1,.266.012.8.8,0,0,1,.171.036.2.2,0,0,1,.091.056.131.131,0,0,1,.024.075v3.317Z" transform="translate(-322.893 -184.977)" fill="#fff"/>
          <path id="Trazado_2978" data-name="Trazado 2978" d="M438.32,190.5a.122.122,0,0,1-.024.075.17.17,0,0,1-.083.056.907.907,0,0,1-.167.036,2.85,2.85,0,0,1-.52,0,.669.669,0,0,1-.163-.036.17.17,0,0,1-.083-.056.131.131,0,0,1-.024-.075v-4.505h-.008l-1.6,4.5a.236.236,0,0,1-.056.091.322.322,0,0,1-.1.06.606.606,0,0,1-.167.028c-.068,0-.151.008-.246.008a2.17,2.17,0,0,1-.246-.012.756.756,0,0,1-.167-.036.355.355,0,0,1-.1-.056.185.185,0,0,1-.052-.083l-1.549-4.5h-.008V190.5a.122.122,0,0,1-.024.075.166.166,0,0,1-.087.056,1.132,1.132,0,0,1-.163.036,2.3,2.3,0,0,1-.258.012,2.353,2.353,0,0,1-.258-.012.669.669,0,0,1-.163-.036.185.185,0,0,1-.087-.056.131.131,0,0,1-.024-.075v-4.93a.453.453,0,0,1,.115-.334.42.42,0,0,1,.31-.115h.735a1.653,1.653,0,0,1,.338.032.588.588,0,0,1,.242.107.582.582,0,0,1,.171.195,1.708,1.708,0,0,1,.119.3l1.2,3.3h.016l1.239-3.289a1.58,1.58,0,0,1,.123-.3.739.739,0,0,1,.155-.2.49.49,0,0,1,.207-.107,1.14,1.14,0,0,1,.278-.032h.759a.6.6,0,0,1,.2.032.319.319,0,0,1,.135.087.36.36,0,0,1,.079.143.567.567,0,0,1,.028.191V190.5Z" transform="translate(-336.183 -185.013)" fill="#fff"/>
          <path id="Trazado_2979" data-name="Trazado 2979" d="M456.194,190.195a1.3,1.3,0,0,1,.064.242.15.15,0,0,1-.036.135.3.3,0,0,1-.167.056c-.079.008-.191.012-.33.012s-.258,0-.342-.008a.937.937,0,0,1-.187-.024.2.2,0,0,1-.091-.052.328.328,0,0,1-.044-.091l-.373-1.112H452.61l-.35,1.081a.466.466,0,0,1-.044.1.179.179,0,0,1-.091.064.573.573,0,0,1-.175.032c-.076,0-.175.008-.3.008s-.234,0-.31-.012a.217.217,0,0,1-.155-.064.171.171,0,0,1-.032-.139,1.559,1.559,0,0,1,.064-.238l1.708-4.91a.417.417,0,0,1,.06-.119.209.209,0,0,1,.107-.068.835.835,0,0,1,.207-.028c.087,0,.207-.008.35-.008.167,0,.3,0,.4.008a1.4,1.4,0,0,1,.234.028.218.218,0,0,1,.119.072.542.542,0,0,1,.064.127Zm-2.543-4.06h0l-.783,2.352h1.569Z" transform="translate(-347.8 -184.971)" fill="#fff"/>
          <path id="Trazado_2980" data-name="Trazado 2980" d="M469.885,188.831a1.729,1.729,0,0,1-.163.767,1.566,1.566,0,0,1-.441.548,1.868,1.868,0,0,1-.652.33,2.705,2.705,0,0,1-.795.111,2.792,2.792,0,0,1-.532-.048,2.615,2.615,0,0,1-.433-.115,1.831,1.831,0,0,1-.314-.139,1.069,1.069,0,0,1-.183-.127.333.333,0,0,1-.079-.159,1.462,1.462,0,0,1-.024-.3c0-.087,0-.163.008-.222a.648.648,0,0,1,.028-.147.154.154,0,0,1,.052-.079.122.122,0,0,1,.075-.024.344.344,0,0,1,.167.072,2.432,2.432,0,0,0,.282.155,2.777,2.777,0,0,0,.409.155,1.911,1.911,0,0,0,.548.072,1.343,1.343,0,0,0,.369-.048.81.81,0,0,0,.274-.139.6.6,0,0,0,.175-.222.707.707,0,0,0,.06-.294.512.512,0,0,0-.1-.322.97.97,0,0,0-.266-.238,2.971,2.971,0,0,0-.373-.2c-.139-.06-.282-.127-.433-.195a3.807,3.807,0,0,1-.433-.234,1.668,1.668,0,0,1-.373-.314,1.422,1.422,0,0,1-.266-.429,1.751,1.751,0,0,1,.044-1.3,1.416,1.416,0,0,1,.4-.5,1.766,1.766,0,0,1,.592-.3,2.516,2.516,0,0,1,.719-.1,2.626,2.626,0,0,1,.393.032,3.176,3.176,0,0,1,.369.079,1.653,1.653,0,0,1,.3.115.762.762,0,0,1,.175.107.249.249,0,0,1,.056.072.306.306,0,0,1,.028.079.859.859,0,0,1,.016.123c0,.052,0,.111,0,.187a1.666,1.666,0,0,1-.008.211,1.13,1.13,0,0,1-.02.143.167.167,0,0,1-.044.083.1.1,0,0,1-.075.024.375.375,0,0,1-.151-.06q-.1-.06-.25-.131a2.04,2.04,0,0,0-.346-.127,1.486,1.486,0,0,0-.433-.056,1.106,1.106,0,0,0-.322.044.672.672,0,0,0-.23.123.432.432,0,0,0-.135.191.664.664,0,0,0-.044.234.506.506,0,0,0,.1.318.883.883,0,0,0,.27.238,2.836,2.836,0,0,0,.381.2c.143.06.29.127.437.195a4.238,4.238,0,0,1,.437.234,1.71,1.71,0,0,1,.381.314,1.385,1.385,0,0,1,.27.429A1.528,1.528,0,0,1,469.885,188.831Z" transform="translate(-356.911 -184.85)" fill="#fff"/>
          <path id="Trazado_2981" data-name="Trazado 2981" d="M482.276,189.683a1.262,1.262,0,0,1-.008.183.956.956,0,0,1-.02.127.274.274,0,0,1-.036.091.522.522,0,0,1-.068.087.9.9,0,0,1-.183.127,2.185,2.185,0,0,1-.33.147,3.042,3.042,0,0,1-2.01-.008,1.988,1.988,0,0,1-.779-.524,2.383,2.383,0,0,1-.493-.87,4.347,4.347,0,0,1,.016-2.467,2.7,2.7,0,0,1,.524-.922,2.228,2.228,0,0,1,.81-.564,2.758,2.758,0,0,1,1.041-.191,2.317,2.317,0,0,1,.445.04,2.762,2.762,0,0,1,.4.1,1.753,1.753,0,0,1,.326.143.95.95,0,0,1,.2.139.614.614,0,0,1,.079.1.4.4,0,0,1,.036.1,1.169,1.169,0,0,1,.02.139c0,.056.008.123.008.2s0,.159-.008.218a.476.476,0,0,1-.032.147.274.274,0,0,1-.052.083.108.108,0,0,1-.068.024.289.289,0,0,1-.163-.076c-.068-.052-.151-.1-.254-.167a2.219,2.219,0,0,0-.373-.167,1.539,1.539,0,0,0-.516-.075,1.234,1.234,0,0,0-.588.135,1.312,1.312,0,0,0-.441.385,1.722,1.722,0,0,0-.274.6,3.1,3.1,0,0,0-.1.8,3.131,3.131,0,0,0,.1.846,1.659,1.659,0,0,0,.286.588,1.15,1.15,0,0,0,.449.346,1.484,1.484,0,0,0,.592.115,1.654,1.654,0,0,0,.516-.072,2.407,2.407,0,0,0,.373-.155,2.582,2.582,0,0,0,.258-.155.3.3,0,0,1,.155-.068.114.114,0,0,1,.068.016.152.152,0,0,1,.044.068.557.557,0,0,1,.024.143C482.26,189.5,482.276,189.58,482.276,189.683Z" transform="translate(-364.09 -184.88)" fill="#fff"/>
          <path id="Trazado_2982" data-name="Trazado 2982" d="M496.266,187.659a4.048,4.048,0,0,1-.171,1.232,2.47,2.47,0,0,1-.509.922,2.17,2.17,0,0,1-.834.576,3.124,3.124,0,0,1-1.152.2,3.353,3.353,0,0,1-1.128-.171,1.988,1.988,0,0,1-.8-.516,2.194,2.194,0,0,1-.481-.882,4.431,4.431,0,0,1-.159-1.267,3.925,3.925,0,0,1,.171-1.208,2.466,2.466,0,0,1,.508-.914,2.2,2.2,0,0,1,.838-.576,3.064,3.064,0,0,1,1.156-.2,3.37,3.37,0,0,1,1.108.167,1.939,1.939,0,0,1,.8.512,2.277,2.277,0,0,1,.489.874A4.414,4.414,0,0,1,496.266,187.659Zm-1.184.06a4.423,4.423,0,0,0-.068-.795,1.725,1.725,0,0,0-.234-.612,1.1,1.1,0,0,0-.437-.393,1.516,1.516,0,0,0-.683-.139,1.391,1.391,0,0,0-.691.155,1.258,1.258,0,0,0-.449.417,1.717,1.717,0,0,0-.242.612,3.644,3.644,0,0,0-.072.739,4.589,4.589,0,0,0,.068.814,1.847,1.847,0,0,0,.23.62,1.072,1.072,0,0,0,.437.393,1.536,1.536,0,0,0,.687.135,1.428,1.428,0,0,0,.7-.155,1.258,1.258,0,0,0,.449-.417,1.729,1.729,0,0,0,.242-.62A4.168,4.168,0,0,0,495.082,187.718Z" transform="translate(-371.835 -184.85)" fill="#fff"/>
          <path id="Trazado_2983" data-name="Trazado 2983" d="M510.265,185.581a1.538,1.538,0,0,1-.012.211.548.548,0,0,1-.032.143.211.211,0,0,1-.052.079.111.111,0,0,1-.071.024h-1.386V190.5a.1.1,0,0,1-.028.075.2.2,0,0,1-.091.056,1.019,1.019,0,0,1-.175.036,1.818,1.818,0,0,1-.27.012,2.533,2.533,0,0,1-.27-.012.788.788,0,0,1-.175-.036.2.2,0,0,1-.091-.056.111.111,0,0,1-.028-.075v-4.461H506.2a.111.111,0,0,1-.072-.024.212.212,0,0,1-.052-.079.551.551,0,0,1-.032-.143,1.633,1.633,0,0,1-.012-.211,1.721,1.721,0,0,1,.012-.219.551.551,0,0,1,.032-.143.193.193,0,0,1,.052-.075.111.111,0,0,1,.072-.024h3.9a.119.119,0,0,1,.071.024.136.136,0,0,1,.052.075.78.78,0,0,1,.032.143A1.71,1.71,0,0,1,510.265,185.581Z" transform="translate(-380.876 -185.013)" fill="#fff"/>
          <path id="Trazado_2984" data-name="Trazado 2984" d="M521.714,190.195a1.3,1.3,0,0,1,.064.242.15.15,0,0,1-.036.135.3.3,0,0,1-.167.056c-.079.008-.191.012-.33.012s-.258,0-.342-.008a.937.937,0,0,1-.187-.024.2.2,0,0,1-.091-.052.325.325,0,0,1-.044-.091l-.373-1.112H518.13l-.35,1.081a.468.468,0,0,1-.044.1.179.179,0,0,1-.091.064.573.573,0,0,1-.175.032c-.076,0-.175.008-.3.008s-.234,0-.31-.012a.217.217,0,0,1-.155-.064.171.171,0,0,1-.032-.139,1.569,1.569,0,0,1,.064-.238l1.708-4.91a.418.418,0,0,1,.06-.119.209.209,0,0,1,.107-.068.836.836,0,0,1,.207-.028c.087,0,.207-.008.35-.008.167,0,.3,0,.4.008a1.4,1.4,0,0,1,.234.028.218.218,0,0,1,.119.072.54.54,0,0,1,.064.127Zm-2.543-4.06h0l-.783,2.352h1.569Z" transform="translate(-387.291 -184.971)" fill="#fff"/>
        </g>
      </g>
      <g id="Grupo_3474" data-name="Grupo 3474" transform="translate(40.035 2.252)">
        <path id="Trazado_2985" data-name="Trazado 2985" d="M186.73,94.88q.489-2.175.926-4.366c.266-1.033.453-1.851.588-2.467s.211-1.021.234-1.2c.072-.5.143-.922.222-1.275s.143-.612.2-.783a10.146,10.146,0,0,0,.3-.981c-.008-.31-.016-.6-.02-.886.083-.179.187-.421.31-.751a.4.4,0,0,0-.04-.3c-.048-.064-.147-.1-.306-.1h-.183a6.485,6.485,0,0,0-1.331,1.013,6.848,6.848,0,0,0-1.1,1.466c-.151.278-.338.687-.568,1.22s-.481,1.212-.759,2.026q-.5,1.4-1.041,2.868c-.048.362-.083.9-.107,1.6a14.591,14.591,0,0,1-.1,1.6,5.088,5.088,0,0,1-.139.683c-.068.258-.159.568-.262.926s-.195.679-.282.957a4.479,4.479,0,0,0-.175.655c-.282,1.541-.528,2.765-.731,3.667s-.354,1.5-.445,1.78c-.155.429-.338.957-.556,1.565s-.453,1.319-.715,2.129c-.195.528-.393,1.005-.592,1.422a6.221,6.221,0,0,0-.31.822,4.39,4.39,0,0,0-.139.608,2.884,2.884,0,0,1-.218.854.42.42,0,0,1-.381.27c-.183,0-.417-.326-.707-.981a26.124,26.124,0,0,1-1.021-2.991c-.389-1.275-.751-2.614-1.073-4.012s-.624-2.837-.882-4.33c-.334-1.355-.663-2.658-1-3.9q-.352-1.382-.5-2.3a4.948,4.948,0,0,1-.087-1.39,2.265,2.265,0,0,1,.3-.806,11.394,11.394,0,0,1,.683-.973c.056-.167.151-.417.29-.727s.314-.7.548-1.164c.215-.437.385-.783.493-1.045a2.162,2.162,0,0,0,.187-.5.772.772,0,0,0-.012-.326.5.5,0,0,0-.195-.207,6.124,6.124,0,0,1-.612-.3,1.924,1.924,0,0,0-.656.33,5.824,5.824,0,0,0-.663.6c-.274.31-.509.568-.691.751a3.787,3.787,0,0,1-.469.4,1.677,1.677,0,0,1-.433-.373c-.211-.215-.377-.326-.516-.326a3.472,3.472,0,0,0-.636.1,4,4,0,0,1-.659.087,2.177,2.177,0,0,0-.914.175,1.163,1.163,0,0,0-.544.5c-.127.31-.258.632-.393.949s-.27.64-.405.949l.171,1.514c-.707,2.447-1.426,4.871-2.149,7.286-.7,2.467-1.267,4.378-1.684,5.756s-.691,2.225-.814,2.535c-.163.409-.3.759-.413,1.073s-.195.548-.254.755c-.195.791-.377,1.494-.54,2.1s-.3,1.1-.409,1.474c-.048.127-.159.417-.318.878s-.385,1.092-.663,1.907c-.258.715-.457,1.307-.592,1.772a7.856,7.856,0,0,0-.258,1.029,2.385,2.385,0,0,0,0,.854c.044.2.155.278.318.246a1.976,1.976,0,0,0,.493-.2.731.731,0,0,0,.218-.2,1.2,1.2,0,0,0,.775-.3,1.561,1.561,0,0,0,.445-.8c.334-.7.612-1.3.842-1.812s.429-.942.58-1.291c.143-.453.274-.918.4-1.379l.52-.771c.191-.469.362-.918.509-1.355s.31-.854.457-1.263c.5-1.212.977-2.352,1.418-3.413s.834-2.042,1.184-2.944a10.567,10.567,0,0,0,.648-1.124c.226-.656.429-1.212.6-1.68a10.841,10.841,0,0,1,.485-1.164l.171-.075c.183.362.338.7.461,1.021a6.276,6.276,0,0,1,.278.989c.433,1.386.822,2.582,1.156,3.6s.62,1.863.834,2.55c.044.278.083.524.115.739s.052.4.064.54a8.874,8.874,0,0,0,.457,1.673c.258.739.62,1.68,1.069,2.813a16.222,16.222,0,0,0,1.279,2.813c.381.616.687.926.926.926a12.551,12.551,0,0,0,1.633-.5,9,9,0,0,0,1.545-.6l.886-1.164c.457-.981.854-1.9,1.172-2.737a17.672,17.672,0,0,0,.739-2.288,34.814,34.814,0,0,0,1.371-3.865c.425-1.446.826-3.039,1.18-4.775.326-1.458.659-2.908.989-4.354" transform="translate(-160.471 -81.77)" fill="#fff"/>
        <path id="Trazado_2986" data-name="Trazado 2986" d="M321.959,83.51a2.7,2.7,0,0,0-1.657.934,20.2,20.2,0,0,0-2.32,2.785c-.679.93-1.283,1.839-1.839,2.725a21.3,21.3,0,0,0-1.4,2.554c-.282.477-.54.906-.759,1.291a8.582,8.582,0,0,1-.624.949c-.659,1.45-1.251,2.793-1.788,4.028s-.977,2.384-1.311,3.42l.072.445a6.847,6.847,0,0,0-.576,1.518,13.7,13.7,0,0,0-.449,1.8,2.806,2.806,0,0,1,0,.493,2.9,2.9,0,0,1-.056.318.3.3,0,0,1-.131.191l-1.716,1.351a6.356,6.356,0,0,0-.655.735,4.43,4.43,0,0,1-.5.572l.016.052a2.909,2.909,0,0,1-.377.282c-.123.075-.222.131-.29.167-.131.127-.246.246-.369.373s-.238.254-.366.4a3.22,3.22,0,0,1-.457.3.826.826,0,0,1-.421.119,1.136,1.136,0,0,1-1.053-.6,1.916,1.916,0,0,1-.222-1.343c.091-.715.2-1.466.342-2.249a2.256,2.256,0,0,0-.143-1.156.723.723,0,0,0-.7-.381,3.584,3.584,0,0,0-1.808.62,12.024,12.024,0,0,0-2.272,1.9c-.147.1-.286.171-.4.238s-.238.119-.35.183c-.155.1-.421.294-.8.6s-.858.7-1.446,1.18a16.092,16.092,0,0,1-1.379,1.053,4.833,4.833,0,0,1-1.152.56l-.139-.207c.544-.644.981-1.156,1.307-1.549s.568-.636.683-.751c.981-.759,1.764-1.41,2.364-1.963a6.828,6.828,0,0,0,1.192-1.331,11.134,11.134,0,0,0,.953-.7c.25-.2.413-.346.5-.413.135-.163.286-.338.473-.544a13.293,13.293,0,0,0,1.406-1.085,13.717,13.717,0,0,0,1.049-1.037c.5-.342.965-.655,1.39-.93a1.811,1.811,0,0,0,.632-.644,2.093,2.093,0,0,0,.29-.858.834.834,0,0,0-.187-.723,1.207,1.207,0,0,0-.866-.254,6.056,6.056,0,0,0-2.833,1,30.92,30.92,0,0,0-4.14,3.015,8.516,8.516,0,0,1-.957.711c-.29.183-.528.318-.711.413-.4.314-.731.584-.993.81s-.473.433-.624.584a4.192,4.192,0,0,0-.663.373,1.964,1.964,0,0,0-.509.516,4.1,4.1,0,0,1-.449.568,3.374,3.374,0,0,1-.322.318l-2.308,1.4c-.195.262-.362.485-.5.667a2.758,2.758,0,0,1-.322.358.036.036,0,0,1,0,.02,4.945,4.945,0,0,1-.636.393,14.509,14.509,0,0,0-1.676,1.351,8.135,8.135,0,0,1-1.009.731,1.624,1.624,0,0,1-.759.27.3.3,0,0,1-.215-.072.209.209,0,0,1-.052-.191,8.335,8.335,0,0,1,1.081-2.622,8.88,8.88,0,0,0,1.085-2.682,8.232,8.232,0,0,0-.064-3.015,3.607,3.607,0,0,0-1.14-1.939,2.592,2.592,0,0,0-.342-.254c-.3-.346-.6-.671-.93-.981a1.76,1.76,0,0,0-1.275-.469,4.472,4.472,0,0,0-2.062.795,5.293,5.293,0,0,0-1.692,1.379l.079,1.116a12.227,12.227,0,0,1-1.895,2.419,26.077,26.077,0,0,1-3.158,2.705c-.294.342-.572.671-.85.985l-.02-.068c-.183.064-.358.115-.54.167a1.785,1.785,0,0,1-.449.072.931.931,0,0,1-.882-.429,2.132,2.132,0,0,1-.127-1.3,3.7,3.7,0,0,0-.008-.723,3.31,3.31,0,0,1,0-.751,10.013,10.013,0,0,0,.1-1.053,2.069,2.069,0,0,0-.048-.556.751.751,0,0,0-.437-.453,2.34,2.34,0,0,0-.945-.155,1.959,1.959,0,0,0-1.3.548,6.014,6.014,0,0,0-1.224,1.665,6.327,6.327,0,0,1-.477.524c-.167.167-.314.318-.437.437-.354.421-.7.854-1.045,1.283-.576.6-1.069,1.108-1.478,1.549s-.779.8-1.1,1.089c-.334.179-.628.33-.882.457s-.457.246-.628.342c-.163.048-.25-.143-.286-.556a10.24,10.24,0,0,1,.135-1.939,10.743,10.743,0,0,1,.338-1.545q.244-.834.608-1.843c.23-.536.465-1.069.711-1.613s.469-1.092.659-1.637a10.2,10.2,0,0,0,.5-.965c.1-.2.175-.381.246-.556a1.6,1.6,0,0,0,.123-.4.866.866,0,0,0-.1-.636.563.563,0,0,0-.5-.222,3.006,3.006,0,0,0-.727.183c-.358.123-.87.334-1.537.636-.437.481-.858.973-1.259,1.486s-.814.989-1.22,1.462c-.481.461-.942.93-1.371,1.394s-.846.942-1.251,1.4q-.733.769-1.311,1.343a8.957,8.957,0,0,1-1.025.894.49.49,0,0,1-.087.238.962.962,0,0,1-.171.163.074.074,0,0,0,.008.028c-1.144.87-2.034,1.529-2.682,1.978a4.694,4.694,0,0,1-1.1.679.336.336,0,0,1-.326-.191.959.959,0,0,1-.044-.56,13.426,13.426,0,0,1,.421-1.633c.242-.806.58-1.867,1.005-3.174q.936-2.455,1.673-4.251t1.287-2.968c.119-.294.218-.556.3-.779s.135-.413.187-.576l1.637-.326c.187-.016.358-.27.512-.783a14.5,14.5,0,0,0,.421-2.161,2.207,2.207,0,0,0,.02-.548.448.448,0,0,0-.155-.314,1.481,1.481,0,0,1-.215-.246,1.155,1.155,0,0,1-.1-.2,7.188,7.188,0,0,1,.536-1.315,4.722,4.722,0,0,0,.508-1.41,1.382,1.382,0,0,0-.163-1.029.944.944,0,0,0-.81-.35c-.7,0-1.466.735-2.276,2.193s-1.494,2.225-2.054,2.292l-.735-.23c-.246.048-.469.083-.663.123s-.4.079-.612.127a3.308,3.308,0,0,0-.663-.119,9.961,9.961,0,0,0-1.061-.048c-.215.048-.437.1-.671.147a9.46,9.46,0,0,0-1-.151,11.736,11.736,0,0,0-1.224-.056,1.228,1.228,0,0,0-1.073.787,6.952,6.952,0,0,0-.628,2.292.43.43,0,0,0,.1.365,1,1,0,0,0,.4.246c.119.056.238.119.365.167s.254.127.405.2c.119,0,.326.008.608.024s.493.024.62.024h2.92a2.079,2.079,0,0,0,.489-.079,1.961,1.961,0,0,1,.465-.079.282.282,0,0,1,.23.072.233.233,0,0,1,.044.207c-.246.429-.461.775-.659,1.053s-.362.5-.512.679a56.82,56.82,0,0,1-3.782,4.914,32.6,32.6,0,0,1-3.726,3.675c-.242.25-.445.469-.616.656s-.314.342-.421.473l-.123.183.02.02a2.671,2.671,0,0,1-.354.258,2.373,2.373,0,0,1-.282.167c-.131.131-.25.25-.373.377s-.242.254-.366.4a3.084,3.084,0,0,1-.453.3.851.851,0,0,1-.425.119,1.136,1.136,0,0,1-1.053-.6,1.938,1.938,0,0,1-.226-1.335c.1-.719.207-1.47.346-2.249a2.2,2.2,0,0,0-.147-1.156.719.719,0,0,0-.7-.385,3.618,3.618,0,0,0-1.812.624,11.6,11.6,0,0,0-2.268,1.9c-.151.1-.29.175-.4.238s-.238.119-.35.183a9.926,9.926,0,0,0-.8.6q-.566.453-1.45,1.18a15.5,15.5,0,0,1-1.379,1.053,4.854,4.854,0,0,1-1.156.56l-.139-.207c.54-.644.977-1.156,1.307-1.545s.564-.64.683-.751c.977-.755,1.76-1.41,2.36-1.963A6.713,6.713,0,0,0,232.2,106a9.992,9.992,0,0,0,.957-.7c.246-.2.413-.346.5-.417.131-.159.286-.334.473-.54a14.3,14.3,0,0,0,1.406-1.085,14.482,14.482,0,0,0,1.049-1.037q.751-.512,1.394-.93a1.916,1.916,0,0,0,.628-.636,2.155,2.155,0,0,0,.294-.862.827.827,0,0,0-.187-.727,1.226,1.226,0,0,0-.866-.254,6.017,6.017,0,0,0-2.829,1.005,30.839,30.839,0,0,0-4.14,3.011,7.668,7.668,0,0,1-.957.707c-.286.187-.532.322-.711.417-.4.31-.731.58-.993.81a8.064,8.064,0,0,0-.62.584,4.428,4.428,0,0,0-.667.373,2.094,2.094,0,0,0-.509.516,3.814,3.814,0,0,1-.449.568,3.917,3.917,0,0,1-.322.318l-2.312,1.394c-.191.266-.358.489-.5.671a2.866,2.866,0,0,1-.322.362c.107.306.191.6.266.878s.151.524.219.739c.04.115.083.211.115.29a.583.583,0,0,1,.02.246,4.084,4.084,0,0,1-.115.493,4.52,4.52,0,0,0-.953,1.112,3.106,3.106,0,0,0-.437,1.2,2.113,2.113,0,0,0,.306,1.688,1.988,1.988,0,0,0,1.585.548,1.532,1.532,0,0,0,.536-.147c.246-.1.544-.238.894-.409.556-.278,1.057-.556,1.506-.822a11.488,11.488,0,0,0,1.192-.787c.183-.159.477-.413.9-.775s.938-.818,1.565-1.375c.445-.33.842-.608,1.176-.842s.616-.429.838-.588c.147-.135.266-.246.373-.334s.207-.167.29-.246a1.111,1.111,0,0,1,.187.453,1.943,1.943,0,0,1,0,.429,3.709,3.709,0,0,0,.6,2.622,2.689,2.689,0,0,0,2.221.862,3.649,3.649,0,0,0,1.347-.27,7.114,7.114,0,0,0,1.466-.806c.425-.31.846-.644,1.243-1s.795-.683,1.2-1.009c.191-.234.354-.433.5-.584s.246-.274.306-.354c.926-.779,1.843-1.553,2.737-2.312q.864-.679,1.506-1.3a10.7,10.7,0,0,0,1.073-1.184l.25-.135c.111.06.163.127.155.211-.238.421-.477.822-.691,1.188-.195.616-.381,1.22-.552,1.827-.111.358-.215.671-.294.93a4.032,4.032,0,0,0-.155.632,1.708,1.708,0,0,1-.179.326,7.631,7.631,0,0,0-.516,1.6c-.155.663-.29,1.442-.413,2.348a2.653,2.653,0,0,0,.25,1.847,1.629,1.629,0,0,0,1.45.608,2.44,2.44,0,0,0,1.041-.27,4.725,4.725,0,0,0,1.22-.878c.318-.294.64-.6.953-.906s.632-.624.953-.93c.314-.278.608-.528.874-.739s.477-.405.659-.572c.425-.262.8-.52,1.1-.751s.556-.441.739-.6l0-.02c.207-.222.377-.417.508-.58a3.316,3.316,0,0,0,.286-.405l1.518-1.371.151-.072c.107,0,.175.119.191.35a5.646,5.646,0,0,1-.012,1.029,3.75,3.75,0,0,0-.087.81c-.012.453,0,1.085.032,1.9a2.789,2.789,0,0,0,.58,1.9,2.066,2.066,0,0,0,1.645.644,3.813,3.813,0,0,0,1.617-.429,6.844,6.844,0,0,0,1.823-1.39c.5-.485,1.005-.973,1.494-1.466s.973-.989,1.466-1.506c.226-.218.449-.433.663-.655s.389-.4.556-.556a3.9,3.9,0,0,1,.306.556,1.718,1.718,0,0,1,.123.568,2.938,2.938,0,0,0,.858,1.792,2.6,2.6,0,0,0,1.831.6,3.885,3.885,0,0,0,1.4-.429c.64-.282,1.45-.7,2.443-1.255a.564.564,0,0,1,.02.087,2.346,2.346,0,0,0,.358-.421c.083-.127.143-.222.183-.286a11.6,11.6,0,0,0,1.367-.957,5.2,5.2,0,0,0,.787-.791,5.438,5.438,0,0,0,.981-.723c.405-.362.874-.826,1.406-1.382a11.863,11.863,0,0,1,1.41-1.283,8.781,8.781,0,0,1,1.228-.8,1.23,1.23,0,0,1,1.053.751,3.508,3.508,0,0,1,.135,1.891,11.985,11.985,0,0,1-.576,2.272,25.522,25.522,0,0,1-1.152,2.725,6.039,6.039,0,0,1-.365.648c-.139.207-.27.413-.385.624a6.484,6.484,0,0,0-.393.735,2.092,2.092,0,0,0-.187.6.861.861,0,0,0,.362.938,2.625,2.625,0,0,0,1.434.3,4.676,4.676,0,0,0,1.144-.5c1.275-.711,2.384-1.347,3.3-1.9s1.68-1.029,2.257-1.418c.282-.215.516-.409.723-.584.163-.135.314-.262.449-.373a3.636,3.636,0,0,1-.107.445,4.771,4.771,0,0,0-.957,1.108,3.051,3.051,0,0,0-.429,1.2,2.14,2.14,0,0,0,.3,1.692,2,2,0,0,0,1.585.548,1.624,1.624,0,0,0,.54-.151c.242-.1.54-.238.89-.409.556-.278,1.057-.556,1.506-.822a11.571,11.571,0,0,0,1.2-.787c.183-.159.477-.417.9-.775s.942-.822,1.565-1.379c.441-.326.838-.6,1.176-.834s.616-.429.838-.592c.143-.135.266-.25.369-.338s.211-.167.29-.246a1.133,1.133,0,0,1,.187.453,1.558,1.558,0,0,1,0,.429,3.728,3.728,0,0,0,.6,2.622,2.689,2.689,0,0,0,2.221.862,3.645,3.645,0,0,0,1.343-.27,7.2,7.2,0,0,0,1.466-.806c.421-.314.842-.648,1.243-1s.791-.687,1.2-1.013a4.854,4.854,0,0,0-.1-.5l.135.445c.437-.362.806-.679,1.128-.957.306-.278.572-.528.806-.727a1.128,1.128,0,0,1,.234.373,1.432,1.432,0,0,1,.087.373,6.1,6.1,0,0,0,.767,3.158,2.318,2.318,0,0,0,2.022,1.045c.266,0,.648.032,1.16.087a10.255,10.255,0,0,0,1.128.083,4.026,4.026,0,0,0,1.518-.322,6.92,6.92,0,0,0,1.589-.918q.7-.536,1.39-1.1c.449-.373.906-.743,1.363-1.1l-.62-2.153c-.4.31-.759.584-1.065.806s-.584.405-.8.532c-.719.23-1.275.409-1.68.509a4.865,4.865,0,0,1-.723.171,2.8,2.8,0,0,1-2.539-1.156,5.04,5.04,0,0,1-.441-3.42c.616-.783,1.228-1.593,1.82-2.459.433-.524.81-.989,1.144-1.379s.6-.719.806-.981c.183-.294.35-.556.485-.787s.27-.429.385-.592c.266-.342.485-.62.675-.834a6.063,6.063,0,0,0,.457-.608c.23-.362.425-.667.564-.934a5.11,5.11,0,0,0,.334-.7c.2-.278.4-.532.58-.759s.322-.421.441-.576c.31-.608.6-1.172.83-1.68s.441-.969.6-1.359c.258-.441.481-.81.64-1.12s.3-.576.4-.795l.016-.326a1.5,1.5,0,0,0,.167-.377,4.313,4.313,0,0,1,.445-1.335,4.211,4.211,0,0,0,.405-1.124,8.36,8.36,0,0,1,.286-1.18A7.835,7.835,0,0,0,324.016,86a2.654,2.654,0,0,0-.238-1.97,2.455,2.455,0,0,0-1.819-.52m-2.423,8.676a6.946,6.946,0,0,0-.254.926,18.331,18.331,0,0,1-1.251,2.713,17.988,17.988,0,0,1-1.545,2.642c-.369.508-.7.957-.977,1.331a9.443,9.443,0,0,0-.667.981,11.435,11.435,0,0,1-.858,1.168,1.182,1.182,0,0,1-.576.421l-.107-.191a5.106,5.106,0,0,1,.385-1.164c.226-.54.556-1.251.965-2.129.342-.576.667-1.1.985-1.585.254-.409.449-.731.588-.989a2.229,2.229,0,0,0,.226-.552,4.9,4.9,0,0,1,.953-2.169,14.474,14.474,0,0,1,2.3-2.384l.151.087c-.1.3-.2.592-.314.894" transform="translate(-197.316 -82.819)" fill="#fff"/>
        <path id="Trazado_2987" data-name="Trazado 2987" d="M552.564,109.961c-.1-.358-.23-.767-.369-1.22a3.339,3.339,0,0,1-.564.342c-.183.087-.318.155-.4.2a7.889,7.889,0,0,1-1.414.556,7.191,7.191,0,0,1-1.7.3,6.461,6.461,0,0,1-.942-.254,1.67,1.67,0,0,1-.552-.278.986.986,0,0,1-.421-.564,1.917,1.917,0,0,1-.06-.866,1.35,1.35,0,0,1,.179-.524,2.062,2.062,0,0,1,.338-.409,42.034,42.034,0,0,0,3.536-3.365,9.8,9.8,0,0,0,1.823-2.59l.314-.751c.163-.373.278-.648.358-.814q.077-.185.1-.167c-.016-.358-.024-.683-.02-.981a6.464,6.464,0,0,0-.171-.91,1.741,1.741,0,0,0-.246-.568,1.006,1.006,0,0,0-.54-.393,2.952,2.952,0,0,0-.93-.119,4.065,4.065,0,0,0-.783.072,5.947,5.947,0,0,0-.648.159c-.222.159-.449.3-.663.421a5.809,5.809,0,0,0-.612.4c-.417.441-.83.87-1.251,1.291s-.81.83-1.184,1.18c-.481.648-.866,1.22-1.184,1.728s-.56.938-.739,1.283-.326.663-.473.965-.246.548-.33.763c-.056.31-.131.624-.211.926s-.179.616-.266.926a10.39,10.39,0,0,0-1.259,1.037,7.8,7.8,0,0,0-.858.989c0,.008,0,.012.008.02a15.914,15.914,0,0,0-1.39,1.665,11.768,11.768,0,0,0-1.1,1.823c-.06.087-.222.489-.509,1.18s-.7,1.657-1.255,2.912a4.03,4.03,0,0,1-.405.838c-.151.222-.266.4-.346.54l.008.461c-.993,1.919-1.776,3.357-2.372,4.314s-.985,1.438-1.2,1.438c-.1,0-.151-.127-.171-.385a8.993,8.993,0,0,1,0-1.108c.008-.405.028-.795.068-1.172.127-.981.342-2.137.624-3.468s.663-2.848,1.108-4.545c.457-1.8.91-3.365,1.343-4.688s.85-2.423,1.247-3.3c.222-.369.417-.687.58-.938a2.6,2.6,0,0,1,.441-.532,4.988,4.988,0,0,0,.3-.6c.079-.175.147-.318.211-.429.373-.6.691-1.132.957-1.565s.485-.8.679-1.077q1.418-3.057,2.407-5.383c.659-1.553,1.18-2.844,1.581-3.893.532-2.106.81-3.222.826-3.341.076-.548.115-.989.139-1.331a6.149,6.149,0,0,0,.016-.727.972.972,0,0,0-.389-.783,1.57,1.57,0,0,0-.949-.242,2.513,2.513,0,0,0-1.645.779,9.366,9.366,0,0,0-1.72,2.328q-2.384,4.416-4.076,8.243a51.579,51.579,0,0,0-2.6,7.171,11.987,11.987,0,0,1-.5,1.359,7.609,7.609,0,0,1-.687,1.259c-.143.226-.369.528-.663.926s-.679.87-1.128,1.41c-.159.187-.31.346-.421.481a2.793,2.793,0,0,0-.3.362.015.015,0,0,1,0,.012c-.266.195-.544.4-.822.612s-.56.413-.826.612a3.593,3.593,0,0,1-.977.524,2.7,2.7,0,0,1-.878.155,1.331,1.331,0,0,1-.58-.1.623.623,0,0,1-.306-.338,4.194,4.194,0,0,1-.207-1.085c-.068-.632-.135-1.1-.2-1.41,0-.5-.012-.989-.036-1.482s-.064-.973-.111-1.458a1.673,1.673,0,0,0-.584-1.228,2.023,2.023,0,0,0-1.315-.405,1.472,1.472,0,0,0-.636.159,1.9,1.9,0,0,0-.608.54,18.03,18.03,0,0,1-2.495,2.253,19.25,19.25,0,0,0-2.527,2.249l-.1.238-.1.087a.685.685,0,0,0-.028-.083,2.808,2.808,0,0,1-.453.405,4.981,4.981,0,0,1-.584.393,3.564,3.564,0,0,1-.509.6c-.131.048-.258.1-.377.143a1.625,1.625,0,0,1-.381.1,23.169,23.169,0,0,1-3.27.957,14.346,14.346,0,0,1-3.019.326c-.226,0-.365-.135-.441-.417a3.289,3.289,0,0,1,0-1.192,19.571,19.571,0,0,1,.6-2.515c.338-1.116.787-2.523,1.379-4.219.135-.421.246-.779.322-1.092s.163-.592.222-.822c.032-.075.135-.294.282-.652s.354-.862.62-1.526c.215-.477.393-.894.516-1.243a4.53,4.53,0,0,0,.226-.854,8.605,8.605,0,0,1,.806-2.256,8.95,8.95,0,0,0,.834-2.463,9.971,9.971,0,0,1,.25-1.045c.131-.489.314-1.1.512-1.835.2-.262.346-.485.469-.675.083-.266.159-.548.234-.862s.143-.652.211-1.029c.048-.139.119-.33.207-.56s.179-.516.286-.842a5.517,5.517,0,0,0,.29-.83c.056-.238.091-.453.115-.636a2.19,2.19,0,0,0-.115-1.323.894.894,0,0,0-.862-.429,1.978,1.978,0,0,0-.457.079,6.311,6.311,0,0,0-.783.246,4.767,4.767,0,0,0-.934.528,2.56,2.56,0,0,0-.632.663c-.163.318-.322.608-.461.878s-.318.564-.493.878c-.369.636-.691,1.212-.957,1.708a13.508,13.508,0,0,0-.616,1.259c-.147.5-.31,1.009-.5,1.545s-.369,1.053-.552,1.565c-.171.437-.334.882-.509,1.335s-.342.918-.536,1.371a13.883,13.883,0,0,0-.536,1.541,11.227,11.227,0,0,0-.262,1.259.563.563,0,0,0,.262.6.609.609,0,0,1,.25.644,21.65,21.65,0,0,1-.894,3.234,21.992,21.992,0,0,0-.854,2.976,2.871,2.871,0,0,0-.02.481,2.161,2.161,0,0,1-.016.453,16.618,16.618,0,0,1-.993,2.991,16.113,16.113,0,0,0-1.025,3.277,14.892,14.892,0,0,0-.175,2.241c.02.512.111.822.282.938.135.079.318.195.568.35.111.079.226.163.346.254s.246.191.373.278a.959.959,0,0,0,.377.135,3.448,3.448,0,0,0,.576.032c.282,0,.6,0,.93-.032a5.729,5.729,0,0,0,1.037-.179c.5-.064,1.009-.135,1.533-.2a5.122,5.122,0,0,0,1.522-.441c.433-.2.914-.405,1.438-.612s1.089-.429,1.684-.644a6.05,6.05,0,0,0,1.1-.512,3.332,3.332,0,0,0,.814-.723c.25-.33.477-.648.7-.965a9.762,9.762,0,0,1,.612-.806.717.717,0,0,1,.02.075,17.659,17.659,0,0,1,1.744-1.51,2.142,2.142,0,0,1,1.073-.5c.091,0,.2.087.31.27a4.292,4.292,0,0,1,.385.806c.119.23.238.429.342.608a3.222,3.222,0,0,1,.219.445,5.608,5.608,0,0,0,1.033,2.729,4.68,4.68,0,0,0,2.686.493,2.864,2.864,0,0,0,1.073-.334,15.007,15.007,0,0,0,1.776-1.045c.64-.421,1.18-.791,1.633-1.108a12.634,12.634,0,0,0,1.1-.842l.524.524q-.465,1.585-.814,2.833c-.226.83-.405,1.506-.524,2.054.032.481.064.957.087,1.426a4.383,4.383,0,0,1-.215.814,4.939,4.939,0,0,0-.211.8l-.477,3.548a7.525,7.525,0,0,0-.079,1.108,6.443,6.443,0,0,0,.075.973c0,.489-.008.973-.02,1.462s-.016.989,0,1.482a1.958,1.958,0,0,0,.652,1.331,2.346,2.346,0,0,0,1.541.445,1.317,1.317,0,0,0,.652-.175,3.258,3.258,0,0,0,.648-.477c.151-.183.314-.381.485-.584a5.88,5.88,0,0,0,.473-.612,25.2,25.2,0,0,0,2.717-4.406q1.52-2.956,3.289-7.417c.167-.421.33-.858.5-1.319s.346-.91.536-1.343a8.871,8.871,0,0,1,.687-1.418,6.874,6.874,0,0,1,.775-1.061.172.172,0,0,0,0-.02,3.993,3.993,0,0,1,.564-.508.84.84,0,0,1,.445-.175.437.437,0,0,1,.389.25,2.854,2.854,0,0,1,.294.755c.111.425.23.783.342,1.085a2.2,2.2,0,0,0,.377.691,2.4,2.4,0,0,0,1.009.751,4.046,4.046,0,0,0,1.49.254,6.057,6.057,0,0,0,1.148-.1,3.19,3.19,0,0,0,.9-.342,4.385,4.385,0,0,0,2.09-.663,17.577,17.577,0,0,0,2.682-1.978,7.029,7.029,0,0,0-.23-.922m-6.34-5.486a5.19,5.19,0,0,1,1.124-1.974c.7-.894,1.216-1.343,1.561-1.343a.238.238,0,0,1,.23.127.562.562,0,0,1,.032.346,1.752,1.752,0,0,1-.226.652,2.993,2.993,0,0,1-.5.655c-.183.167-.365.342-.548.516s-.385.35-.568.5c-.119.159-.242.33-.369.5a.571.571,0,0,1-.461.27c-.127,0-.207-.012-.242-.056a.232.232,0,0,1-.028-.2m-7.409-8.216c.107-.254.246-.556.417-.9.207-.405.381-.739.512-1a3.879,3.879,0,0,0,.246-.632c.107-.215.187-.381.242-.5s.127-.175.222-.175c.111,0,.187.036.215.119a.772.772,0,0,1,.016.4,2.257,2.257,0,0,1-.191.58c-.111.23-.266.512-.461.838a10.558,10.558,0,0,0-.572.957,2.733,2.733,0,0,0-.29.775l-.4.35-.147-.183a2.492,2.492,0,0,1,.187-.628" transform="translate(-366.619 -82.017)" fill="#fff"/>
        <path id="Trazado_2988" data-name="Trazado 2988" d="M553.571,108.935c.23,0,.469.016.7.032s.493.056.747.087a1.287,1.287,0,0,0,.52-.127,6.308,6.308,0,0,0,.973-.524,4.877,4.877,0,0,0,.969-.7,3.737,3.737,0,0,0,.7-.9c.083-.151.207-.405.37-.767s.361-.822.6-1.379c.107-.294.226-.663.381-1.1a.757.757,0,0,0-.183-.679,1.164,1.164,0,0,0-.818-.23,3.237,3.237,0,0,0-.874.1,2.508,2.508,0,0,0-.644.27c-.417.425-.775.791-1.085,1.116a3.144,3.144,0,0,0-1.661,1.144,3.6,3.6,0,0,0-1.092,1.76,3.466,3.466,0,0,0,.008,1.263.9.9,0,0,0,.393.628" transform="translate(-397.131 -94.355)" fill="#fff"/>
        <g id="Grupo_3473" data-name="Grupo 3473" transform="translate(186.216 10.111)">
          <path id="Trazado_2989" data-name="Trazado 2989" d="M632.849,108.992a1.82,1.82,0,1,1-1.8-1.772A1.786,1.786,0,0,1,632.849,108.992Zm-3.19,0a1.381,1.381,0,0,0,1.382,1.414,1.357,1.357,0,0,0,1.351-1.4,1.368,1.368,0,1,0-2.733-.012Zm1.092.922h-.409v-1.772a5.042,5.042,0,0,1,.679-.056.963.963,0,0,1,.6.139.448.448,0,0,1,.183.377.458.458,0,0,1-.365.421v.02c.175.056.258.195.314.433a1.541,1.541,0,0,0,.131.433h-.433a1.279,1.279,0,0,1-.139-.433c-.032-.183-.139-.27-.365-.27h-.195v.707Zm.012-1h.195c.226,0,.409-.075.409-.258,0-.163-.119-.27-.377-.27a1.226,1.226,0,0,0-.226.02Z" transform="translate(-629.21 -107.22)" fill="#fff"/>
        </g>
      </g>
      <path id="Trazado_2990" data-name="Trazado 2990" d="M627.2,126.4v.048a.156.156,0,0,0,0-.048" transform="translate(-401.747 -106.418)" fill="#fff"/>
      <g id="Grupo_3475" data-name="Grupo 3475">
        <path id="Trazado_2991" data-name="Trazado 2991" d="M106.479,83.84A3.911,3.911,0,0,0,110.69,80.2a3.5,3.5,0,0,0-3.258-4.064,3.621,3.621,0,0,0-4.108,3.381,3.661,3.661,0,0,0,3.154,4.326" transform="translate(-85.969 -76.102)" fill="#fff"/>
        <path id="Trazado_2992" data-name="Trazado 2992" d="M130.69,95.577a3.344,3.344,0,0,0,3.6-3.115A2.989,2.989,0,0,0,131.5,88.99a3.324,3.324,0,0,0-.814,6.587" transform="translate(-100.841 -83.854)" fill="#fff"/>
        <path id="Trazado_2993" data-name="Trazado 2993" d="M81.093,88.508a3.909,3.909,0,0,0,3.015-4.676,3.5,3.5,0,0,0-4.271-2.987,3.624,3.624,0,0,0-2.991,4.4,3.664,3.664,0,0,0,4.247,3.266" transform="translate(-69.995 -78.923)" fill="#fff"/>
        <path id="Trazado_2994" data-name="Trazado 2994" d="M65.541,103.438a3.5,3.5,0,0,0-5.129.922,3.611,3.611,0,0,0,1.005,5.22,3.661,3.661,0,0,0,5.315-.7,3.915,3.915,0,0,0-1.192-5.439" transform="translate(-59.695 -92.132)" fill="#fff"/>
        <path id="Trazado_2995" data-name="Trazado 2995" d="M99.715,125.656h0a1.714,1.714,0,0,0,1.188-.512,1.91,1.91,0,0,1-1.406.278l-.008-.012c-1.116-.155-3.119-2.153-3.528-2.4s-1.224-.258-1.386.127-.87.29-.87.29-.763-.683.655-1.486a2.532,2.532,0,0,1,2.9-.024s1.005.636,1.283.266a7.68,7.68,0,0,1,.743-.862.283.283,0,0,0-.04-.441,5.552,5.552,0,0,0-1.259-.481c-.286-.008-.64-.489-.755-.83-.195-.147-.2-.441-.171-.755-.207-.362-.1-.516.159-.663a1.038,1.038,0,0,0,.536-.528c.493-.977.667-1.224,1.625-1.382.155-.266.362-.365.362-.659,0-.354.127-.822.354-.842a2.5,2.5,0,0,1,1.16,1.47,3.686,3.686,0,0,1,1.363,2.213,17.341,17.341,0,0,0,.477,1.736c.028.072.056.147.087.226a4.487,4.487,0,0,0,2.078,1.966s0,0,0,.008a18.478,18.478,0,0,0,.767-5.1.031.031,0,0,1-.016.016,18.288,18.288,0,0,0-.719-5.367s0,0,.008,0a12.688,12.688,0,0,0-5.268-7.381c-6.622-4.12-14.246-.707-18.187,5.637a15.543,15.543,0,0,0-1.708,3.718v0c.83-.5,3.651-2.372,4.386-2.829s1.422-.882,1.573-.977a11.424,11.424,0,0,1,1.994-1.613,3.106,3.106,0,0,1,3.039-.016,5.284,5.284,0,0,1,2.384,1.97,2.5,2.5,0,0,1,.644.779c.115.266-.286,1.037.576,1.8.723.636,2.209,1.593,2.344,2.106.1.373-.8.83-1.2,1.2a3.031,3.031,0,0,1-2.137.946,4.555,4.555,0,0,1-2.181-1.089,4.364,4.364,0,0,0-1.442-.723c.036-.957.739-1.037.926-2.3.111-.838-.258-1.768-.163-2.495a3.98,3.98,0,0,0,.06-1.065,2.15,2.15,0,0,0-.381.949c-.079.691.238,1.851.1,2.638-.2,1.168-.659,1.132-.779,2.173a1.662,1.662,0,0,1-.35.858c-.262.155-.747.377-1.089.1a4.187,4.187,0,0,1-1.41-2.129,5.371,5.371,0,0,1-.588-3.174,4.507,4.507,0,0,0,.29,3.25,3.1,3.1,0,0,0,1.005,1.637,9.082,9.082,0,0,0-1.037.509,2.692,2.692,0,0,0-.644,1.978,11.325,11.325,0,0,1,.036,1.871c-.111.759-.079,1.533-.246,2.28a7.2,7.2,0,0,1-.671,1.883,7.4,7.4,0,0,0-.795,2.129c.215.163.433.326.659.485-.016,0-.032,0-.048-.008.246.171.5.342.767.5,5.808,3.607,12.192,4.5,16.332.4a6.668,6.668,0,0,1-2.376-2.229" transform="translate(-72.012 -92.147)" fill="#fff"/>
        <path id="Trazado_2996" data-name="Trazado 2996" d="M90.83,162.554h0v0" transform="translate(-78.461 -128.207)" fill="#fff"/>
        <path id="Trazado_2997" data-name="Trazado 2997" d="M135.41,166.034v0Z" transform="translate(-105.331 -130.304)" fill="#fff"/>
      </g>
      <path id="Trazado_2998" data-name="Trazado 2998" d="M629.09,125.93v.048q.006-.042,0-.048" transform="translate(-402.887 -106.135)" fill="#fff"/>
      <path id="Trazado_2999" data-name="Trazado 2999" d="M628.01,128.08v.048a.165.165,0,0,0,0-.048" transform="translate(-402.236 -107.431)" fill="#fff"/>
    </g>
  </g>
</svg>
