<svg xmlns="http://www.w3.org/2000/svg" width="20" height="20" viewBox="0 0 20 20"><g transform="translate(-11750.095 -648.15)"><path d="M414.665,10a10,10,0,1,1-10-10,10,10,0,0,1,10,10" transform="translate(11355.43 648.149)" fill="#234196"/><path d="M428.546,22.382h5.224a.928.928,0,0,1,.928.928v4.571a.928.928,0,0,1-.928.928H433.3a1.445,1.445,0,0,0-2.851,0h-1.9a.928.928,0,0,1-.928-.928V23.31a.928.928,0,0,1,.928-.928" transform="translate(11331.537 631.922)" fill="#fff"/><path d="M408.7,30.643v1.374a.59.59,0,0,0,.59.59h.281a1.448,1.448,0,0,1,2.83,0h.314a.59.59,0,0,0,.59-.59V28.305a.59.59,0,0,0-.59-.59H410.85a.59.59,0,0,0-.491.263L408.8,30.316a.591.591,0,0,0-.1.327m1.417-1.272.6-.979a.206.206,0,0,1,.175-.1h1.526a.206.206,0,0,1,.206.206v.979a.206.206,0,0,1-.206.206h-2.13a.206.206,0,0,1-.176-.315" transform="translate(11345.253 628.056)" fill="#fff"/><path d="M440.392,42.9a1.045,1.045,0,1,1-1.007.855,1.023,1.023,0,0,1,1.007-.855" transform="translate(11323.019 617.042)" fill="#fff"/><path d="M414.371,42.983a1.007,1.007,0,1,1-.979.789,1,1,0,0,1,.979-.789" transform="translate(11341.869 616.986)" fill="#fff"/></g></svg>