<svg xmlns="http://www.w3.org/2000/svg" width="20" height="20" viewBox="0 0 20 20"><path d="M217.333,10a10,10,0,1,1-10-10,10,10,0,0,1,10,10" transform="translate(-197.333 -0.001)" fill="#234196"/><path d="M236.076,16.578c.31-1.154,1.239-1.91,2.073-1.685a1.941,1.941,0,0,1,.949,2.5c-.314,1.151-1.239,1.907-2.073,1.682a1.94,1.94,0,0,1-.949-2.5" transform="translate(-225.35 -10.77)" fill="#fff"/><path d="M220.776,14.871c.835-.223,1.761.532,2.068,1.686a1.942,1.942,0,0,1-.954,2.5c-.834.223-1.758-.535-2.07-1.69a1.94,1.94,0,0,1,.956-2.493" transform="translate(-213.565 -10.754)" fill="#fff"/><path d="M209.394,30.038a1.716,1.716,0,0,1,.244-2.352,1.719,1.719,0,0,1,2.155.972,1.714,1.714,0,0,1-.243,2.352c-.662.383-1.627-.052-2.156-.972" transform="translate(-205.835 -19.975)" fill="#fff"/><path d="M221.9,39.394c-2.464,0-4.468,2.126-4.463-.755s2.868-5.216,4.47-5.214,4.468,2.339,4.465,5.224-2,.748-4.472.745" transform="translate(-211.906 -24.235)" fill="#fff"/><path d="M249.907,30.09c-.531.919-1.5,1.352-2.161.967a1.717,1.717,0,0,1-.235-2.352,1.719,1.719,0,0,1,2.157-.967,1.715,1.715,0,0,1,.239,2.352" transform="translate(-233.468 -20.011)" fill="#fff"/></svg>