<svg id="_002-facebook" data-name="002-facebook" xmlns="http://www.w3.org/2000/svg" width="30" height="30" viewBox="0 0 30 30">
  <path id="Trazado_2939" data-name="Trazado 2939" d="M24.375,30H5.625A5.625,5.625,0,0,1,0,24.375V5.625A5.625,5.625,0,0,1,5.625,0h18.75A5.625,5.625,0,0,1,30,5.625v18.75A5.625,5.625,0,0,1,24.375,30Z" fill="#fff"/>
  <path id="Trazado_2940" data-name="Trazado 2940" d="M18.318,10.491h1.369V8.106A17.544,17.544,0,0,0,17.693,8c-1.974,0-3.326,1.242-3.326,3.524v2.1H12.188v2.666h2.179V23h2.671V16.292h2.091l.332-2.666H17.037V11.789c0-.771.208-1.3,1.282-1.3Z" transform="translate(-0.762 -0.5)" fill="#3b5999"/>
</svg>
