<svg id="_003-youtube" data-name="003-youtube" xmlns="http://www.w3.org/2000/svg" width="30" height="30" viewBox="0 0 30 30">
  <path id="Trazado_2958" data-name="Trazado 2958" d="M24.375,30H5.625A5.625,5.625,0,0,1,0,24.375V5.625A5.625,5.625,0,0,1,5.625,0h18.75A5.625,5.625,0,0,1,30,5.625v18.75A5.625,5.625,0,0,1,24.375,30Z" fill="#fff"/>
  <path id="Trazado_2959" data-name="Trazado 2959" d="M22.668,11.852l.019.122a1.9,1.9,0,0,0-1.293-1.32l-.013,0a44.4,44.4,0,0,0-5.874-.318,43.524,43.524,0,0,0-5.874.318,1.9,1.9,0,0,0-1.3,1.31l0,.013a20.91,20.91,0,0,0,.02,7.467l-.02-.124a1.9,1.9,0,0,0,1.293,1.32l.013,0a44.392,44.392,0,0,0,5.874.318,44.493,44.493,0,0,0,5.874-.318,1.9,1.9,0,0,0,1.3-1.31l0-.013A19.448,19.448,0,0,0,23,15.787c0-.046,0-.092,0-.138s0-.094,0-.144a20.121,20.121,0,0,0-.332-3.653ZM14,17.928V13.37l3.917,2.283Z" transform="translate(-0.5 -0.646)" fill="red"/>
</svg>
