<svg xmlns="http://www.w3.org/2000/svg" width="44.919" height="24.063" viewBox="0 0 44.919 24.063">
  <g id="Grupo_3500" data-name="Grupo 3500" transform="translate(2399.838 -15217.967)">
    <rect id="Rectángulo_2663" data-name="Rectángulo 2663" width="44.919" height="24.063" rx="3" transform="translate(-2399.838 15217.967)" fill="#fff"/>
    <g id="surface1" transform="translate(-2386.07 15221.488)">
      <path id="Trazado_2541" data-name="Trazado 2541" d="M216,306h17.289v17.289H216V306" transform="translate(-216 -306)" fill="#016fd0" fill-rule="evenodd"/>
      <path id="Trazado_2542" data-name="Trazado 2542" d="M281.2,399.215v-6.2l11.026.01v1.711l-1.275,1.362,1.275,1.375v1.747h-2.035l-1.081-1.193-1.074,1.2-6.836-.015" transform="translate(-274.94 -384.662)" fill="#fff" fill-rule="evenodd"/>
      <path id="Trazado_2543" data-name="Trazado 2543" d="M288.871,404.951v-4.834h4.1v1.114H290.2v.756H292.9v1.1H290.2v.743h2.772v1.127h-4.1" transform="translate(-281.872 -391.077)" fill="#016fd0" fill-rule="evenodd"/>
      <path id="Trazado_2544" data-name="Trazado 2544" d="M331.336,404.955l2.268-2.42-2.268-2.414h1.755l1.386,1.532,1.39-1.532h1.68v.038l-2.22,2.376,2.22,2.351v.068h-1.7l-1.41-1.547-1.4,1.547h-1.707" transform="translate(-320.258 -391.081)" fill="#016fd0" fill-rule="evenodd"/>
      <path id="Trazado_2545" data-name="Trazado 2545" d="M260.871,335.773h2.658l.934,2.12v-2.12h3.281l.566,1.588.568-1.588h2.506v6.195H258.141l2.73-6.195" transform="translate(-254.093 -332.913)" fill="#fff" fill-rule="evenodd"/>
      <path id="Trazado_2546" data-name="Trazado 2546" d="M271.614,342.781l-2.145,4.83h1.471l.4-.967h2.193l.4.967h1.508l-2.136-4.83Zm.184,2.779.643-1.538.643,1.538Zm0,0" transform="translate(-264.333 -339.248)" fill="#016fd0" fill-rule="evenodd"/>
      <path id="Trazado_2547" data-name="Trazado 2547" d="M331.523,347.6v-4.83l2.068.007,1.064,2.969,1.071-2.976h1.99v4.83l-1.281.011V344.3l-1.209,3.307h-1.169l-1.234-3.318V347.6h-1.3" transform="translate(-320.427 -339.241)" fill="#016fd0" fill-rule="evenodd"/>
    </g>
  </g>
</svg>
