<svg xmlns="http://www.w3.org/2000/svg" xmlns:xlink="http://www.w3.org/1999/xlink" width="44.919" height="24.063" viewBox="0 0 44.919 24.063">
  <defs>
    <linearGradient id="linear-gradient" x1="0.103" y1="0.972" x2="0.931" y2="-0.011" gradientUnits="objectBoundingBox">
      <stop offset="0" stop-color="#252855"/>
      <stop offset="1" stop-color="#253788"/>
    </linearGradient>
  </defs>
  <g id="Grupo_3498" data-name="Grupo 3498" transform="translate(2505.172 -15217.967)">
    <rect id="Rectángulo_2661" data-name="Rectángulo 2661" width="44.919" height="24.063" rx="3" transform="translate(-2505.172 15217.967)" fill="#fff"/>
    <g id="Grupo_3458" data-name="Grupo 3458" transform="translate(-2497.809 15222.449)">
      <g id="logos_visa.062f66a8" transform="translate(0 0)">
        <path id="Trazado_1444" data-name="Trazado 1444" d="M110.971,63.555l-3.884,9.279h-2.538l-1.91-7.405a1.027,1.027,0,0,0-.573-.819,10.138,10.138,0,0,0-2.365-.791l.055-.264h4.085a1.122,1.122,0,0,1,1.11.946l1.01,5.367,2.493-6.313Zm9.943,6.25c.009-2.447-3.384-2.584-3.366-3.675.009-.337.327-.691,1.019-.773a4.469,4.469,0,0,1,2.365.418l.418-1.965A6.48,6.48,0,0,0,119.1,63.4c-2.374,0-4.039,1.265-4.057,3.066-.018,1.337,1.192,2.083,2.1,2.529.937.455,1.246.746,1.246,1.155-.009.628-.746.9-1.437.91a5.1,5.1,0,0,1-2.465-.582l-.437,2.029a7.281,7.281,0,0,0,2.665.491c2.538-.018,4.185-1.264,4.194-3.193m6.259,3.029h2.22l-1.938-9.279h-2.047a1.079,1.079,0,0,0-1.019.682l-3.6,8.6h2.52l.5-1.383h3.084ZM124.5,69.55l1.264-3.484.728,3.484Zm-10.1-6-1.983,9.279h-2.4L112,63.555Z" transform="translate(-99.7 -63.4)" fill="url(#linear-gradient)"/>
      </g>
      <g id="Grupo_3452" data-name="Grupo 3452" transform="translate(11.975 10.505)">
        <path id="Trazado_2961" data-name="Trazado 2961" d="M3.218-24.448V-29H4.5a2.069,2.069,0,0,1,1.05.263,1.776,1.776,0,0,1,.705.747,2.432,2.432,0,0,1,.252,1.113v.291a2.441,2.441,0,0,1-.249,1.129,1.748,1.748,0,0,1-.71.744,2.2,2.2,0,0,1-1.074.266Zm.6-4.061v3.57H4.45a1.374,1.374,0,0,0,1.08-.432,1.784,1.784,0,0,0,.386-1.23v-.266a1.812,1.812,0,0,0-.364-1.206,1.3,1.3,0,0,0-1.033-.437ZM8.73-24.385a1.478,1.478,0,0,1-1.119-.452,1.677,1.677,0,0,1-.431-1.208v-.106a2.03,2.03,0,0,1,.192-.9,1.5,1.5,0,0,1,.538-.619,1.352,1.352,0,0,1,.749-.224,1.267,1.267,0,0,1,1.025.435,1.882,1.882,0,0,1,.366,1.244v.241H7.758a1.2,1.2,0,0,0,.292.808.919.919,0,0,0,.711.308,1.007,1.007,0,0,0,.519-.125,1.3,1.3,0,0,0,.372-.331l.353.275A1.421,1.421,0,0,1,8.73-24.385Zm-.072-3.033a.771.771,0,0,0-.588.255,1.238,1.238,0,0,0-.294.714H9.471v-.044a1.1,1.1,0,0,0-.238-.683A.726.726,0,0,0,8.658-27.418Zm.281-1.826h.7l-.838.919-.466,0ZM13.582-26.1a2.011,2.011,0,0,1-.356,1.246,1.139,1.139,0,0,1-.957.471,1.179,1.179,0,0,1-.991-.453l-.028.391h-.531v-4.8H11.3v1.791a1.173,1.173,0,0,1,.966-.435,1.146,1.146,0,0,1,.968.466,2.072,2.072,0,0,1,.352,1.276ZM13-26.167a1.563,1.563,0,0,0-.228-.913.756.756,0,0,0-.657-.322.849.849,0,0,0-.822.531v1.463a.873.873,0,0,0,.829.531.751.751,0,0,0,.647-.322A1.662,1.662,0,0,0,13-26.167Zm1.935,1.72h-.578v-3.383h.578Zm-.625-4.28a.345.345,0,0,1,.086-.238.323.323,0,0,1,.255-.1.328.328,0,0,1,.256.1.342.342,0,0,1,.088.238.33.33,0,0,1-.088.234.334.334,0,0,1-.256.094.329.329,0,0,1-.255-.094A.334.334,0,0,1,14.314-28.728Zm2.335.078v.819h.632v.447h-.632v2.1a.47.47,0,0,0,.084.305.355.355,0,0,0,.288.1,1.4,1.4,0,0,0,.275-.038v.466a1.687,1.687,0,0,1-.444.062.72.72,0,0,1-.585-.234,1.007,1.007,0,0,1-.2-.666v-2.1h-.616v-.447h.616v-.819Zm1.091,2.479a2,2,0,0,1,.2-.894,1.458,1.458,0,0,1,.544-.613,1.481,1.481,0,0,1,.8-.216,1.427,1.427,0,0,1,1.118.478,1.84,1.84,0,0,1,.427,1.272v.041a2.015,2.015,0,0,1-.189.886,1.436,1.436,0,0,1-.541.611,1.5,1.5,0,0,1-.808.219,1.423,1.423,0,0,1-1.115-.478,1.831,1.831,0,0,1-.427-1.266Zm.582.069a1.447,1.447,0,0,0,.261.9.835.835,0,0,0,.7.341.83.83,0,0,0,.7-.345,1.583,1.583,0,0,0,.259-.968,1.445,1.445,0,0,0-.264-.9.84.84,0,0,0-.7-.345.831.831,0,0,0-.691.341A1.571,1.571,0,0,0,18.322-26.1Z" transform="translate(-3.218 29.25)" fill="#1d315c"/>
      </g>
    </g>
  </g>
</svg>
