<svg xmlns="http://www.w3.org/2000/svg" width="20" height="20" viewBox="0 0 20 20"><path d="M316,10A10,10,0,1,1,306,0a10,10,0,0,1,10,10" transform="translate(-295.999 -0.001)" fill="#234196"/><path d="M319.338,27.422a.9.9,0,0,1-.249-.679v-8.8a.9.9,0,0,1,.249-.679.945.945,0,0,1,.686-.241h5.447a1.052,1.052,0,0,1,.679.2.68.68,0,0,1,.241.559.718.718,0,0,1-.241.581,1.022,1.022,0,0,1-.679.2H320.99v2.927h4.179a1.052,1.052,0,0,1,.679.2.7.7,0,0,1,.241.573.679.679,0,0,1-.241.558,1.049,1.049,0,0,1-.679.2H320.99v3.108h4.481a1.022,1.022,0,0,1,.679.2.719.719,0,0,1,.241.581.679.679,0,0,1-.241.558,1.048,1.048,0,0,1-.679.2h-5.447a.943.943,0,0,1-.686-.241" transform="translate(-312.74 -12.345)" fill="#fff"/></svg>