<svg id="_001-instagram" data-name="001-instagram" xmlns="http://www.w3.org/2000/svg" xmlns:xlink="http://www.w3.org/1999/xlink" width="30" height="30" viewBox="0 0 30 30">
  <defs>
    <linearGradient id="linear-gradient" x1="0.084" y1="0.916" x2="0.916" y2="0.084" gradientUnits="objectBoundingBox">
      <stop offset="0" stop-color="#ffd600"/>
      <stop offset="0.5" stop-color="#ff0100"/>
      <stop offset="1" stop-color="#d800b9"/>
    </linearGradient>
    <linearGradient id="linear-gradient-2" x1="0.146" y1="0.854" x2="0.854" y2="0.146" gradientUnits="objectBoundingBox">
      <stop offset="0" stop-color="#ff6400"/>
      <stop offset="0.5" stop-color="#ff0100"/>
      <stop offset="1" stop-color="#fd0056"/>
    </linearGradient>
    <linearGradient id="linear-gradient-3" x1="0.146" y1="0.854" x2="0.854" y2="0.146" gradientUnits="objectBoundingBox">
      <stop offset="0" stop-color="#f30072"/>
      <stop offset="1" stop-color="#e50097"/>
    </linearGradient>
  </defs>
  <path id="Trazado_2936" data-name="Trazado 2936" d="M24.375,30H5.625A5.625,5.625,0,0,1,0,24.375V5.625A5.625,5.625,0,0,1,5.625,0h18.75A5.625,5.625,0,0,1,30,5.625v18.75A5.625,5.625,0,0,1,24.375,30Z" fill="#fff"/>
  <g id="_003-instagram" data-name="003-instagram" transform="translate(7.5 7.5)">
    <path id="Trazado_2955" data-name="Trazado 2955" d="M14.953,4.407a5.506,5.506,0,0,0-.349-1.82,3.675,3.675,0,0,0-.865-1.328A3.676,3.676,0,0,0,12.411.393a5.5,5.5,0,0,0-1.82-.348C9.791.009,9.536,0,7.5,0S5.207.009,4.407.045a5.506,5.506,0,0,0-1.82.349,3.675,3.675,0,0,0-1.328.865A3.676,3.676,0,0,0,.393,2.587a5.505,5.505,0,0,0-.348,1.82C.008,5.207,0,5.462,0,7.5s.009,2.292.045,3.092a5.5,5.5,0,0,0,.349,1.82,3.675,3.675,0,0,0,.865,1.328,3.674,3.674,0,0,0,1.328.865,5.5,5.5,0,0,0,1.82.349c.8.037,1.055.045,3.092.045s2.292-.009,3.092-.045a5.5,5.5,0,0,0,1.82-.349A3.834,3.834,0,0,0,14.6,12.411a5.5,5.5,0,0,0,.349-1.82c.036-.8.045-1.055.045-3.092s-.009-2.292-.045-3.092ZM13.6,10.529a4.149,4.149,0,0,1-.258,1.392,2.483,2.483,0,0,1-1.423,1.423,4.149,4.149,0,0,1-1.392.258c-.791.036-1.028.044-3.03.044s-2.24-.008-3.03-.044a4.151,4.151,0,0,1-1.392-.258,2.324,2.324,0,0,1-.862-.561,2.323,2.323,0,0,1-.561-.862,4.149,4.149,0,0,1-.258-1.392C1.359,9.739,1.351,9.5,1.351,7.5s.008-2.24.044-3.03a4.152,4.152,0,0,1,.258-1.392,2.325,2.325,0,0,1,.561-.862,2.322,2.322,0,0,1,.862-.561,4.148,4.148,0,0,1,1.392-.258c.791-.036,1.028-.044,3.03-.044h0c2,0,2.24.008,3.03.044a4.15,4.15,0,0,1,1.392.258,2.325,2.325,0,0,1,.862.561,2.322,2.322,0,0,1,.561.862A4.145,4.145,0,0,1,13.6,4.469c.036.791.044,1.028.044,3.03s-.008,2.24-.044,3.03Zm0,0" transform="translate(0 0)" fill="url(#linear-gradient)"/>
    <path id="Trazado_2956" data-name="Trazado 2956" d="M128.39,124.539a3.851,3.851,0,1,0,3.851,3.851A3.851,3.851,0,0,0,128.39,124.539Zm0,6.351a2.5,2.5,0,1,1,2.5-2.5A2.5,2.5,0,0,1,128.39,130.89Zm0,0" transform="translate(-120.891 -120.891)" fill="url(#linear-gradient-2)"/>
    <path id="Trazado_2957" data-name="Trazado 2957" d="M363.729,89.525a.9.9,0,1,1-.9-.9A.9.9,0,0,1,363.729,89.525Zm0,0" transform="translate(-351.327 -86.029)" fill="url(#linear-gradient-3)"/>
  </g>
</svg>
