<svg xmlns="http://www.w3.org/2000/svg" width="44.919" height="24.063" viewBox="0 0 44.919 24.063">
  <g id="Grupo_3499" data-name="Grupo 3499" transform="translate(2454.266 -15217.967)">
    <rect id="Rect치ngulo_2662" data-name="Rect치ngulo 2662" width="44.919" height="24.063" rx="3" transform="translate(-2454.266 15217.967)" fill="#fff"/>
    <g id="logos_master.60fdbcf5" transform="translate(-2443.06 15221.488)">
      <path id="Trazado_1440" data-name="Trazado 1440" d="M164.356,182.059v-1.15a.659.659,0,0,0-.7-.719.719.719,0,0,0-.642.326.674.674,0,0,0-.6-.326.625.625,0,0,0-.546.268v-.22H161.5v1.821h.374v-1.045a.441.441,0,0,1,.46-.489c.268,0,.412.173.412.479v1.045h.374V181a.446.446,0,0,1,.46-.489c.268,0,.412.173.412.479v1.045h.364Zm5.952-1.821h-.661v-.556h-.374v.556h-.383v.335h.383v.863c0,.422.153.68.623.68a.95.95,0,0,0,.5-.144l-.115-.326a.782.782,0,0,1-.355.105c-.2,0-.278-.125-.278-.307v-.872h.661Zm3.393-.048a.564.564,0,0,0-.5.268v-.22h-.364v1.821h.364v-1.025c0-.307.144-.5.4-.5a.6.6,0,0,1,.249.048l.115-.345a.663.663,0,0,0-.268-.048m-5.127.192a1.4,1.4,0,0,0-.748-.192c-.46,0-.748.22-.748.585,0,.3.2.479.613.537l.192.029c.22.029.335.105.335.211,0,.144-.163.23-.431.23a.923.923,0,0,1-.6-.192l-.182.288a1.336,1.336,0,0,0,.786.24c.527,0,.815-.249.815-.594,0-.326-.22-.489-.623-.546l-.192-.029c-.173-.019-.326-.077-.326-.2s.144-.23.364-.23a1.251,1.251,0,0,1,.575.153Zm5.549.767a.91.91,0,0,0,.958.958.939.939,0,0,0,.661-.22l-.192-.288a.825.825,0,0,1-.479.163.573.573,0,0,1-.565-.613.587.587,0,0,1,.565-.623.825.825,0,0,1,.479.163l.192-.288a.986.986,0,0,0-.661-.22.918.918,0,0,0-.958.968m-2.568-.958a.881.881,0,0,0-.9.958.9.9,0,0,0,.93.968,1.081,1.081,0,0,0,.748-.259l-.192-.268a.876.876,0,0,1-.537.192.539.539,0,0,1-.565-.479H172.4c0-.048.01-.1.01-.153a.862.862,0,0,0-.853-.958m-.01.335a.464.464,0,0,1,.479.46h-.987a.49.49,0,0,1,.508-.46m-4.945.623v-.91h-.364v.22a.731.731,0,0,0-.594-.268.96.96,0,0,0,0,1.917.745.745,0,0,0,.594-.268v.22h.364Zm-1.485,0a.577.577,0,0,1,.575-.623.622.622,0,0,1,0,1.236.569.569,0,0,1-.575-.613m14.107-.958a.565.565,0,0,0-.5.268v-.22h-.364v1.821h.364v-1.025c0-.307.144-.5.4-.5a.6.6,0,0,1,.249.048l.125-.345a.739.739,0,0,0-.278-.048m2.942,1.6a.225.225,0,0,1,.077.019.176.176,0,0,1,.1.1.127.127,0,0,1,0,.134.176.176,0,0,1-.1.1.181.181,0,0,1-.077.019.115.115,0,0,1-.077-.019.176.176,0,0,1-.1-.1.163.163,0,0,1-.01-.067c0-.029.01-.048.01-.067a.176.176,0,0,1,.1-.1.226.226,0,0,1,.077-.019m0,.326c.019,0,.038-.01.057-.01s.029-.019.048-.029a.209.209,0,0,0,.029-.048.177.177,0,0,0,0-.115c-.01-.019-.019-.029-.029-.048a.209.209,0,0,0-.048-.029.177.177,0,0,0-.115,0c-.019.01-.029.019-.048.029a.082.082,0,0,0-.029.048.177.177,0,0,0,0,.115c.01.019.019.029.029.048a.209.209,0,0,0,.048.029.121.121,0,0,0,.058.01m.01-.23a.073.073,0,0,1,.048.019.05.05,0,0,1,.019.038.058.058,0,0,1-.01.038.05.05,0,0,1-.038.019l.057.058H182.2l-.048-.058h-.019v.058H182.1V181.9h.077Zm-.038.038v.038h.057c.01,0,.01-.01.01-.019s0-.01-.01-.019-.01-.01-.019-.01h-.038Zm-4.322-.776v-.91h-.364v.22a.731.731,0,0,0-.594-.268.96.96,0,0,0,0,1.917.731.731,0,0,0,.594-.268v.22h.364Zm-1.476,0a.577.577,0,0,1,.575-.623.62.62,0,1,1-.575.623m5.166,0V179.5h-.364v.958a.731.731,0,0,0-.594-.268.96.96,0,0,0,0,1.917.745.745,0,0,0,.594-.268v.22h.364Zm-1.476,0a.575.575,0,0,1,.565-.623.621.621,0,1,1-.565.623" transform="translate(-160.34 -164.866)" fill="#010202"/>
      <rect id="Rect치ngulo_1433" data-name="Rect치ngulo 1433" width="6.613" height="10.801" transform="translate(7.811 1.466)" fill="#ea560d"/>
      <path id="Trazado_1441" data-name="Trazado 1441" d="M157.891,33.672a6.866,6.866,0,0,1,2.626-5.405,6.872,6.872,0,1,0,0,10.81,6.88,6.88,0,0,1-2.626-5.405" transform="translate(-149.4 -26.8)" fill="#e30613"/>
      <path id="Trazado_1442" data-name="Trazado 1442" d="M373.144,140.368v-.22h.086V140.1H373v.048h.086v.22Zm.441,0V140.1h-.067l-.077.182-.086-.182h-.067v.268h.048v-.2l.077.173h.048l.077-.173v.2Z" transform="translate(-351.571 -129.242)" fill="#f59e00"/>
      <path id="Trazado_1443" data-name="Trazado 1443" d="M276.517,33.672A6.874,6.874,0,0,1,265.4,39.077a6.876,6.876,0,0,0,0-10.81,6.874,6.874,0,0,1,11.117,5.405" transform="translate(-254.283 -26.8)" fill="#f59e00"/>
    </g>
  </g>
</svg>
