<svg xmlns="http://www.w3.org/2000/svg" width="146.14" height="90.286" viewBox="0 0 146.14 90.286">
  <g id="Grupo_3496" data-name="Grupo 3496" transform="translate(1495.013 -7430.795)">
    <g id="Grupo_3492" data-name="Grupo 3492" transform="translate(-1485.677 7515.903)">
      <g id="Grupo_3471" data-name="Grupo 3471">
        <path id="Trazado_2962" data-name="Trazado 2962" d="M194.873,189.01a1,1,0,0,1,.049.186.116.116,0,0,1-.028.1.233.233,0,0,1-.128.043c-.061.006-.147.009-.254.009s-.2,0-.263-.006a.72.72,0,0,1-.144-.018.152.152,0,0,1-.07-.04.252.252,0,0,1-.034-.07l-.287-.856h-1.6l-.269.832a.357.357,0,0,1-.034.076.138.138,0,0,1-.07.049.441.441,0,0,1-.135.024c-.058,0-.135.006-.229.006s-.18,0-.239-.009a.167.167,0,0,1-.119-.049.132.132,0,0,1-.024-.107,1.2,1.2,0,0,1,.049-.183l1.315-3.78a.322.322,0,0,1,.046-.092.161.161,0,0,1,.083-.052.645.645,0,0,1,.159-.021c.067,0,.159-.006.269-.006.128,0,.232,0,.309.006a1.084,1.084,0,0,1,.18.021.168.168,0,0,1,.092.055.416.416,0,0,1,.049.1Zm-1.957-3.125h0l-.6,1.81h1.208Z" transform="translate(-190.994 -184.989)" fill="#fff"/>
        <path id="Trazado_2963" data-name="Trazado 2963" d="M209.86,186.414a1.662,1.662,0,0,1-.113.636,1.211,1.211,0,0,1-.327.465,1.431,1.431,0,0,1-.526.287,2.4,2.4,0,0,1-.734.1h-.355v1.361a.081.081,0,0,1-.021.058.154.154,0,0,1-.07.043.8.8,0,0,1-.131.027,1.972,1.972,0,0,1-.211.009,1.949,1.949,0,0,1-.208-.009.606.606,0,0,1-.135-.027.154.154,0,0,1-.07-.043.1.1,0,0,1-.018-.058v-3.832a.314.314,0,0,1,.079-.232.294.294,0,0,1,.211-.076h1c.1,0,.2,0,.287.012s.2.024.327.049a1.455,1.455,0,0,1,.388.141,1.116,1.116,0,0,1,.333.257,1.088,1.088,0,0,1,.211.367A1.252,1.252,0,0,1,209.86,186.414Zm-.905.061a.78.78,0,0,0-.079-.37.53.53,0,0,0-.193-.214.662.662,0,0,0-.242-.089,1.84,1.84,0,0,0-.263-.018h-.37v1.446h.388a.969.969,0,0,0,.349-.055.588.588,0,0,0,.229-.156.688.688,0,0,0,.135-.242A.94.94,0,0,0,208.955,186.475Z" transform="translate(-202.064 -185.037)" fill="#fff"/>
        <path id="Trazado_2964" data-name="Trazado 2964" d="M221.133,189.01a1,1,0,0,1,.049.186.116.116,0,0,1-.028.1.233.233,0,0,1-.128.043c-.061.006-.147.009-.254.009s-.2,0-.263-.006a.721.721,0,0,1-.144-.018.153.153,0,0,1-.07-.04.253.253,0,0,1-.034-.07l-.287-.856h-1.6l-.269.832a.357.357,0,0,1-.034.076.138.138,0,0,1-.07.049.44.44,0,0,1-.135.024c-.058,0-.135.006-.229.006s-.18,0-.239-.009a.167.167,0,0,1-.119-.049.132.132,0,0,1-.024-.107A1.2,1.2,0,0,1,217.3,189l1.315-3.78a.321.321,0,0,1,.046-.092.161.161,0,0,1,.083-.052.645.645,0,0,1,.159-.021c.067,0,.159-.006.269-.006.128,0,.232,0,.309.006a1.083,1.083,0,0,1,.18.021.168.168,0,0,1,.092.055.416.416,0,0,1,.049.1Zm-1.954-3.125h0l-.6,1.81h1.208Z" transform="translate(-209.224 -184.989)" fill="#fff"/>
        <path id="Trazado_2965" data-name="Trazado 2965" d="M235.153,187.914a1.331,1.331,0,0,1-.125.59,1.206,1.206,0,0,1-.339.422,1.438,1.438,0,0,1-.5.254,2.083,2.083,0,0,1-.612.086,2.151,2.151,0,0,1-.41-.037,2.019,2.019,0,0,1-.333-.089,1.406,1.406,0,0,1-.242-.107.821.821,0,0,1-.141-.1.256.256,0,0,1-.061-.122,1.124,1.124,0,0,1-.018-.232c0-.067,0-.125.006-.171a.5.5,0,0,1,.021-.113.119.119,0,0,1,.04-.061.094.094,0,0,1,.058-.018.264.264,0,0,1,.128.055,1.865,1.865,0,0,0,.217.119,2.138,2.138,0,0,0,.315.119,1.472,1.472,0,0,0,.422.055,1.034,1.034,0,0,0,.284-.037.624.624,0,0,0,.211-.107.46.46,0,0,0,.135-.171.544.544,0,0,0,.046-.226.394.394,0,0,0-.08-.248.745.745,0,0,0-.2-.184,2.285,2.285,0,0,0-.287-.153c-.107-.046-.217-.1-.333-.15a2.932,2.932,0,0,1-.333-.18,1.285,1.285,0,0,1-.287-.242,1.1,1.1,0,0,1-.2-.33,1.348,1.348,0,0,1,.034-1,1.09,1.09,0,0,1,.306-.385,1.36,1.36,0,0,1,.456-.229,1.937,1.937,0,0,1,.553-.076,2.02,2.02,0,0,1,.3.024,2.432,2.432,0,0,1,.284.061,1.271,1.271,0,0,1,.232.089.587.587,0,0,1,.135.083.191.191,0,0,1,.043.055.235.235,0,0,1,.021.061.648.648,0,0,1,.012.095c0,.04,0,.086,0,.144a1.273,1.273,0,0,1-.006.162.865.865,0,0,1-.015.11.129.129,0,0,1-.034.064.074.074,0,0,1-.058.018.288.288,0,0,1-.116-.046q-.078-.046-.193-.1a1.568,1.568,0,0,0-.266-.1,1.143,1.143,0,0,0-.333-.043.851.851,0,0,0-.248.034.517.517,0,0,0-.177.095.332.332,0,0,0-.1.147.51.51,0,0,0-.034.18.389.389,0,0,0,.076.245.68.68,0,0,0,.208.183,2.183,2.183,0,0,0,.294.153c.11.046.223.1.336.15a3.261,3.261,0,0,1,.336.18,1.316,1.316,0,0,1,.294.242,1.065,1.065,0,0,1,.208.33A1.12,1.12,0,0,1,235.153,187.914Z" transform="translate(-219.717 -184.85)" fill="#fff"/>
        <path id="Trazado_2966" data-name="Trazado 2966" d="M245.829,189.212a.081.081,0,0,1-.021.058.154.154,0,0,1-.07.043.807.807,0,0,1-.132.027,1.975,1.975,0,0,1-.211.009,1.953,1.953,0,0,1-.208-.009.608.608,0,0,1-.135-.027.154.154,0,0,1-.07-.043.086.086,0,0,1-.021-.058v-4.024a.081.081,0,0,1,.021-.058.166.166,0,0,1,.073-.043.853.853,0,0,1,.135-.027,1.95,1.95,0,0,1,.208-.009,1.972,1.972,0,0,1,.211.009.573.573,0,0,1,.131.027.154.154,0,0,1,.07.043.086.086,0,0,1,.021.058v4.024Z" transform="translate(-228.457 -184.989)" fill="#fff"/>
        <path id="Trazado_2967" data-name="Trazado 2967" d="M255.55,187.012a3.116,3.116,0,0,1-.132.948,1.9,1.9,0,0,1-.391.709,1.671,1.671,0,0,1-.642.443,2.4,2.4,0,0,1-.887.153,2.581,2.581,0,0,1-.868-.132,1.529,1.529,0,0,1-.618-.4,1.689,1.689,0,0,1-.37-.679,3.411,3.411,0,0,1-.122-.975,3.021,3.021,0,0,1,.132-.93,1.9,1.9,0,0,1,.391-.7,1.692,1.692,0,0,1,.645-.443,2.358,2.358,0,0,1,.89-.156,2.594,2.594,0,0,1,.853.128,1.492,1.492,0,0,1,.618.394,1.753,1.753,0,0,1,.376.673A3.4,3.4,0,0,1,255.55,187.012Zm-.911.046a3.4,3.4,0,0,0-.052-.612,1.327,1.327,0,0,0-.18-.471.845.845,0,0,0-.336-.3,1.167,1.167,0,0,0-.526-.107,1.07,1.07,0,0,0-.532.119.968.968,0,0,0-.346.321,1.321,1.321,0,0,0-.187.471,2.8,2.8,0,0,0-.055.569,3.534,3.534,0,0,0,.052.627,1.421,1.421,0,0,0,.177.477.825.825,0,0,0,.336.3,1.182,1.182,0,0,0,.529.1,1.1,1.1,0,0,0,.535-.119.968.968,0,0,0,.346-.321,1.331,1.331,0,0,0,.187-.477A3.206,3.206,0,0,0,254.639,187.058Z" transform="translate(-233.011 -184.85)" fill="#fff"/>
        <path id="Trazado_2968" data-name="Trazado 2968" d="M271.891,189.049a.311.311,0,0,1-.028.135.26.26,0,0,1-.07.1.269.269,0,0,1-.1.058.424.424,0,0,1-.122.018h-.37a.75.75,0,0,1-.2-.024.429.429,0,0,1-.156-.083.7.7,0,0,1-.138-.165c-.043-.07-.095-.159-.15-.269l-1.061-1.991c-.061-.119-.125-.248-.186-.382s-.122-.269-.171-.4h-.006c.009.159.015.315.021.471s.006.318.006.486v2.229a.094.094,0,0,1-.018.058.134.134,0,0,1-.064.046.49.49,0,0,1-.119.028,1.65,1.65,0,0,1-.193.009,1.593,1.593,0,0,1-.19-.009.492.492,0,0,1-.119-.028.115.115,0,0,1-.058-.046.1.1,0,0,1-.015-.058V185.4a.287.287,0,0,1,.092-.232.33.33,0,0,1,.223-.076h.465a.845.845,0,0,1,.211.021.437.437,0,0,1,.153.07.5.5,0,0,1,.125.138,1.668,1.668,0,0,1,.122.217l.829,1.557c.049.095.095.187.144.278s.092.183.138.272.086.18.128.269.083.174.122.263h0c-.006-.153-.012-.315-.015-.48s-.006-.327-.006-.477v-2a.094.094,0,0,1,.018-.058.134.134,0,0,1,.064-.046.488.488,0,0,1,.122-.027,1.712,1.712,0,0,1,.2-.009,1.576,1.576,0,0,1,.187.009.4.4,0,0,1,.116.027.13.13,0,0,1,.058.046.1.1,0,0,1,.015.058Z" transform="translate(-244.716 -185.01)" fill="#fff"/>
        <path id="Trazado_2969" data-name="Trazado 2969" d="M286.833,189.01a1,1,0,0,1,.049.186.116.116,0,0,1-.027.1.233.233,0,0,1-.128.043c-.061.006-.147.009-.254.009s-.2,0-.263-.006a.72.72,0,0,1-.144-.018.152.152,0,0,1-.07-.04.251.251,0,0,1-.034-.07l-.287-.856h-1.6l-.269.832a.357.357,0,0,1-.034.076.138.138,0,0,1-.07.049.44.44,0,0,1-.135.024c-.058,0-.135.006-.229.006s-.18,0-.239-.009a.167.167,0,0,1-.119-.049.132.132,0,0,1-.024-.107A1.2,1.2,0,0,1,283,189l1.315-3.78a.322.322,0,0,1,.046-.092.162.162,0,0,1,.083-.052.644.644,0,0,1,.159-.021c.067,0,.159-.006.269-.006.128,0,.232,0,.309.006a1.083,1.083,0,0,1,.18.021.168.168,0,0,1,.092.055.415.415,0,0,1,.049.1Zm-1.957-3.125h0l-.6,1.81h1.208Z" transform="translate(-254.833 -184.989)" fill="#fff"/>
        <path id="Trazado_2970" data-name="Trazado 2970" d="M302.441,187.18a2.945,2.945,0,0,1-.153,1,1.657,1.657,0,0,1-.44.679,1.722,1.722,0,0,1-.7.385,3.4,3.4,0,0,1-.975.122h-1.018a.269.269,0,0,1-.184-.064.265.265,0,0,1-.073-.208v-3.715a.26.26,0,0,1,.073-.208.269.269,0,0,1,.184-.064h1.092a3.07,3.07,0,0,1,.966.135,1.762,1.762,0,0,1,.67.395,1.711,1.711,0,0,1,.413.648A2.511,2.511,0,0,1,302.441,187.18Zm-.9.031a2.2,2.2,0,0,0-.07-.563,1.192,1.192,0,0,0-.226-.453,1.035,1.035,0,0,0-.4-.3,1.654,1.654,0,0,0-.642-.107h-.437v2.9h.453a1.7,1.7,0,0,0,.6-.092,1,1,0,0,0,.407-.278,1.214,1.214,0,0,0,.245-.462A2.547,2.547,0,0,0,301.545,187.211Z" transform="translate(-265.903 -185.03)" fill="#fff"/>
        <path id="Trazado_2971" data-name="Trazado 2971" d="M317.49,187.012a3.114,3.114,0,0,1-.132.948,1.9,1.9,0,0,1-.391.709,1.671,1.671,0,0,1-.642.443,2.4,2.4,0,0,1-.887.153,2.581,2.581,0,0,1-.868-.132,1.529,1.529,0,0,1-.618-.4,1.689,1.689,0,0,1-.37-.679,3.413,3.413,0,0,1-.122-.975,3.021,3.021,0,0,1,.132-.93,1.9,1.9,0,0,1,.391-.7,1.692,1.692,0,0,1,.645-.443,2.359,2.359,0,0,1,.89-.156,2.594,2.594,0,0,1,.853.128,1.492,1.492,0,0,1,.618.394,1.753,1.753,0,0,1,.376.673A3.4,3.4,0,0,1,317.49,187.012Zm-.908.046a3.408,3.408,0,0,0-.052-.612,1.327,1.327,0,0,0-.18-.471.845.845,0,0,0-.336-.3,1.167,1.167,0,0,0-.526-.107,1.07,1.07,0,0,0-.532.119.968.968,0,0,0-.346.321,1.323,1.323,0,0,0-.187.471,2.8,2.8,0,0,0-.055.569,3.528,3.528,0,0,0,.052.627,1.421,1.421,0,0,0,.177.477.825.825,0,0,0,.336.3,1.182,1.182,0,0,0,.529.1,1.1,1.1,0,0,0,.535-.119.968.968,0,0,0,.346-.321,1.331,1.331,0,0,0,.187-.477A3.217,3.217,0,0,0,316.582,187.058Z" transform="translate(-276.01 -184.85)" fill="#fff"/>
        <path id="Trazado_2972" data-name="Trazado 2972" d="M332.263,187.914a1.331,1.331,0,0,1-.125.59,1.2,1.2,0,0,1-.339.422,1.438,1.438,0,0,1-.5.254,2.083,2.083,0,0,1-.612.086,2.152,2.152,0,0,1-.41-.037,2.019,2.019,0,0,1-.333-.089,1.409,1.409,0,0,1-.242-.107.823.823,0,0,1-.141-.1.256.256,0,0,1-.061-.122,1.125,1.125,0,0,1-.018-.232c0-.067,0-.125.006-.171a.5.5,0,0,1,.021-.113.119.119,0,0,1,.04-.061.094.094,0,0,1,.058-.018.264.264,0,0,1,.128.055,1.866,1.866,0,0,0,.217.119,2.136,2.136,0,0,0,.315.119,1.471,1.471,0,0,0,.422.055,1.033,1.033,0,0,0,.284-.037.624.624,0,0,0,.211-.107.46.46,0,0,0,.135-.171.545.545,0,0,0,.046-.226.394.394,0,0,0-.08-.248.745.745,0,0,0-.2-.184,2.281,2.281,0,0,0-.287-.153c-.107-.046-.217-.1-.333-.15a2.931,2.931,0,0,1-.333-.18,1.286,1.286,0,0,1-.287-.242,1.1,1.1,0,0,1-.2-.33,1.349,1.349,0,0,1,.034-1,1.089,1.089,0,0,1,.306-.385,1.359,1.359,0,0,1,.456-.229,1.937,1.937,0,0,1,.553-.076,2.02,2.02,0,0,1,.3.024,2.432,2.432,0,0,1,.284.061,1.273,1.273,0,0,1,.232.089.588.588,0,0,1,.135.083.191.191,0,0,1,.043.055.234.234,0,0,1,.021.061.658.658,0,0,1,.012.095c0,.04,0,.086,0,.144a1.283,1.283,0,0,1-.006.162.881.881,0,0,1-.015.11.129.129,0,0,1-.034.064.074.074,0,0,1-.058.018.288.288,0,0,1-.116-.046q-.078-.046-.193-.1a1.569,1.569,0,0,0-.266-.1,1.143,1.143,0,0,0-.333-.043.85.85,0,0,0-.248.034.517.517,0,0,0-.177.095.332.332,0,0,0-.1.147.511.511,0,0,0-.034.18.389.389,0,0,0,.076.245.68.68,0,0,0,.208.183,2.183,2.183,0,0,0,.294.153c.11.046.223.1.336.15a3.246,3.246,0,0,1,.336.18,1.318,1.318,0,0,1,.294.242,1.066,1.066,0,0,1,.208.33A1.12,1.12,0,0,1,332.263,187.914Z" transform="translate(-287.131 -184.85)" fill="#fff"/>
        <path id="Trazado_2973" data-name="Trazado 2973" d="M351.26,186.414a1.662,1.662,0,0,1-.113.636,1.21,1.21,0,0,1-.327.465,1.431,1.431,0,0,1-.526.287,2.4,2.4,0,0,1-.734.1h-.355v1.361a.081.081,0,0,1-.021.058.154.154,0,0,1-.07.043.806.806,0,0,1-.131.027,1.973,1.973,0,0,1-.211.009,1.949,1.949,0,0,1-.208-.009.607.607,0,0,1-.135-.027.154.154,0,0,1-.07-.043.1.1,0,0,1-.018-.058v-3.832a.314.314,0,0,1,.08-.232.294.294,0,0,1,.211-.076h1c.1,0,.2,0,.287.012s.2.024.327.049a1.456,1.456,0,0,1,.388.141,1.117,1.117,0,0,1,.333.257,1.089,1.089,0,0,1,.211.367A1.252,1.252,0,0,1,351.26,186.414Zm-.905.061a.78.78,0,0,0-.079-.37.531.531,0,0,0-.193-.214.662.662,0,0,0-.242-.089,1.84,1.84,0,0,0-.263-.018h-.37v1.446h.388a.969.969,0,0,0,.349-.055.588.588,0,0,0,.229-.156.688.688,0,0,0,.135-.242A.939.939,0,0,0,350.355,186.475Z" transform="translate(-300.224 -185.037)" fill="#fff"/>
        <path id="Trazado_2974" data-name="Trazado 2974" d="M364.77,187.012a3.116,3.116,0,0,1-.131.948,1.9,1.9,0,0,1-.391.709,1.671,1.671,0,0,1-.642.443,2.4,2.4,0,0,1-.887.153,2.581,2.581,0,0,1-.868-.132,1.529,1.529,0,0,1-.618-.4,1.689,1.689,0,0,1-.37-.679,3.411,3.411,0,0,1-.122-.975,3.023,3.023,0,0,1,.132-.93,1.9,1.9,0,0,1,.391-.7,1.692,1.692,0,0,1,.645-.443,2.359,2.359,0,0,1,.89-.156,2.594,2.594,0,0,1,.853.128,1.493,1.493,0,0,1,.618.394,1.753,1.753,0,0,1,.376.673A3.292,3.292,0,0,1,364.77,187.012Zm-.908.046a3.406,3.406,0,0,0-.052-.612,1.328,1.328,0,0,0-.18-.471.845.845,0,0,0-.336-.3,1.167,1.167,0,0,0-.526-.107,1.07,1.07,0,0,0-.532.119.968.968,0,0,0-.346.321,1.323,1.323,0,0,0-.186.471,2.806,2.806,0,0,0-.055.569,3.537,3.537,0,0,0,.052.627,1.422,1.422,0,0,0,.177.477.825.825,0,0,0,.336.3,1.182,1.182,0,0,0,.529.1,1.1,1.1,0,0,0,.535-.119.968.968,0,0,0,.346-.321,1.331,1.331,0,0,0,.187-.477A3.209,3.209,0,0,0,363.862,187.058Z" transform="translate(-308.832 -184.85)" fill="#fff"/>
        <path id="Trazado_2975" data-name="Trazado 2975" d="M380.762,189.267a.121.121,0,0,1-.012.061.106.106,0,0,1-.064.04.656.656,0,0,1-.144.024c-.061.006-.15.006-.26.006-.092,0-.165,0-.22-.006a.458.458,0,0,1-.131-.024.145.145,0,0,1-.067-.046.274.274,0,0,1-.034-.067l-.382-.951c-.046-.107-.092-.2-.135-.287a.838.838,0,0,0-.147-.208.6.6,0,0,0-.187-.128.613.613,0,0,0-.245-.043h-.269v1.624a.081.081,0,0,1-.021.058.154.154,0,0,1-.07.043.8.8,0,0,1-.132.028,1.975,1.975,0,0,1-.211.009,1.955,1.955,0,0,1-.208-.009.6.6,0,0,1-.135-.028.154.154,0,0,1-.07-.043.1.1,0,0,1-.018-.058v-3.868a.26.26,0,0,1,.073-.208.269.269,0,0,1,.183-.064h1.1c.113,0,.2,0,.275.006s.138.009.2.015a1.854,1.854,0,0,1,.462.125,1.088,1.088,0,0,1,.349.232.986.986,0,0,1,.22.339,1.215,1.215,0,0,1,.076.45,1.315,1.315,0,0,1-.055.391,1.018,1.018,0,0,1-.159.315,1.1,1.1,0,0,1-.26.242,1.49,1.49,0,0,1-.352.165.938.938,0,0,1,.18.113.98.98,0,0,1,.159.159,2,2,0,0,1,.141.214c.043.079.086.171.128.272l.358.841c.034.083.055.144.067.184A.491.491,0,0,1,380.762,189.267Zm-1.116-2.89a.62.62,0,0,0-.095-.355.518.518,0,0,0-.312-.2,1.472,1.472,0,0,0-.15-.028,2.269,2.269,0,0,0-.232-.009h-.388v1.208h.44a1.017,1.017,0,0,0,.321-.046.636.636,0,0,0,.229-.125.532.532,0,0,0,.138-.193A.638.638,0,0,0,379.646,186.377Z" transform="translate(-320.536 -185.037)" fill="#fff"/>
        <path id="Trazado_2976" data-name="Trazado 2976" d="M399.5,185.475a1.191,1.191,0,0,1-.009.162.422.422,0,0,1-.024.11.163.163,0,0,1-.04.061.085.085,0,0,1-.055.018H398.3v3.434a.081.081,0,0,1-.021.058.154.154,0,0,1-.07.043.786.786,0,0,1-.135.028,1.4,1.4,0,0,1-.208.009,1.955,1.955,0,0,1-.208-.009.607.607,0,0,1-.135-.028.153.153,0,0,1-.07-.043.086.086,0,0,1-.021-.058v-3.434h-1.067a.085.085,0,0,1-.055-.018.163.163,0,0,1-.04-.061.423.423,0,0,1-.024-.11,1.246,1.246,0,0,1-.009-.162,1.314,1.314,0,0,1,.009-.168.423.423,0,0,1,.024-.11.148.148,0,0,1,.04-.058.085.085,0,0,1,.055-.018h3a.092.092,0,0,1,.055.018.1.1,0,0,1,.04.058.6.6,0,0,1,.024.11A1.325,1.325,0,0,1,399.5,185.475Z" transform="translate(-333.476 -185.037)" fill="#fff"/>
        <path id="Trazado_2977" data-name="Trazado 2977" d="M413.313,187.751a1.932,1.932,0,0,1-.116.7,1.359,1.359,0,0,1-.339.523,1.487,1.487,0,0,1-.553.327,2.614,2.614,0,0,1-1.48.012,1.382,1.382,0,0,1-.541-.306,1.331,1.331,0,0,1-.336-.508,2.011,2.011,0,0,1-.116-.712V185.2a.094.094,0,0,1,.018-.058.139.139,0,0,1,.07-.043.856.856,0,0,1,.135-.028,1.406,1.406,0,0,1,.211-.009,1.964,1.964,0,0,1,.208.009.578.578,0,0,1,.131.028.154.154,0,0,1,.07.043.086.086,0,0,1,.021.058v2.517a1.365,1.365,0,0,0,.064.44.835.835,0,0,0,.18.309.737.737,0,0,0,.281.183,1.1,1.1,0,0,0,.731,0,.7.7,0,0,0,.272-.183.856.856,0,0,0,.174-.3,1.238,1.238,0,0,0,.061-.4V185.2a.094.094,0,0,1,.018-.058.139.139,0,0,1,.07-.043.787.787,0,0,1,.135-.028,1.4,1.4,0,0,1,.208-.009,1.859,1.859,0,0,1,.2.009.613.613,0,0,1,.132.028.154.154,0,0,1,.07.043.1.1,0,0,1,.018.058v2.553Z" transform="translate(-342.911 -184.996)" fill="#fff"/>
        <path id="Trazado_2978" data-name="Trazado 2978" d="M436.837,189.26a.1.1,0,0,1-.018.058.131.131,0,0,1-.064.043.7.7,0,0,1-.128.028,2.192,2.192,0,0,1-.4,0,.513.513,0,0,1-.125-.028.131.131,0,0,1-.064-.043.1.1,0,0,1-.018-.058v-3.468h-.006l-1.235,3.465a.181.181,0,0,1-.043.07.247.247,0,0,1-.08.046.466.466,0,0,1-.128.021c-.052,0-.116.006-.19.006a1.675,1.675,0,0,1-.19-.009.58.58,0,0,1-.128-.028.274.274,0,0,1-.08-.043.142.142,0,0,1-.04-.064l-1.193-3.465H432.7v3.468a.094.094,0,0,1-.018.058.128.128,0,0,1-.067.043.87.87,0,0,1-.125.028,1.77,1.77,0,0,1-.2.009,1.807,1.807,0,0,1-.2-.009.513.513,0,0,1-.125-.028.142.142,0,0,1-.067-.043.1.1,0,0,1-.018-.058v-3.795a.349.349,0,0,1,.089-.257.323.323,0,0,1,.239-.089h.566a1.273,1.273,0,0,1,.26.024.452.452,0,0,1,.187.083.447.447,0,0,1,.132.15,1.316,1.316,0,0,1,.092.232l.92,2.538h.012l.954-2.532a1.221,1.221,0,0,1,.095-.232.57.57,0,0,1,.119-.156.378.378,0,0,1,.159-.083.878.878,0,0,1,.214-.024h.584a.458.458,0,0,1,.153.024.246.246,0,0,1,.1.067.277.277,0,0,1,.061.11.438.438,0,0,1,.021.147v3.792Z" transform="translate(-358.218 -185.037)" fill="#fff"/>
        <path id="Trazado_2979" data-name="Trazado 2979" d="M455.033,189.01a1,1,0,0,1,.049.186.116.116,0,0,1-.028.1.233.233,0,0,1-.128.043c-.061.006-.147.009-.254.009s-.2,0-.263-.006a.721.721,0,0,1-.144-.018.152.152,0,0,1-.07-.04.25.25,0,0,1-.034-.07l-.288-.856h-1.6l-.269.832a.363.363,0,0,1-.034.076.138.138,0,0,1-.07.049.44.44,0,0,1-.135.024c-.058,0-.135.006-.229.006s-.18,0-.239-.009a.167.167,0,0,1-.119-.049.132.132,0,0,1-.024-.107A1.2,1.2,0,0,1,451.2,189l1.315-3.78a.322.322,0,0,1,.046-.092.161.161,0,0,1,.083-.052.644.644,0,0,1,.159-.021c.067,0,.159-.006.269-.006.128,0,.232,0,.309.006a1.082,1.082,0,0,1,.18.021.168.168,0,0,1,.092.055.419.419,0,0,1,.049.1Zm-1.957-3.125h0l-.6,1.81h1.208Z" transform="translate(-371.598 -184.989)" fill="#fff"/>
        <path id="Trazado_2980" data-name="Trazado 2980" d="M469.053,187.914a1.331,1.331,0,0,1-.125.59,1.206,1.206,0,0,1-.339.422,1.438,1.438,0,0,1-.5.254,2.083,2.083,0,0,1-.612.086,2.151,2.151,0,0,1-.41-.037,2.02,2.02,0,0,1-.333-.089,1.409,1.409,0,0,1-.242-.107.825.825,0,0,1-.141-.1.256.256,0,0,1-.061-.122,1.122,1.122,0,0,1-.018-.232c0-.067,0-.125.006-.171a.5.5,0,0,1,.021-.113.119.119,0,0,1,.04-.061.094.094,0,0,1,.058-.018.264.264,0,0,1,.128.055,1.866,1.866,0,0,0,.217.119,2.137,2.137,0,0,0,.315.119,1.471,1.471,0,0,0,.422.055,1.034,1.034,0,0,0,.284-.037.624.624,0,0,0,.211-.107.461.461,0,0,0,.135-.171.544.544,0,0,0,.046-.226.394.394,0,0,0-.079-.248.746.746,0,0,0-.2-.184,2.283,2.283,0,0,0-.287-.153c-.107-.046-.217-.1-.333-.15a2.926,2.926,0,0,1-.333-.18,1.286,1.286,0,0,1-.287-.242,1.1,1.1,0,0,1-.2-.33,1.348,1.348,0,0,1,.034-1,1.091,1.091,0,0,1,.306-.385,1.36,1.36,0,0,1,.456-.229,1.937,1.937,0,0,1,.553-.076,2.021,2.021,0,0,1,.3.024,2.432,2.432,0,0,1,.284.061,1.275,1.275,0,0,1,.232.089.589.589,0,0,1,.135.083.191.191,0,0,1,.043.055.233.233,0,0,1,.021.061.654.654,0,0,1,.012.095c0,.04,0,.086,0,.144a1.283,1.283,0,0,1-.006.162.864.864,0,0,1-.015.11.128.128,0,0,1-.034.064.074.074,0,0,1-.058.018.288.288,0,0,1-.116-.046q-.078-.046-.193-.1a1.57,1.57,0,0,0-.266-.1,1.143,1.143,0,0,0-.333-.043.85.85,0,0,0-.248.034.517.517,0,0,0-.177.095.332.332,0,0,0-.1.147.51.51,0,0,0-.034.18.389.389,0,0,0,.076.245.68.68,0,0,0,.208.183,2.182,2.182,0,0,0,.294.153c.11.046.223.1.336.15a3.258,3.258,0,0,1,.336.18,1.316,1.316,0,0,1,.294.242,1.066,1.066,0,0,1,.208.33A1.176,1.176,0,0,1,469.053,187.914Z" transform="translate(-382.091 -184.85)" fill="#fff"/>
        <path id="Trazado_2981" data-name="Trazado 2981" d="M481.333,188.582a.972.972,0,0,1-.006.141.717.717,0,0,1-.015.1.21.21,0,0,1-.028.07.4.4,0,0,1-.052.067.694.694,0,0,1-.141.1,1.685,1.685,0,0,1-.254.113,2.342,2.342,0,0,1-1.547-.006,1.531,1.531,0,0,1-.6-.4,1.834,1.834,0,0,1-.379-.67,3.345,3.345,0,0,1,.012-1.9,2.08,2.08,0,0,1,.4-.709,1.714,1.714,0,0,1,.624-.434,2.123,2.123,0,0,1,.8-.147,1.783,1.783,0,0,1,.342.031,2.127,2.127,0,0,1,.306.076,1.35,1.35,0,0,1,.251.11.732.732,0,0,1,.156.107.468.468,0,0,1,.061.073.312.312,0,0,1,.028.076.9.9,0,0,1,.015.107c0,.043.006.095.006.156s0,.122-.006.168a.364.364,0,0,1-.024.113.209.209,0,0,1-.04.064.083.083,0,0,1-.052.018.223.223,0,0,1-.125-.058c-.052-.04-.116-.079-.2-.128a1.709,1.709,0,0,0-.288-.128,1.184,1.184,0,0,0-.4-.058.95.95,0,0,0-.453.1,1.01,1.01,0,0,0-.339.3,1.324,1.324,0,0,0-.211.465,2.385,2.385,0,0,0-.073.615,2.412,2.412,0,0,0,.076.651,1.277,1.277,0,0,0,.22.453.885.885,0,0,0,.346.266,1.143,1.143,0,0,0,.456.089,1.273,1.273,0,0,0,.4-.055,1.849,1.849,0,0,0,.287-.119,2,2,0,0,0,.2-.119.23.23,0,0,1,.119-.052.087.087,0,0,1,.052.012.117.117,0,0,1,.034.052.434.434,0,0,1,.018.11C481.321,188.441,481.333,188.5,481.333,188.582Z" transform="translate(-390.359 -184.885)" fill="#fff"/>
        <path id="Trazado_2982" data-name="Trazado 2982" d="M495.061,187.012a3.116,3.116,0,0,1-.132.948,1.9,1.9,0,0,1-.391.709,1.671,1.671,0,0,1-.642.443,2.4,2.4,0,0,1-.887.153,2.581,2.581,0,0,1-.868-.132,1.53,1.53,0,0,1-.618-.4,1.689,1.689,0,0,1-.37-.679,3.411,3.411,0,0,1-.122-.975,3.023,3.023,0,0,1,.131-.93,1.9,1.9,0,0,1,.391-.7,1.692,1.692,0,0,1,.645-.443,2.358,2.358,0,0,1,.89-.156,2.593,2.593,0,0,1,.853.128,1.493,1.493,0,0,1,.618.394,1.753,1.753,0,0,1,.376.673A3.4,3.4,0,0,1,495.061,187.012Zm-.911.046a3.4,3.4,0,0,0-.052-.612,1.327,1.327,0,0,0-.18-.471.845.845,0,0,0-.336-.3,1.167,1.167,0,0,0-.526-.107,1.07,1.07,0,0,0-.532.119.967.967,0,0,0-.346.321,1.321,1.321,0,0,0-.187.471,2.808,2.808,0,0,0-.055.569,3.537,3.537,0,0,0,.052.627,1.422,1.422,0,0,0,.177.477.826.826,0,0,0,.336.3,1.182,1.182,0,0,0,.529.1,1.1,1.1,0,0,0,.535-.119.969.969,0,0,0,.346-.321,1.332,1.332,0,0,0,.186-.477A3.206,3.206,0,0,0,494.149,187.058Z" transform="translate(-399.28 -184.85)" fill="#fff"/>
        <path id="Trazado_2983" data-name="Trazado 2983" d="M509.29,185.475a1.187,1.187,0,0,1-.009.162.423.423,0,0,1-.024.11.162.162,0,0,1-.04.061.085.085,0,0,1-.055.018h-1.067v3.434a.081.081,0,0,1-.021.058.154.154,0,0,1-.07.043.787.787,0,0,1-.135.028,1.4,1.4,0,0,1-.208.009,1.953,1.953,0,0,1-.208-.009.607.607,0,0,1-.135-.028.154.154,0,0,1-.07-.043.086.086,0,0,1-.021-.058v-3.434h-1.067a.085.085,0,0,1-.055-.018.163.163,0,0,1-.04-.061.423.423,0,0,1-.024-.11,1.257,1.257,0,0,1-.009-.162,1.325,1.325,0,0,1,.009-.168.423.423,0,0,1,.024-.11.148.148,0,0,1,.04-.058.085.085,0,0,1,.055-.018h3a.092.092,0,0,1,.055.018.1.1,0,0,1,.04.058.6.6,0,0,1,.024.11A1.32,1.32,0,0,1,509.29,185.475Z" transform="translate(-409.693 -185.037)" fill="#fff"/>
        <path id="Trazado_2984" data-name="Trazado 2984" d="M520.553,189.01a1,1,0,0,1,.049.186.116.116,0,0,1-.028.1.233.233,0,0,1-.128.043c-.061.006-.147.009-.254.009s-.2,0-.263-.006a.722.722,0,0,1-.144-.018.153.153,0,0,1-.07-.04.252.252,0,0,1-.034-.07l-.287-.856h-1.6l-.269.832a.364.364,0,0,1-.034.076.137.137,0,0,1-.07.049.441.441,0,0,1-.135.024c-.058,0-.135.006-.229.006s-.18,0-.239-.009a.167.167,0,0,1-.119-.049.132.132,0,0,1-.024-.107,1.19,1.19,0,0,1,.049-.183l1.315-3.78a.322.322,0,0,1,.046-.092.161.161,0,0,1,.083-.052.644.644,0,0,1,.159-.021c.067,0,.159-.006.269-.006.128,0,.232,0,.309.006a1.084,1.084,0,0,1,.18.021.168.168,0,0,1,.092.055.412.412,0,0,1,.049.1Zm-1.957-3.125h0l-.6,1.81H519.2Z" transform="translate(-417.082 -184.989)" fill="#fff"/>
      </g>
    </g>
    <g id="Grupo_3493" data-name="Grupo 3493" transform="translate(-1495.013 7484.382)">
      <path id="Trazado_2985" data-name="Trazado 2985" d="M180.684,91.861q.376-1.674.712-3.361c.2-.8.349-1.425.453-1.9s.162-.786.18-.927c.055-.385.11-.709.171-.982s.11-.471.153-.6a7.812,7.812,0,0,0,.229-.755c-.006-.239-.012-.465-.015-.682.064-.138.144-.324.239-.578a.31.31,0,0,0-.031-.232c-.037-.049-.113-.073-.235-.073H182.4a4.992,4.992,0,0,0-1.024.78,5.272,5.272,0,0,0-.85,1.128c-.116.214-.26.529-.437.939s-.37.933-.584,1.56q-.385,1.078-.8,2.208c-.037.278-.064.691-.083,1.235a11.232,11.232,0,0,1-.076,1.235,3.915,3.915,0,0,1-.107.526c-.052.2-.122.437-.2.713s-.15.523-.217.737a3.448,3.448,0,0,0-.135.5c-.217,1.186-.407,2.128-.563,2.823s-.272,1.153-.342,1.37c-.119.33-.26.737-.428,1.2s-.349,1.015-.55,1.639c-.15.407-.3.774-.456,1.095a4.792,4.792,0,0,0-.238.633,3.378,3.378,0,0,0-.107.468,2.219,2.219,0,0,1-.168.657.323.323,0,0,1-.294.208c-.141,0-.321-.251-.544-.755a20.111,20.111,0,0,1-.786-2.3c-.3-.982-.578-2.012-.826-3.089s-.48-2.183-.679-3.333c-.257-1.043-.511-2.046-.768-3q-.271-1.064-.388-1.774a3.809,3.809,0,0,1-.067-1.07,1.744,1.744,0,0,1,.229-.621,8.773,8.773,0,0,1,.526-.749c.043-.128.116-.321.223-.56s.242-.541.422-.9c.165-.336.3-.6.379-.8a1.666,1.666,0,0,0,.144-.385.594.594,0,0,0-.009-.251.382.382,0,0,0-.15-.159,4.715,4.715,0,0,1-.471-.232,1.481,1.481,0,0,0-.5.254,4.486,4.486,0,0,0-.511.465c-.211.239-.391.437-.532.578a2.916,2.916,0,0,1-.361.306,1.29,1.29,0,0,1-.333-.287c-.162-.165-.291-.251-.4-.251a2.673,2.673,0,0,0-.489.073,3.08,3.08,0,0,1-.508.067,1.675,1.675,0,0,0-.7.135.9.9,0,0,0-.419.388c-.1.239-.2.486-.3.731s-.208.492-.312.731l.132,1.165c-.544,1.884-1.1,3.749-1.654,5.608-.541,1.9-.975,3.37-1.3,4.431s-.532,1.712-.627,1.951c-.125.315-.229.584-.318.826s-.15.422-.2.581c-.15.609-.291,1.15-.416,1.615s-.229.847-.315,1.135c-.037.1-.122.321-.245.676s-.3.841-.511,1.468c-.2.55-.352,1.006-.456,1.364a6.047,6.047,0,0,0-.2.792,1.835,1.835,0,0,0,0,.657c.034.153.119.214.245.19a1.522,1.522,0,0,0,.379-.153.563.563,0,0,0,.168-.156.927.927,0,0,0,.6-.229,1.2,1.2,0,0,0,.342-.618c.257-.541.471-1,.648-1.394s.33-.725.446-.994c.11-.349.211-.706.309-1.061l.4-.593c.147-.361.278-.706.391-1.043s.239-.657.352-.972c.382-.933.752-1.81,1.092-2.627s.642-1.572.911-2.266a8.136,8.136,0,0,0,.5-.865c.174-.5.33-.933.465-1.294a8.346,8.346,0,0,1,.373-.9l.132-.058c.141.278.26.541.355.786a4.83,4.83,0,0,1,.214.761c.333,1.067.633,1.988.89,2.771s.477,1.434.642,1.963c.034.214.064.4.089.569s.04.309.049.416a6.829,6.829,0,0,0,.352,1.287c.2.569.477,1.294.823,2.165a12.487,12.487,0,0,0,.985,2.165c.294.474.529.713.713.713a9.662,9.662,0,0,0,1.257-.388,6.932,6.932,0,0,0,1.19-.459l.682-.9c.352-.755.657-1.462.9-2.107a13.6,13.6,0,0,0,.569-1.761,26.8,26.8,0,0,0,1.055-2.975c.327-1.113.636-2.339.908-3.676.251-1.122.508-2.238.761-3.352" transform="translate(-160.471 -81.77)" fill="#fff"/>
      <path id="Trazado_2986" data-name="Trazado 2986" d="M298.851,83.51a2.076,2.076,0,0,0-1.275.719,15.551,15.551,0,0,0-1.786,2.144c-.523.716-.988,1.416-1.416,2.1a16.4,16.4,0,0,0-1.076,1.966c-.217.367-.416.7-.584.994a6.6,6.6,0,0,1-.48.731c-.508,1.116-.963,2.15-1.376,3.1s-.752,1.835-1.009,2.633l.055.342a5.273,5.273,0,0,0-.443,1.168,10.552,10.552,0,0,0-.346,1.388,2.154,2.154,0,0,1,0,.379,2.217,2.217,0,0,1-.043.245.228.228,0,0,1-.1.147l-1.321,1.04a4.887,4.887,0,0,0-.5.566,3.409,3.409,0,0,1-.385.44l.012.04a2.233,2.233,0,0,1-.291.217c-.095.058-.171.1-.223.128-.1.1-.19.19-.284.287s-.183.2-.281.306a2.477,2.477,0,0,1-.352.232.636.636,0,0,1-.324.092.874.874,0,0,1-.81-.459,1.474,1.474,0,0,1-.171-1.034c.07-.55.156-1.128.263-1.731a1.737,1.737,0,0,0-.11-.89.556.556,0,0,0-.538-.294,2.759,2.759,0,0,0-1.391.477,9.256,9.256,0,0,0-1.749,1.462c-.113.073-.22.131-.306.183s-.183.092-.269.141c-.119.073-.324.226-.618.459s-.661.535-1.113.908a12.382,12.382,0,0,1-1.061.81,3.721,3.721,0,0,1-.887.431l-.107-.159c.419-.5.755-.89,1.006-1.193s.437-.489.526-.578c.755-.584,1.358-1.086,1.82-1.511a5.257,5.257,0,0,0,.917-1.024,8.563,8.563,0,0,0,.734-.541c.193-.153.318-.266.385-.318.1-.125.22-.26.364-.419a10.239,10.239,0,0,0,1.083-.835,10.565,10.565,0,0,0,.807-.8c.382-.263.743-.5,1.07-.716a1.4,1.4,0,0,0,.486-.5,1.611,1.611,0,0,0,.223-.661.642.642,0,0,0-.144-.557.929.929,0,0,0-.667-.2,4.662,4.662,0,0,0-2.18.771A23.8,23.8,0,0,0,279.4,98.47a6.562,6.562,0,0,1-.737.547c-.223.141-.407.245-.547.318-.306.242-.563.45-.765.624s-.364.333-.48.45a3.225,3.225,0,0,0-.511.287,1.512,1.512,0,0,0-.391.4,3.153,3.153,0,0,1-.346.437,2.6,2.6,0,0,1-.248.245l-1.777,1.076-.382.514a2.125,2.125,0,0,1-.248.275.028.028,0,0,1,0,.015,3.812,3.812,0,0,1-.489.3,11.163,11.163,0,0,0-1.291,1.04,6.258,6.258,0,0,1-.777.563,1.25,1.25,0,0,1-.584.208.229.229,0,0,1-.165-.055.161.161,0,0,1-.04-.147,6.416,6.416,0,0,1,.832-2.018,6.834,6.834,0,0,0,.835-2.064,6.336,6.336,0,0,0-.049-2.321,2.777,2.777,0,0,0-.878-1.492,2,2,0,0,0-.263-.2c-.229-.266-.465-.517-.716-.755a1.355,1.355,0,0,0-.982-.361,3.442,3.442,0,0,0-1.587.612,4.075,4.075,0,0,0-1.3,1.061l.061.859a9.41,9.41,0,0,1-1.459,1.862,20.073,20.073,0,0,1-2.431,2.082c-.226.263-.44.517-.654.758l-.015-.052c-.141.049-.275.089-.416.128a1.375,1.375,0,0,1-.346.055.716.716,0,0,1-.679-.33,1.641,1.641,0,0,1-.1-1,2.85,2.85,0,0,0-.006-.557,2.544,2.544,0,0,1,0-.578,7.711,7.711,0,0,0,.073-.81,1.593,1.593,0,0,0-.037-.428.578.578,0,0,0-.336-.349,1.8,1.8,0,0,0-.728-.119,1.508,1.508,0,0,0-1,.422,4.631,4.631,0,0,0-.942,1.281,4.868,4.868,0,0,1-.367.4c-.128.128-.242.245-.336.336-.272.324-.538.657-.8.988-.443.462-.823.853-1.138,1.193s-.6.615-.844.838c-.257.138-.483.254-.679.352s-.352.19-.483.263c-.125.037-.193-.11-.22-.428a7.881,7.881,0,0,1,.1-1.492,8.27,8.27,0,0,1,.26-1.19q.188-.642.468-1.419c.177-.413.358-.823.547-1.242s.361-.841.508-1.26a7.86,7.86,0,0,0,.385-.743c.073-.153.135-.294.19-.428a1.232,1.232,0,0,0,.095-.309.667.667,0,0,0-.08-.489.434.434,0,0,0-.388-.171,2.314,2.314,0,0,0-.56.141c-.275.095-.67.257-1.184.489-.336.37-.66.749-.969,1.144s-.627.761-.939,1.125c-.37.355-.725.716-1.055,1.073s-.651.725-.963,1.079q-.564.592-1.009,1.034a6.9,6.9,0,0,1-.789.688.377.377,0,0,1-.067.183.742.742,0,0,1-.131.125.056.056,0,0,0,.006.021c-.881.67-1.566,1.177-2.064,1.523a3.613,3.613,0,0,1-.85.523.259.259,0,0,1-.251-.147.739.739,0,0,1-.034-.431,10.331,10.331,0,0,1,.324-1.257c.186-.621.446-1.437.774-2.443q.72-1.89,1.287-3.272t.991-2.284c.092-.226.168-.428.229-.6s.1-.318.144-.443l1.26-.251c.144-.012.275-.208.395-.6a11.171,11.171,0,0,0,.324-1.664,1.7,1.7,0,0,0,.015-.422.345.345,0,0,0-.119-.242,1.14,1.14,0,0,1-.165-.19.887.887,0,0,1-.076-.153,5.534,5.534,0,0,1,.413-1.012,3.635,3.635,0,0,0,.391-1.086,1.064,1.064,0,0,0-.125-.792.727.727,0,0,0-.624-.269c-.538,0-1.128.566-1.752,1.688s-1.15,1.712-1.581,1.764l-.566-.177c-.19.037-.361.064-.511.095s-.309.061-.471.1a2.547,2.547,0,0,0-.511-.092,7.664,7.664,0,0,0-.816-.037c-.165.037-.336.076-.517.113a7.28,7.28,0,0,0-.771-.116,9.034,9.034,0,0,0-.942-.043.945.945,0,0,0-.826.605,5.351,5.351,0,0,0-.483,1.764.331.331,0,0,0,.079.281.772.772,0,0,0,.306.19c.092.043.183.092.281.128s.2.1.312.153c.092,0,.251.006.468.018s.379.018.477.018h2.248a1.6,1.6,0,0,0,.376-.061,1.51,1.51,0,0,1,.358-.061.217.217,0,0,1,.177.055.179.179,0,0,1,.034.159c-.19.33-.355.6-.508.81s-.278.385-.394.523a43.746,43.746,0,0,1-2.911,3.783,25.1,25.1,0,0,1-2.868,2.829c-.186.193-.342.361-.474.5s-.242.263-.324.364l-.095.141.015.015a2.053,2.053,0,0,1-.272.2,1.824,1.824,0,0,1-.217.128c-.1.1-.193.193-.287.291s-.187.2-.281.306a2.372,2.372,0,0,1-.349.232.655.655,0,0,1-.327.092.875.875,0,0,1-.81-.462,1.492,1.492,0,0,1-.174-1.027c.076-.553.159-1.131.266-1.731a1.7,1.7,0,0,0-.113-.89.554.554,0,0,0-.535-.3,2.785,2.785,0,0,0-1.394.48,8.933,8.933,0,0,0-1.746,1.462c-.116.073-.223.135-.309.183s-.183.092-.269.141a7.645,7.645,0,0,0-.615.459q-.436.349-1.116.908a11.927,11.927,0,0,1-1.061.81,3.736,3.736,0,0,1-.89.431l-.107-.159c.416-.5.752-.89,1.006-1.19s.434-.492.526-.578c.752-.581,1.355-1.086,1.816-1.511a5.168,5.168,0,0,0,.917-1.027,7.691,7.691,0,0,0,.737-.538c.19-.156.318-.266.385-.321.1-.122.22-.257.364-.416a11.012,11.012,0,0,0,1.083-.835,11.141,11.141,0,0,0,.807-.8q.578-.394,1.073-.716a1.475,1.475,0,0,0,.483-.489,1.66,1.66,0,0,0,.226-.664.637.637,0,0,0-.144-.56.943.943,0,0,0-.667-.2,4.631,4.631,0,0,0-2.177.774,23.74,23.74,0,0,0-3.186,2.318,5.9,5.9,0,0,1-.737.544c-.22.144-.41.248-.547.321-.309.239-.563.446-.764.624a6.212,6.212,0,0,0-.477.45,3.409,3.409,0,0,0-.514.287,1.611,1.611,0,0,0-.391.4,2.937,2.937,0,0,1-.346.437,3.012,3.012,0,0,1-.248.245l-1.78,1.073c-.147.2-.275.376-.382.517a2.206,2.206,0,0,1-.248.278c.083.235.147.465.2.676s.116.4.168.569c.031.089.064.162.089.223a.449.449,0,0,1,.015.19,3.142,3.142,0,0,1-.089.379,3.48,3.48,0,0,0-.734.856,2.391,2.391,0,0,0-.336.927,1.626,1.626,0,0,0,.235,1.3,1.53,1.53,0,0,0,1.22.422,1.179,1.179,0,0,0,.413-.113c.19-.079.419-.183.688-.315.428-.214.813-.428,1.159-.633a8.839,8.839,0,0,0,.917-.605c.141-.122.367-.318.694-.6s.722-.63,1.2-1.058c.343-.254.648-.468.905-.648s.474-.33.645-.453c.113-.1.2-.19.287-.257s.159-.128.223-.19a.855.855,0,0,1,.144.349,1.493,1.493,0,0,1,0,.33,2.855,2.855,0,0,0,.462,2.018,2.07,2.07,0,0,0,1.709.664,2.809,2.809,0,0,0,1.037-.208,5.475,5.475,0,0,0,1.128-.621c.327-.239.651-.5.957-.768s.612-.526.924-.777c.147-.18.272-.333.385-.45s.19-.211.235-.272c.713-.6,1.419-1.2,2.107-1.78q.665-.523,1.159-1a8.24,8.24,0,0,0,.826-.911l.193-.1c.086.046.125.1.119.162-.184.324-.367.633-.532.914-.15.474-.294.939-.425,1.407-.086.275-.165.517-.226.716a3.1,3.1,0,0,0-.119.486,1.317,1.317,0,0,1-.138.251,5.87,5.87,0,0,0-.4,1.235c-.119.511-.223,1.11-.318,1.807a2.042,2.042,0,0,0,.193,1.422,1.254,1.254,0,0,0,1.116.468,1.878,1.878,0,0,0,.8-.208,3.637,3.637,0,0,0,.939-.676c.245-.226.492-.459.734-.7s.486-.48.734-.716c.242-.214.468-.407.673-.569s.367-.312.508-.44c.327-.2.615-.4.85-.578s.428-.339.569-.465l0-.015c.159-.171.291-.321.391-.446a2.552,2.552,0,0,0,.22-.312l1.168-1.055.116-.055c.083,0,.135.092.147.269a4.345,4.345,0,0,1-.009.792,2.889,2.889,0,0,0-.067.624c-.009.349,0,.835.024,1.462a2.147,2.147,0,0,0,.447,1.462,1.591,1.591,0,0,0,1.266.5,2.935,2.935,0,0,0,1.245-.33,5.268,5.268,0,0,0,1.4-1.07c.388-.373.774-.749,1.15-1.128s.749-.761,1.128-1.159c.174-.168.346-.333.511-.5s.3-.306.428-.428a3,3,0,0,1,.235.428,1.324,1.324,0,0,1,.095.437,2.261,2.261,0,0,0,.661,1.379,2,2,0,0,0,1.41.465,2.991,2.991,0,0,0,1.076-.33c.492-.217,1.116-.538,1.881-.966a.434.434,0,0,1,.015.067,1.809,1.809,0,0,0,.275-.324c.064-.1.11-.171.141-.22a8.93,8.93,0,0,0,1.052-.737,4,4,0,0,0,.605-.609,4.186,4.186,0,0,0,.755-.557c.312-.278.673-.636,1.083-1.064a9.132,9.132,0,0,1,1.086-.988,6.761,6.761,0,0,1,.945-.615.947.947,0,0,1,.81.578,2.7,2.7,0,0,1,.1,1.456,9.227,9.227,0,0,1-.443,1.749,19.642,19.642,0,0,1-.887,2.1,4.648,4.648,0,0,1-.281.5c-.107.159-.208.318-.3.48a4.989,4.989,0,0,0-.3.566,1.61,1.61,0,0,0-.144.462.662.662,0,0,0,.278.722,2.021,2.021,0,0,0,1.1.229,3.6,3.6,0,0,0,.881-.382c.982-.547,1.835-1.037,2.541-1.462s1.294-.792,1.737-1.092c.217-.165.4-.315.557-.45l.346-.287a2.8,2.8,0,0,1-.083.342,3.673,3.673,0,0,0-.737.853,2.349,2.349,0,0,0-.33.927,1.647,1.647,0,0,0,.232,1.3,1.54,1.54,0,0,0,1.22.422,1.251,1.251,0,0,0,.416-.116c.186-.08.416-.183.685-.315.428-.214.813-.428,1.159-.633a8.9,8.9,0,0,0,.92-.605c.141-.122.367-.321.694-.6s.725-.633,1.2-1.061c.339-.251.645-.465.905-.642s.474-.33.645-.456c.11-.1.2-.193.284-.26s.162-.128.223-.19a.872.872,0,0,1,.144.349,1.2,1.2,0,0,1,0,.33,2.87,2.87,0,0,0,.465,2.018,2.07,2.07,0,0,0,1.709.664,2.806,2.806,0,0,0,1.034-.208,5.543,5.543,0,0,0,1.128-.621c.324-.242.648-.5.957-.768s.609-.529.92-.78a3.73,3.73,0,0,0-.079-.382l.1.342c.336-.278.621-.523.868-.737s.44-.407.621-.56a.87.87,0,0,1,.18.287,1.1,1.1,0,0,1,.067.287,4.692,4.692,0,0,0,.59,2.431,1.784,1.784,0,0,0,1.556.8c.2,0,.5.024.893.067a7.891,7.891,0,0,0,.868.064,3.1,3.1,0,0,0,1.168-.248,5.324,5.324,0,0,0,1.223-.706q.541-.413,1.07-.847c.346-.287.7-.572,1.049-.844l-.477-1.657c-.309.239-.584.45-.82.621s-.45.312-.615.41c-.553.177-.982.315-1.293.391a3.744,3.744,0,0,1-.557.131,2.151,2.151,0,0,1-1.954-.89,3.879,3.879,0,0,1-.339-2.633c.474-.6.945-1.226,1.4-1.893.333-.4.624-.761.881-1.061s.465-.553.621-.755c.141-.226.269-.428.373-.605s.208-.33.3-.456c.2-.263.373-.477.52-.642a4.675,4.675,0,0,0,.352-.468c.177-.278.327-.514.434-.719a3.939,3.939,0,0,0,.257-.541c.156-.214.306-.41.446-.584s.248-.324.339-.443c.239-.468.459-.9.639-1.294s.339-.746.465-1.046c.2-.339.37-.624.492-.862s.232-.443.306-.612l.012-.251a1.159,1.159,0,0,0,.128-.291,3.321,3.321,0,0,1,.342-1.027,3.243,3.243,0,0,0,.312-.865,6.438,6.438,0,0,1,.22-.908,6.031,6.031,0,0,0,.217-.89,2.043,2.043,0,0,0-.183-1.517,1.89,1.89,0,0,0-1.4-.4m-1.865,6.679a5.351,5.351,0,0,0-.2.713,14.109,14.109,0,0,1-.963,2.089,13.849,13.849,0,0,1-1.19,2.034c-.284.391-.535.737-.752,1.024a7.266,7.266,0,0,0-.514.755,8.81,8.81,0,0,1-.661.9.91.91,0,0,1-.443.324l-.083-.147a3.929,3.929,0,0,1,.3-.9c.174-.416.428-.963.743-1.639.263-.443.514-.847.758-1.22.2-.315.346-.563.453-.761a1.715,1.715,0,0,0,.174-.425,3.77,3.77,0,0,1,.734-1.67,11.141,11.141,0,0,1,1.768-1.835l.116.067c-.073.229-.156.456-.242.688" transform="translate(-202.908 -82.978)" fill="#fff"/>
      <path id="Trazado_2987" data-name="Trazado 2987" d="M541.035,103.564c-.079-.275-.177-.59-.284-.939a2.569,2.569,0,0,1-.434.263c-.141.067-.245.119-.306.153a6.077,6.077,0,0,1-1.089.428,5.535,5.535,0,0,1-1.306.232,4.973,4.973,0,0,1-.725-.2,1.285,1.285,0,0,1-.425-.214.759.759,0,0,1-.324-.434,1.474,1.474,0,0,1-.046-.667,1.039,1.039,0,0,1,.138-.4,1.589,1.589,0,0,1,.26-.315,32.374,32.374,0,0,0,2.722-2.59,7.544,7.544,0,0,0,1.4-1.994l.242-.578c.125-.287.214-.5.275-.627q.06-.142.073-.128c-.012-.275-.018-.526-.015-.755a4.967,4.967,0,0,0-.132-.7,1.339,1.339,0,0,0-.19-.437.774.774,0,0,0-.416-.3,2.272,2.272,0,0,0-.715-.092,3.128,3.128,0,0,0-.6.055,4.566,4.566,0,0,0-.5.122c-.171.122-.346.229-.511.324a4.478,4.478,0,0,0-.471.309c-.321.339-.639.67-.963.994s-.624.639-.911.908c-.37.5-.667.939-.911,1.33s-.431.722-.569.988-.251.511-.364.743-.19.422-.254.587c-.043.239-.1.48-.162.713s-.138.474-.2.713a8,8,0,0,0-.969.8,6,6,0,0,0-.66.761c0,.006,0,.009.006.015a12.237,12.237,0,0,0-1.07,1.281,9.049,9.049,0,0,0-.847,1.4c-.046.067-.171.376-.391.908s-.535,1.275-.966,2.242a3.106,3.106,0,0,1-.312.645c-.116.171-.2.306-.266.416l.006.355c-.765,1.477-1.367,2.584-1.826,3.321s-.758,1.107-.926,1.107c-.073,0-.116-.1-.132-.3a6.924,6.924,0,0,1,0-.853c.006-.312.021-.612.052-.9.1-.755.263-1.645.48-2.67s.511-2.193.853-3.5c.352-1.385.7-2.59,1.034-3.608s.654-1.865.96-2.541c.171-.284.321-.529.447-.722a2,2,0,0,1,.339-.41,3.831,3.831,0,0,0,.232-.462c.061-.135.113-.245.162-.33.288-.465.532-.872.737-1.2s.373-.615.523-.829q1.092-2.353,1.853-4.144c.508-1.2.908-2.19,1.217-3,.41-1.621.624-2.48.636-2.572.058-.422.089-.761.107-1.024a4.744,4.744,0,0,0,.012-.56.748.748,0,0,0-.3-.6,1.209,1.209,0,0,0-.731-.187,1.934,1.934,0,0,0-1.266.6,7.208,7.208,0,0,0-1.324,1.792q-1.835,3.4-3.137,6.345a39.708,39.708,0,0,0-2,5.52,9.231,9.231,0,0,1-.388,1.046,5.859,5.859,0,0,1-.529.969c-.11.174-.284.407-.511.713s-.523.67-.869,1.086c-.122.144-.239.266-.324.37a2.154,2.154,0,0,0-.229.278.011.011,0,0,1,0,.009c-.205.15-.419.309-.633.471s-.431.318-.636.471a2.766,2.766,0,0,1-.752.4,2.076,2.076,0,0,1-.676.119,1.024,1.024,0,0,1-.446-.08.479.479,0,0,1-.235-.26,3.231,3.231,0,0,1-.159-.835c-.052-.486-.1-.847-.153-1.086,0-.385-.009-.761-.028-1.141s-.049-.749-.086-1.122a1.288,1.288,0,0,0-.449-.945,1.558,1.558,0,0,0-1.012-.312,1.133,1.133,0,0,0-.489.122,1.463,1.463,0,0,0-.468.416,13.88,13.88,0,0,1-1.92,1.734,14.815,14.815,0,0,0-1.945,1.731l-.073.183-.073.067a.516.516,0,0,0-.021-.064,2.162,2.162,0,0,1-.349.312,3.833,3.833,0,0,1-.449.3,2.744,2.744,0,0,1-.391.465c-.1.037-.2.073-.291.11a1.252,1.252,0,0,1-.294.073,17.832,17.832,0,0,1-2.517.737,11.043,11.043,0,0,1-2.324.251c-.174,0-.281-.1-.339-.321a2.533,2.533,0,0,1,0-.917,15.066,15.066,0,0,1,.462-1.936c.26-.859.605-1.942,1.061-3.248.1-.324.19-.6.248-.841s.125-.456.171-.633c.025-.058.1-.226.217-.5s.272-.664.477-1.174c.165-.367.3-.688.4-.957a3.494,3.494,0,0,0,.174-.657,6.623,6.623,0,0,1,.621-1.737,6.89,6.89,0,0,0,.642-1.9,7.7,7.7,0,0,1,.193-.8c.1-.376.242-.847.395-1.413.153-.2.266-.373.361-.52.064-.2.122-.422.18-.664s.11-.5.162-.792c.037-.107.092-.254.159-.431s.138-.4.22-.648a4.253,4.253,0,0,0,.223-.639,4.97,4.97,0,0,0,.089-.489,1.685,1.685,0,0,0-.089-1.018.688.688,0,0,0-.664-.33,1.522,1.522,0,0,0-.352.061,4.861,4.861,0,0,0-.6.19,3.67,3.67,0,0,0-.719.407,1.972,1.972,0,0,0-.486.511c-.125.245-.248.468-.355.676s-.245.434-.379.676c-.284.489-.532.933-.737,1.315a10.4,10.4,0,0,0-.474.969c-.113.385-.239.777-.382,1.19s-.284.81-.425,1.2c-.132.336-.257.679-.391,1.027s-.263.706-.413,1.055a10.689,10.689,0,0,0-.413,1.186,8.658,8.658,0,0,0-.2.969.434.434,0,0,0,.2.462.469.469,0,0,1,.193.5,16.668,16.668,0,0,1-.688,2.489,16.917,16.917,0,0,0-.657,2.29,2.207,2.207,0,0,0-.015.37,1.665,1.665,0,0,1-.012.349,12.8,12.8,0,0,1-.764,2.3,12.4,12.4,0,0,0-.789,2.523,11.478,11.478,0,0,0-.135,1.725c.015.394.086.633.217.722.1.061.245.15.437.269.086.061.174.125.266.2s.19.147.287.214a.738.738,0,0,0,.291.1,2.653,2.653,0,0,0,.443.024c.217,0,.459,0,.716-.024a4.407,4.407,0,0,0,.8-.138c.382-.049.777-.1,1.18-.153a3.943,3.943,0,0,0,1.171-.339c.333-.153.7-.312,1.107-.471s.838-.33,1.3-.5a4.653,4.653,0,0,0,.844-.394,2.565,2.565,0,0,0,.627-.557c.193-.254.367-.5.535-.743a7.519,7.519,0,0,1,.471-.621.538.538,0,0,1,.015.058,13.587,13.587,0,0,1,1.342-1.162,1.649,1.649,0,0,1,.826-.385c.07,0,.156.067.238.208a3.3,3.3,0,0,1,.3.621c.092.177.183.33.263.468a2.5,2.5,0,0,1,.168.342,4.317,4.317,0,0,0,.795,2.1,3.6,3.6,0,0,0,2.067.379,2.2,2.2,0,0,0,.826-.257,11.554,11.554,0,0,0,1.367-.8c.492-.324.908-.609,1.257-.853a9.715,9.715,0,0,0,.847-.648l.4.4q-.358,1.22-.627,2.18c-.174.639-.312,1.159-.4,1.581.025.37.049.737.067,1.1a3.386,3.386,0,0,1-.165.627,3.787,3.787,0,0,0-.162.615l-.367,2.731a5.793,5.793,0,0,0-.061.853,4.96,4.96,0,0,0,.058.749c0,.376-.006.749-.015,1.125s-.012.761,0,1.141a1.507,1.507,0,0,0,.5,1.024,1.806,1.806,0,0,0,1.186.342,1.014,1.014,0,0,0,.5-.135,2.507,2.507,0,0,0,.5-.367c.116-.141.242-.294.373-.45a4.544,4.544,0,0,0,.364-.471,19.393,19.393,0,0,0,2.092-3.391q1.17-2.275,2.532-5.709c.128-.324.254-.661.382-1.015s.266-.7.413-1.034a6.825,6.825,0,0,1,.529-1.092,5.289,5.289,0,0,1,.6-.816.132.132,0,0,0,0-.015,3.071,3.071,0,0,1,.434-.391.647.647,0,0,1,.343-.135.337.337,0,0,1,.3.193,2.2,2.2,0,0,1,.226.581c.086.327.177.6.263.835a1.7,1.7,0,0,0,.291.532,1.85,1.85,0,0,0,.777.578,3.114,3.114,0,0,0,1.147.2,4.661,4.661,0,0,0,.884-.076,2.454,2.454,0,0,0,.694-.263,3.376,3.376,0,0,0,1.609-.511,13.53,13.53,0,0,0,2.064-1.523,5.422,5.422,0,0,0-.177-.709m-4.88-4.223a3.994,3.994,0,0,1,.865-1.52c.541-.688.936-1.034,1.2-1.034a.183.183,0,0,1,.177.1.433.433,0,0,1,.024.266,1.349,1.349,0,0,1-.174.5,2.306,2.306,0,0,1-.388.5c-.141.128-.281.263-.422.4s-.3.269-.437.385c-.092.122-.187.254-.284.388a.439.439,0,0,1-.355.208c-.1,0-.159-.009-.187-.043a.179.179,0,0,1-.021-.153m-5.7-6.324c.083-.2.19-.428.321-.694.159-.312.294-.569.394-.771a2.969,2.969,0,0,0,.19-.486c.083-.165.144-.294.187-.385s.1-.135.171-.135.144.028.165.092a.594.594,0,0,1,.012.309,1.735,1.735,0,0,1-.147.446c-.086.177-.2.394-.355.645a8.144,8.144,0,0,0-.44.737,2.1,2.1,0,0,0-.223.6l-.306.269-.113-.141a1.917,1.917,0,0,1,.144-.483" transform="translate(-397.904 -82.055)" fill="#fff"/>
      <path id="Trazado_2988" data-name="Trazado 2988" d="M553.467,107.488c.177,0,.361.012.541.024s.379.043.575.067a.991.991,0,0,0,.4-.1,4.85,4.85,0,0,0,.749-.4,3.756,3.756,0,0,0,.746-.535,2.876,2.876,0,0,0,.535-.694c.064-.116.159-.312.284-.59s.278-.633.459-1.061c.083-.226.174-.511.294-.847a.583.583,0,0,0-.141-.523.9.9,0,0,0-.63-.177,2.492,2.492,0,0,0-.673.08,1.929,1.929,0,0,0-.5.208c-.321.327-.6.609-.835.859a2.42,2.42,0,0,0-1.278.881,2.775,2.775,0,0,0-.841,1.355,2.671,2.671,0,0,0,.006.972.7.7,0,0,0,.3.483" transform="translate(-433.047 -96.265)" fill="#fff"/>
      <g id="Grupo_3473" data-name="Grupo 3473" transform="translate(143.339 7.783)">
        <path id="Trazado_2989" data-name="Trazado 2989" d="M632.011,108.584a1.4,1.4,0,1,1-1.388-1.364A1.375,1.375,0,0,1,632.011,108.584Zm-2.456,0a1.063,1.063,0,0,0,1.064,1.089,1.044,1.044,0,0,0,1.04-1.079,1.053,1.053,0,1,0-2.1-.009Zm.841.709h-.315v-1.364a3.882,3.882,0,0,1,.523-.043.741.741,0,0,1,.465.107.345.345,0,0,1,.141.291.353.353,0,0,1-.281.324v.015c.135.043.2.15.242.333a1.184,1.184,0,0,0,.1.333h-.333a.984.984,0,0,1-.107-.333c-.024-.141-.107-.208-.281-.208h-.15v.544Zm.009-.768h.15c.174,0,.315-.058.315-.2,0-.125-.092-.208-.291-.208a.944.944,0,0,0-.174.015Z" transform="translate(-629.21 -107.22)" fill="#fff"/>
      </g>
    </g>
    <g id="Grupo_3494" data-name="Grupo 3494" transform="translate(-1445.027 7430.795)">
      <path id="Trazado_2695" data-name="Trazado 2695" d="M1480.211-53.408c2.938.363,5.21-1.995,5.556-4.806a4.615,4.615,0,0,0-4.3-5.362,4.778,4.778,0,0,0-5.421,4.462,4.834,4.834,0,0,0,4.164,5.706" transform="translate(-1453.161 63.617)" fill="#fff"/>
      <path id="Trazado_2696" data-name="Trazado 2696" d="M1572.05-6.667a4.41,4.41,0,0,0,4.748-4.107,3.943,3.943,0,0,0-3.673-4.581,4.082,4.082,0,0,0-4.632,3.814,4.129,4.129,0,0,0,3.557,4.874" transform="translate(-1532.682 22.136)" fill="#fff"/>
      <path id="Trazado_2697" data-name="Trazado 2697" d="M1382.418-35.88c2.915-.474,4.436-3.377,3.978-6.17a4.616,4.616,0,0,0-5.634-3.938,4.775,4.775,0,0,0-3.945,5.8,4.83,4.83,0,0,0,5.6,4.306" transform="translate(-1367.78 48.525)" fill="#fff"/>
      <path id="Trazado_2698" data-name="Trazado 2698" d="M1320.421,37.03a4.614,4.614,0,0,0-6.765,1.216,4.767,4.767,0,0,0,1.324,6.885,4.829,4.829,0,0,0,7.01-.927c1.724-2.4.733-5.529-1.569-7.173" transform="translate(-1312.711 -22.113)" fill="#fff"/>
      <path id="Trazado_2699" data-name="Trazado 2699" d="M1415.091,66.395v0a2.24,2.24,0,0,0,1.567-.673,2.511,2.511,0,0,1-1.858.365l-.012-.013c-1.472-.207-4.112-2.84-4.651-3.172s-1.616-.34-1.827.169-1.147.383-1.147.383-1.006-.9.863-1.962a3.341,3.341,0,0,1,3.821-.034s1.327.838,1.69.35a10.65,10.65,0,0,1,.979-1.138.373.373,0,0,0-.053-.58,7.279,7.279,0,0,0-1.661-.633c-.376-.01-.844-.643-1-1.094-.257-.193-.26-.581-.226-1-.271-.477-.133-.683.212-.875a1.386,1.386,0,0,0,.708-.7c.652-1.287.88-1.614,2.144-1.822.2-.349.476-.483.476-.868,0-.466.168-1.087.465-1.114a3.29,3.29,0,0,1,1.531,1.939,4.859,4.859,0,0,1,1.8,2.917,22.612,22.612,0,0,0,.628,2.292c.035.093.074.194.116.3a5.934,5.934,0,0,0,2.74,2.6l0,.011a24.218,24.218,0,0,0,1.01-6.736l-.02.023a24.18,24.18,0,0,0-.947-7.081l.011,0a16.739,16.739,0,0,0-6.951-9.738c-8.738-5.434-18.792-.932-23.988,7.436a20.471,20.471,0,0,0-2.251,4.906,0,0,0,0,1,0,0c1.1-.663,4.818-3.131,5.788-3.729s1.874-1.161,2.075-1.29a15.362,15.362,0,0,1,2.632-2.13,4.111,4.111,0,0,1,4.009-.023,6.971,6.971,0,0,1,3.143,2.6,3.267,3.267,0,0,1,.849,1.029c.153.354-.379,1.368.759,2.368.956.84,2.915,2.1,3.094,2.775.13.49-1.059,1.1-1.576,1.577a4.013,4.013,0,0,1-2.817,1.247c-1,0-2.019-.854-2.876-1.437a5.757,5.757,0,0,0-1.9-.955c.048-1.261.976-1.368,1.22-3.036.146-1.107-.341-2.334-.214-3.291a5.641,5.641,0,0,0,.081-1.405,2.839,2.839,0,0,0-.506,1.252c-.1.91.316,2.44.137,3.479-.262,1.541-.87,1.494-1.025,2.866a2.189,2.189,0,0,1-.46,1.13c-.346.205-.984.5-1.438.128a5.531,5.531,0,0,1-1.861-2.811c-.831-2.194-.938-2.675-.774-4.188-.481,1.5-.24,2.4.383,4.285a4.179,4.179,0,0,0,1.324,2.162,11.875,11.875,0,0,0-1.368.67,3.57,3.57,0,0,0-.851,2.612,14.584,14.584,0,0,1,.045,2.468c-.147,1-.107,2.021-.328,3.007a9.552,9.552,0,0,1-.885,2.484,9.854,9.854,0,0,0-1.05,2.806c.281.217.569.431.868.639l-.062-.008c.327.227.662.451,1.01.667,7.663,4.757,16.08,5.939,21.544.526a8.73,8.73,0,0,1-3.132-2.927" transform="translate(-1378.549 -22.189)" fill="#fff"/>
      <path id="Trazado_2700" data-name="Trazado 2700" d="M1429.331,260.306h0l0,0,0,0" transform="translate(-1413.018 -214.997)" fill="#fff"/>
      <path id="Trazado_2701" data-name="Trazado 2701" d="M1596.357,273.333a.008.008,0,0,1,0,0,.008.008,0,0,0,0,0Z" transform="translate(-1556.684 -226.201)" fill="#fff"/>
    </g>
  </g>
</svg>
