<svg id="Grupo_3476" data-name="Grupo 3476" xmlns="http://www.w3.org/2000/svg" width="195.266" height="42.408" viewBox="0 0 195.266 42.408">
  <g id="Grupo_3472" data-name="Grupo 3472" transform="translate(44.305 36.696)">
    <g id="Grupo_3471" data-name="Grupo 3471">
      <path id="Trazado_2962" data-name="Trazado 2962" d="M195.275,189.42a1.1,1.1,0,0,1,.054.206.128.128,0,0,1-.03.115.257.257,0,0,1-.142.047c-.067.007-.162.01-.28.01s-.219,0-.29-.007a.794.794,0,0,1-.159-.02.168.168,0,0,1-.078-.044.278.278,0,0,1-.037-.078L194,188.7h-1.765l-.3.918a.4.4,0,0,1-.037.084.152.152,0,0,1-.078.054.486.486,0,0,1-.148.027c-.064,0-.148.007-.253.007s-.2,0-.263-.01a.184.184,0,0,1-.132-.054.146.146,0,0,1-.027-.118,1.323,1.323,0,0,1,.054-.2l1.451-4.171a.355.355,0,0,1,.051-.1.177.177,0,0,1,.091-.057.71.71,0,0,1,.175-.024c.074,0,.175-.007.3-.007.142,0,.256,0,.341.007a1.191,1.191,0,0,1,.2.024.185.185,0,0,1,.1.061.459.459,0,0,1,.054.108Zm-2.16-3.449h0l-.665,2h1.333Z" transform="translate(-190.994 -184.983)" fill="#fff"/>
      <path id="Trazado_2963" data-name="Trazado 2963" d="M210.163,186.547a1.833,1.833,0,0,1-.125.7,1.336,1.336,0,0,1-.361.513,1.58,1.58,0,0,1-.58.317,2.644,2.644,0,0,1-.81.108h-.391v1.5a.089.089,0,0,1-.024.064.17.17,0,0,1-.078.047.888.888,0,0,1-.145.03,2.179,2.179,0,0,1-.233.01,2.153,2.153,0,0,1-.229-.01.669.669,0,0,1-.148-.03.17.17,0,0,1-.078-.047.111.111,0,0,1-.02-.064v-4.228a.347.347,0,0,1,.088-.256.324.324,0,0,1,.233-.084h1.107c.111,0,.216,0,.317.013s.223.027.361.054a1.606,1.606,0,0,1,.429.155,1.232,1.232,0,0,1,.368.283,1.2,1.2,0,0,1,.233.4A1.381,1.381,0,0,1,210.163,186.547Zm-1,.067a.861.861,0,0,0-.088-.408.585.585,0,0,0-.213-.236.73.73,0,0,0-.267-.1,2.028,2.028,0,0,0-.29-.02H207.9v1.6h.429a1.07,1.07,0,0,0,.385-.061.649.649,0,0,0,.253-.172.759.759,0,0,0,.148-.267A1.037,1.037,0,0,0,209.164,186.615Z" transform="translate(-201.559 -185.029)" fill="#fff"/>
      <path id="Trazado_2964" data-name="Trazado 2964" d="M221.535,189.42a1.1,1.1,0,0,1,.054.206.128.128,0,0,1-.03.115.257.257,0,0,1-.142.047c-.067.007-.162.01-.28.01s-.219,0-.29-.007a.8.8,0,0,1-.159-.02.168.168,0,0,1-.078-.044.278.278,0,0,1-.037-.078l-.317-.945h-1.765l-.3.918a.394.394,0,0,1-.037.084.152.152,0,0,1-.078.054.486.486,0,0,1-.148.027c-.064,0-.148.007-.253.007s-.2,0-.263-.01a.184.184,0,0,1-.132-.054.146.146,0,0,1-.027-.118,1.325,1.325,0,0,1,.054-.2l1.451-4.171a.355.355,0,0,1,.051-.1.178.178,0,0,1,.091-.057.71.71,0,0,1,.175-.024c.074,0,.175-.007.3-.007.142,0,.256,0,.341.007a1.19,1.19,0,0,1,.2.024.186.186,0,0,1,.1.061.459.459,0,0,1,.054.108Zm-2.156-3.449h0l-.665,2h1.333Z" transform="translate(-208.393 -184.983)" fill="#fff"/>
      <path id="Trazado_2965" data-name="Trazado 2965" d="M235.441,188.231a1.469,1.469,0,0,1-.138.651,1.331,1.331,0,0,1-.375.466,1.587,1.587,0,0,1-.553.28,2.3,2.3,0,0,1-.675.094,2.374,2.374,0,0,1-.452-.04,2.227,2.227,0,0,1-.368-.1,1.554,1.554,0,0,1-.267-.118.908.908,0,0,1-.155-.108.282.282,0,0,1-.067-.135,1.242,1.242,0,0,1-.02-.256c0-.074,0-.138.007-.189a.547.547,0,0,1,.024-.125.131.131,0,0,1,.044-.068.1.1,0,0,1,.064-.02.291.291,0,0,1,.142.061,2.061,2.061,0,0,0,.24.132,2.362,2.362,0,0,0,.348.132,1.624,1.624,0,0,0,.466.061,1.141,1.141,0,0,0,.314-.04.688.688,0,0,0,.233-.118.507.507,0,0,0,.148-.189.6.6,0,0,0,.051-.25.434.434,0,0,0-.088-.273.823.823,0,0,0-.226-.2,2.52,2.52,0,0,0-.317-.169c-.118-.051-.24-.108-.368-.165a3.233,3.233,0,0,1-.368-.2,1.417,1.417,0,0,1-.317-.267,1.208,1.208,0,0,1-.226-.364,1.488,1.488,0,0,1,.037-1.1,1.2,1.2,0,0,1,.337-.425,1.5,1.5,0,0,1,.5-.253,2.138,2.138,0,0,1,.611-.084,2.229,2.229,0,0,1,.334.027,2.684,2.684,0,0,1,.314.068,1.4,1.4,0,0,1,.256.1.647.647,0,0,1,.148.091.211.211,0,0,1,.047.061.26.26,0,0,1,.024.068.719.719,0,0,1,.013.1c0,.044,0,.094,0,.159a1.408,1.408,0,0,1-.007.179.957.957,0,0,1-.017.121.142.142,0,0,1-.037.071.082.082,0,0,1-.064.02.318.318,0,0,1-.128-.051q-.086-.051-.213-.111a1.732,1.732,0,0,0-.294-.108,1.261,1.261,0,0,0-.368-.047.94.94,0,0,0-.273.037.571.571,0,0,0-.2.1.366.366,0,0,0-.115.162.564.564,0,0,0-.037.2.43.43,0,0,0,.084.27.75.75,0,0,0,.229.2,2.414,2.414,0,0,0,.324.169c.121.051.246.108.371.165a3.6,3.6,0,0,1,.371.2,1.451,1.451,0,0,1,.324.267,1.176,1.176,0,0,1,.229.364A1.236,1.236,0,0,1,235.441,188.231Z" transform="translate(-218.408 -184.85)" fill="#fff"/>
      <path id="Trazado_2966" data-name="Trazado 2966" d="M245.918,189.643a.089.089,0,0,1-.024.064.17.17,0,0,1-.078.047.889.889,0,0,1-.145.03,2.183,2.183,0,0,1-.233.01,2.158,2.158,0,0,1-.229-.01.67.67,0,0,1-.148-.03.17.17,0,0,1-.078-.047.1.1,0,0,1-.024-.064V185.2a.089.089,0,0,1,.024-.064.183.183,0,0,1,.081-.047.941.941,0,0,1,.148-.03,2.154,2.154,0,0,1,.229-.01,2.18,2.18,0,0,1,.233.01.633.633,0,0,1,.145.03.17.17,0,0,1,.078.047.1.1,0,0,1,.024.064v4.441Z" transform="translate(-226.75 -184.983)" fill="#fff"/>
      <path id="Trazado_2967" data-name="Trazado 2967" d="M255.967,187.236a3.438,3.438,0,0,1-.145,1.046,2.1,2.1,0,0,1-.432.783,1.844,1.844,0,0,1-.709.489,2.654,2.654,0,0,1-.979.169,2.848,2.848,0,0,1-.958-.145,1.688,1.688,0,0,1-.682-.439,1.864,1.864,0,0,1-.408-.749,3.764,3.764,0,0,1-.135-1.076,3.333,3.333,0,0,1,.145-1.026,2.094,2.094,0,0,1,.432-.776,1.867,1.867,0,0,1,.712-.489,2.6,2.6,0,0,1,.982-.172,2.862,2.862,0,0,1,.941.142,1.647,1.647,0,0,1,.682.435,1.935,1.935,0,0,1,.415.742A3.75,3.75,0,0,1,255.967,187.236Zm-1.006.051a3.755,3.755,0,0,0-.057-.675,1.464,1.464,0,0,0-.2-.52.932.932,0,0,0-.371-.334,1.288,1.288,0,0,0-.58-.118,1.181,1.181,0,0,0-.587.132,1.068,1.068,0,0,0-.381.354,1.459,1.459,0,0,0-.206.52,3.1,3.1,0,0,0-.061.628,3.9,3.9,0,0,0,.057.692,1.568,1.568,0,0,0,.2.526.911.911,0,0,0,.371.334,1.3,1.3,0,0,0,.584.115,1.213,1.213,0,0,0,.591-.132,1.068,1.068,0,0,0,.381-.354,1.468,1.468,0,0,0,.206-.526A3.538,3.538,0,0,0,254.962,187.286Z" transform="translate(-231.096 -184.85)" fill="#fff"/>
      <path id="Trazado_2968" data-name="Trazado 2968" d="M272.254,189.46a.343.343,0,0,1-.03.148.287.287,0,0,1-.078.108.3.3,0,0,1-.115.064.468.468,0,0,1-.135.02h-.408a.828.828,0,0,1-.219-.027.473.473,0,0,1-.172-.091.775.775,0,0,1-.152-.182c-.047-.078-.1-.175-.165-.3l-1.171-2.2c-.067-.132-.138-.273-.206-.422s-.135-.3-.189-.442h-.007c.01.175.017.348.024.52s.007.351.007.537v2.46a.1.1,0,0,1-.02.064.148.148,0,0,1-.071.051.541.541,0,0,1-.132.03,1.823,1.823,0,0,1-.213.01,1.759,1.759,0,0,1-.209-.01.542.542,0,0,1-.132-.03.127.127,0,0,1-.064-.051.108.108,0,0,1-.017-.064v-4.225a.316.316,0,0,1,.1-.256.364.364,0,0,1,.246-.084h.513a.933.933,0,0,1,.233.024.482.482,0,0,1,.169.078.551.551,0,0,1,.138.152,1.842,1.842,0,0,1,.135.24l.914,1.718c.054.1.1.206.159.307s.1.2.152.3.094.2.142.3.091.192.135.29h0c-.007-.169-.013-.348-.017-.53s-.007-.361-.007-.526v-2.207a.1.1,0,0,1,.02-.064.148.148,0,0,1,.071-.051.539.539,0,0,1,.135-.03,1.891,1.891,0,0,1,.216-.01,1.741,1.741,0,0,1,.206.01.447.447,0,0,1,.128.03.143.143,0,0,1,.064.051.108.108,0,0,1,.017.064Z" transform="translate(-242.267 -185.002)" fill="#fff"/>
      <path id="Trazado_2969" data-name="Trazado 2969" d="M287.235,189.42a1.1,1.1,0,0,1,.054.206.128.128,0,0,1-.03.115.257.257,0,0,1-.142.047c-.068.007-.162.01-.28.01s-.219,0-.29-.007a.794.794,0,0,1-.159-.02.168.168,0,0,1-.078-.044.276.276,0,0,1-.037-.078l-.317-.945h-1.765l-.3.918a.4.4,0,0,1-.037.084.152.152,0,0,1-.078.054.486.486,0,0,1-.148.027c-.064,0-.148.007-.253.007s-.2,0-.263-.01a.185.185,0,0,1-.132-.054.146.146,0,0,1-.027-.118,1.322,1.322,0,0,1,.054-.2l1.451-4.171a.355.355,0,0,1,.051-.1.178.178,0,0,1,.091-.057.709.709,0,0,1,.175-.024c.074,0,.176-.007.3-.007.142,0,.257,0,.341.007a1.19,1.19,0,0,1,.2.024.185.185,0,0,1,.1.061.459.459,0,0,1,.054.108Zm-2.16-3.449h0l-.665,2h1.333Z" transform="translate(-251.923 -184.983)" fill="#fff"/>
      <path id="Trazado_2970" data-name="Trazado 2970" d="M302.808,187.394a3.249,3.249,0,0,1-.169,1.107,1.829,1.829,0,0,1-.486.749,1.9,1.9,0,0,1-.769.425,3.749,3.749,0,0,1-1.076.135h-1.124a.3.3,0,0,1-.2-.071.292.292,0,0,1-.081-.229v-4.1a.287.287,0,0,1,.081-.229.3.3,0,0,1,.2-.071h1.2a3.387,3.387,0,0,1,1.066.148,1.944,1.944,0,0,1,.739.435,1.887,1.887,0,0,1,.456.715A2.77,2.77,0,0,1,302.808,187.394Zm-.989.034a2.425,2.425,0,0,0-.078-.621,1.314,1.314,0,0,0-.25-.5,1.141,1.141,0,0,0-.442-.327,1.825,1.825,0,0,0-.709-.118h-.483v3.2h.5a1.88,1.88,0,0,0,.661-.1,1.1,1.1,0,0,0,.449-.307,1.339,1.339,0,0,0,.27-.51A2.811,2.811,0,0,0,301.819,187.428Z" transform="translate(-262.489 -185.022)" fill="#fff"/>
      <path id="Trazado_2971" data-name="Trazado 2971" d="M317.907,187.236a3.437,3.437,0,0,1-.145,1.046,2.1,2.1,0,0,1-.432.783,1.843,1.843,0,0,1-.709.489,2.654,2.654,0,0,1-.979.169,2.848,2.848,0,0,1-.958-.145,1.688,1.688,0,0,1-.682-.439,1.864,1.864,0,0,1-.408-.749,3.766,3.766,0,0,1-.135-1.076,3.334,3.334,0,0,1,.145-1.026,2.1,2.1,0,0,1,.432-.776,1.867,1.867,0,0,1,.712-.489,2.6,2.6,0,0,1,.982-.172,2.862,2.862,0,0,1,.941.142,1.647,1.647,0,0,1,.682.435,1.935,1.935,0,0,1,.415.742A3.749,3.749,0,0,1,317.907,187.236Zm-1,.051a3.758,3.758,0,0,0-.057-.675,1.464,1.464,0,0,0-.2-.52.933.933,0,0,0-.371-.334,1.287,1.287,0,0,0-.58-.118,1.181,1.181,0,0,0-.587.132,1.068,1.068,0,0,0-.381.354,1.459,1.459,0,0,0-.206.52,3.1,3.1,0,0,0-.061.628,3.893,3.893,0,0,0,.057.692,1.567,1.567,0,0,0,.2.526.911.911,0,0,0,.371.334,1.3,1.3,0,0,0,.584.115,1.213,1.213,0,0,0,.591-.132,1.068,1.068,0,0,0,.381-.354,1.468,1.468,0,0,0,.206-.526A3.546,3.546,0,0,0,316.905,187.286Z" transform="translate(-272.136 -184.85)" fill="#fff"/>
      <path id="Trazado_2972" data-name="Trazado 2972" d="M332.551,188.231a1.468,1.468,0,0,1-.138.651,1.33,1.33,0,0,1-.375.466,1.587,1.587,0,0,1-.553.28,2.3,2.3,0,0,1-.675.094,2.374,2.374,0,0,1-.452-.04,2.227,2.227,0,0,1-.368-.1,1.558,1.558,0,0,1-.267-.118.908.908,0,0,1-.155-.108.283.283,0,0,1-.068-.135,1.242,1.242,0,0,1-.02-.256c0-.074,0-.138.007-.189a.545.545,0,0,1,.024-.125.131.131,0,0,1,.044-.068.1.1,0,0,1,.064-.02.291.291,0,0,1,.142.061,2.061,2.061,0,0,0,.24.132,2.36,2.36,0,0,0,.348.132,1.624,1.624,0,0,0,.466.061,1.141,1.141,0,0,0,.314-.04.688.688,0,0,0,.233-.118.507.507,0,0,0,.148-.189.6.6,0,0,0,.051-.25.434.434,0,0,0-.088-.273.822.822,0,0,0-.226-.2,2.517,2.517,0,0,0-.317-.169c-.118-.051-.24-.108-.368-.165a3.23,3.23,0,0,1-.368-.2,1.417,1.417,0,0,1-.317-.267,1.21,1.21,0,0,1-.226-.364,1.488,1.488,0,0,1,.037-1.1,1.2,1.2,0,0,1,.337-.425,1.5,1.5,0,0,1,.5-.253,2.138,2.138,0,0,1,.611-.084,2.229,2.229,0,0,1,.334.027,2.682,2.682,0,0,1,.314.068,1.4,1.4,0,0,1,.256.1.647.647,0,0,1,.148.091.211.211,0,0,1,.047.061.259.259,0,0,1,.024.068.724.724,0,0,1,.013.1c0,.044,0,.094,0,.159a1.414,1.414,0,0,1-.007.179.962.962,0,0,1-.017.121.142.142,0,0,1-.037.071.082.082,0,0,1-.064.02.318.318,0,0,1-.128-.051q-.086-.051-.213-.111a1.733,1.733,0,0,0-.294-.108,1.261,1.261,0,0,0-.368-.047.939.939,0,0,0-.273.037.57.57,0,0,0-.2.1.366.366,0,0,0-.115.162.564.564,0,0,0-.037.2.429.429,0,0,0,.084.27.751.751,0,0,0,.229.2,2.411,2.411,0,0,0,.324.169c.121.051.246.108.371.165a3.586,3.586,0,0,1,.371.2,1.453,1.453,0,0,1,.324.267,1.176,1.176,0,0,1,.229.364A1.236,1.236,0,0,1,332.551,188.231Z" transform="translate(-282.75 -184.85)" fill="#fff"/>
      <path id="Trazado_2973" data-name="Trazado 2973" d="M351.563,186.547a1.834,1.834,0,0,1-.125.7,1.335,1.335,0,0,1-.361.513,1.58,1.58,0,0,1-.58.317,2.644,2.644,0,0,1-.81.108h-.391v1.5a.089.089,0,0,1-.024.064.17.17,0,0,1-.078.047.888.888,0,0,1-.145.03,2.178,2.178,0,0,1-.233.01,2.154,2.154,0,0,1-.229-.01.669.669,0,0,1-.148-.03.17.17,0,0,1-.078-.047.111.111,0,0,1-.02-.064v-4.228a.347.347,0,0,1,.088-.256.324.324,0,0,1,.233-.084h1.107c.111,0,.216,0,.317.013s.223.027.361.054a1.607,1.607,0,0,1,.429.155,1.232,1.232,0,0,1,.368.283,1.2,1.2,0,0,1,.233.4A1.382,1.382,0,0,1,351.563,186.547Zm-1,.067a.861.861,0,0,0-.088-.408.585.585,0,0,0-.213-.236.73.73,0,0,0-.267-.1,2.028,2.028,0,0,0-.29-.02H349.3v1.6h.429a1.07,1.07,0,0,0,.385-.061.649.649,0,0,0,.253-.172.758.758,0,0,0,.148-.267A1.037,1.037,0,0,0,350.564,186.615Z" transform="translate(-295.246 -185.029)" fill="#fff"/>
      <path id="Trazado_2974" data-name="Trazado 2974" d="M365.187,187.236a3.438,3.438,0,0,1-.145,1.046,2.1,2.1,0,0,1-.432.783,1.844,1.844,0,0,1-.709.489,2.654,2.654,0,0,1-.979.169,2.848,2.848,0,0,1-.958-.145,1.688,1.688,0,0,1-.682-.439,1.863,1.863,0,0,1-.408-.749,3.764,3.764,0,0,1-.135-1.076,3.334,3.334,0,0,1,.145-1.026,2.094,2.094,0,0,1,.432-.776,1.867,1.867,0,0,1,.712-.489,2.6,2.6,0,0,1,.982-.172,2.862,2.862,0,0,1,.941.142,1.647,1.647,0,0,1,.682.435,1.935,1.935,0,0,1,.415.742A3.633,3.633,0,0,1,365.187,187.236Zm-1,.051a3.758,3.758,0,0,0-.057-.675,1.465,1.465,0,0,0-.2-.52.932.932,0,0,0-.371-.334,1.288,1.288,0,0,0-.58-.118,1.181,1.181,0,0,0-.587.132,1.068,1.068,0,0,0-.381.354,1.459,1.459,0,0,0-.206.52,3.093,3.093,0,0,0-.061.628,3.9,3.9,0,0,0,.057.692,1.569,1.569,0,0,0,.2.526.91.91,0,0,0,.371.334,1.3,1.3,0,0,0,.584.115,1.213,1.213,0,0,0,.591-.132,1.068,1.068,0,0,0,.381-.354,1.468,1.468,0,0,0,.206-.526A3.541,3.541,0,0,0,364.185,187.286Z" transform="translate(-303.462 -184.85)" fill="#fff"/>
      <path id="Trazado_2975" data-name="Trazado 2975" d="M381.089,189.7a.134.134,0,0,1-.014.067.116.116,0,0,1-.071.044.723.723,0,0,1-.159.027c-.067.007-.165.007-.287.007-.1,0-.182,0-.243-.007a.505.505,0,0,1-.145-.027.16.16,0,0,1-.074-.051.3.3,0,0,1-.037-.074l-.422-1.049c-.051-.118-.1-.223-.149-.317a.924.924,0,0,0-.162-.229.661.661,0,0,0-.206-.142.676.676,0,0,0-.27-.047h-.3v1.792a.089.089,0,0,1-.024.064.17.17,0,0,1-.078.047.888.888,0,0,1-.145.03,2.182,2.182,0,0,1-.233.01,2.158,2.158,0,0,1-.229-.01.667.667,0,0,1-.148-.03.17.17,0,0,1-.078-.047.111.111,0,0,1-.02-.064V185.42a.287.287,0,0,1,.081-.229.3.3,0,0,1,.2-.071H379.1c.125,0,.226,0,.3.007s.152.01.219.017a2.046,2.046,0,0,1,.51.138,1.2,1.2,0,0,1,.385.256,1.088,1.088,0,0,1,.243.375,1.341,1.341,0,0,1,.084.5,1.452,1.452,0,0,1-.061.432,1.123,1.123,0,0,1-.175.348,1.207,1.207,0,0,1-.287.267,1.645,1.645,0,0,1-.388.182,1.034,1.034,0,0,1,.2.125,1.08,1.08,0,0,1,.175.175,2.2,2.2,0,0,1,.155.236c.047.088.094.189.142.3l.395.928c.037.091.061.159.074.2A.542.542,0,0,1,381.089,189.7Zm-1.232-3.189a.685.685,0,0,0-.1-.391.572.572,0,0,0-.344-.226,1.631,1.631,0,0,0-.165-.03,2.507,2.507,0,0,0-.256-.01h-.429v1.333h.486a1.122,1.122,0,0,0,.354-.051.7.7,0,0,0,.253-.138.587.587,0,0,0,.152-.213A.7.7,0,0,0,379.857,186.507Z" transform="translate(-314.633 -185.029)" fill="#fff"/>
      <path id="Trazado_2976" data-name="Trazado 2976" d="M399.837,185.511a1.314,1.314,0,0,1-.01.179.467.467,0,0,1-.027.121.18.18,0,0,1-.044.067.094.094,0,0,1-.061.02h-1.178v3.789a.089.089,0,0,1-.024.064.17.17,0,0,1-.078.047.867.867,0,0,1-.148.03,1.544,1.544,0,0,1-.229.01,2.154,2.154,0,0,1-.229-.01.669.669,0,0,1-.148-.03.17.17,0,0,1-.078-.047.1.1,0,0,1-.024-.064V185.9h-1.178a.094.094,0,0,1-.061-.02.18.18,0,0,1-.044-.067.466.466,0,0,1-.027-.121,1.375,1.375,0,0,1-.01-.179,1.449,1.449,0,0,1,.01-.186.465.465,0,0,1,.027-.121.164.164,0,0,1,.044-.064.094.094,0,0,1,.061-.02H399.7a.1.1,0,0,1,.061.02.115.115,0,0,1,.044.064.665.665,0,0,1,.027.121A1.455,1.455,0,0,1,399.837,185.511Z" transform="translate(-326.983 -185.029)" fill="#fff"/>
      <path id="Trazado_2977" data-name="Trazado 2977" d="M413.673,188.029a2.133,2.133,0,0,1-.128.773,1.5,1.5,0,0,1-.375.577,1.641,1.641,0,0,1-.611.361,2.885,2.885,0,0,1-1.633.013,1.525,1.525,0,0,1-.6-.337,1.469,1.469,0,0,1-.371-.56,2.22,2.22,0,0,1-.128-.786v-2.858a.1.1,0,0,1,.02-.064.153.153,0,0,1,.078-.047.943.943,0,0,1,.148-.03,1.551,1.551,0,0,1,.233-.01,2.165,2.165,0,0,1,.229.01.637.637,0,0,1,.145.03.17.17,0,0,1,.078.047.1.1,0,0,1,.024.064v2.777a1.505,1.505,0,0,0,.071.486.921.921,0,0,0,.2.341.814.814,0,0,0,.31.2,1.21,1.21,0,0,0,.807,0,.776.776,0,0,0,.3-.2.945.945,0,0,0,.192-.327,1.366,1.366,0,0,0,.068-.442v-2.831a.1.1,0,0,1,.02-.064.153.153,0,0,1,.078-.047.868.868,0,0,1,.148-.03,1.547,1.547,0,0,1,.229-.01,2.049,2.049,0,0,1,.226.01.677.677,0,0,1,.145.03.17.17,0,0,1,.078.047.111.111,0,0,1,.02.064v2.818Z" transform="translate(-335.987 -184.989)" fill="#fff"/>
      <path id="Trazado_2978" data-name="Trazado 2978" d="M437.35,189.689a.1.1,0,0,1-.02.064.144.144,0,0,1-.071.047.769.769,0,0,1-.142.03,2.419,2.419,0,0,1-.442,0,.567.567,0,0,1-.138-.03.145.145,0,0,1-.071-.047.111.111,0,0,1-.02-.064v-3.827h-.007l-1.363,3.823a.2.2,0,0,1-.047.078.273.273,0,0,1-.088.051.514.514,0,0,1-.142.024c-.057,0-.128.007-.209.007a1.846,1.846,0,0,1-.209-.01.641.641,0,0,1-.142-.03.3.3,0,0,1-.088-.047.157.157,0,0,1-.044-.071l-1.316-3.823h-.007v3.827a.1.1,0,0,1-.02.064.141.141,0,0,1-.074.047.958.958,0,0,1-.138.03,1.956,1.956,0,0,1-.219.01,2,2,0,0,1-.219-.01.567.567,0,0,1-.138-.03.157.157,0,0,1-.074-.047.111.111,0,0,1-.02-.064V185.5a.385.385,0,0,1,.1-.283.356.356,0,0,1,.263-.1h.624a1.4,1.4,0,0,1,.287.027.517.517,0,0,1,.351.256,1.451,1.451,0,0,1,.1.256l1.016,2.8h.013l1.053-2.794a1.346,1.346,0,0,1,.1-.256.629.629,0,0,1,.132-.172.417.417,0,0,1,.176-.091.968.968,0,0,1,.236-.027h.645a.506.506,0,0,1,.169.027.271.271,0,0,1,.115.074.305.305,0,0,1,.068.121.483.483,0,0,1,.024.162v4.184Z" transform="translate(-350.597 -185.029)" fill="#fff"/>
      <path id="Trazado_2979" data-name="Trazado 2979" d="M455.435,189.42a1.1,1.1,0,0,1,.054.206.128.128,0,0,1-.03.115.257.257,0,0,1-.142.047c-.067.007-.162.01-.28.01s-.219,0-.29-.007a.8.8,0,0,1-.159-.02.168.168,0,0,1-.078-.044.277.277,0,0,1-.037-.078l-.317-.945h-1.765l-.3.918a.4.4,0,0,1-.037.084.152.152,0,0,1-.078.054.486.486,0,0,1-.148.027c-.064,0-.148.007-.253.007s-.2,0-.263-.01a.184.184,0,0,1-.132-.054.146.146,0,0,1-.027-.118,1.321,1.321,0,0,1,.054-.2l1.451-4.171a.355.355,0,0,1,.051-.1.177.177,0,0,1,.091-.057.71.71,0,0,1,.175-.024c.074,0,.175-.007.3-.007.142,0,.256,0,.341.007a1.19,1.19,0,0,1,.2.024.186.186,0,0,1,.1.061.462.462,0,0,1,.054.108Zm-2.16-3.449h0l-.665,2h1.333Z" transform="translate(-363.367 -184.983)" fill="#fff"/>
      <path id="Trazado_2980" data-name="Trazado 2980" d="M469.341,188.231a1.468,1.468,0,0,1-.138.651,1.33,1.33,0,0,1-.375.466,1.587,1.587,0,0,1-.553.28,2.3,2.3,0,0,1-.675.094,2.373,2.373,0,0,1-.452-.04,2.226,2.226,0,0,1-.368-.1,1.556,1.556,0,0,1-.267-.118.909.909,0,0,1-.155-.108.282.282,0,0,1-.067-.135,1.238,1.238,0,0,1-.02-.256c0-.074,0-.138.007-.189a.554.554,0,0,1,.024-.125.131.131,0,0,1,.044-.068.1.1,0,0,1,.064-.02.291.291,0,0,1,.142.061,2.061,2.061,0,0,0,.24.132,2.364,2.364,0,0,0,.348.132,1.624,1.624,0,0,0,.466.061,1.141,1.141,0,0,0,.314-.04.689.689,0,0,0,.233-.118.508.508,0,0,0,.148-.189.6.6,0,0,0,.051-.25.434.434,0,0,0-.088-.273.824.824,0,0,0-.226-.2,2.52,2.52,0,0,0-.317-.169c-.118-.051-.24-.108-.368-.165a3.225,3.225,0,0,1-.368-.2,1.418,1.418,0,0,1-.317-.267,1.209,1.209,0,0,1-.226-.364,1.488,1.488,0,0,1,.037-1.1,1.2,1.2,0,0,1,.337-.425,1.5,1.5,0,0,1,.5-.253,2.137,2.137,0,0,1,.611-.084,2.23,2.23,0,0,1,.334.027,2.683,2.683,0,0,1,.314.068,1.406,1.406,0,0,1,.256.1.648.648,0,0,1,.148.091.21.21,0,0,1,.047.061.257.257,0,0,1,.024.068.718.718,0,0,1,.014.1c0,.044,0,.094,0,.159a1.42,1.42,0,0,1-.007.179.962.962,0,0,1-.017.121.142.142,0,0,1-.037.071.082.082,0,0,1-.064.02.318.318,0,0,1-.128-.051q-.086-.051-.213-.111a1.734,1.734,0,0,0-.294-.108,1.261,1.261,0,0,0-.368-.047.939.939,0,0,0-.273.037.571.571,0,0,0-.2.1.367.367,0,0,0-.115.162.564.564,0,0,0-.037.2.429.429,0,0,0,.084.27.751.751,0,0,0,.229.2,2.41,2.41,0,0,0,.324.169c.121.051.246.108.371.165a3.589,3.589,0,0,1,.371.2,1.451,1.451,0,0,1,.324.267,1.176,1.176,0,0,1,.229.364A1.3,1.3,0,0,1,469.341,188.231Z" transform="translate(-373.382 -184.85)" fill="#fff"/>
      <path id="Trazado_2981" data-name="Trazado 2981" d="M481.659,188.963a1.076,1.076,0,0,1-.007.155.8.8,0,0,1-.017.108.232.232,0,0,1-.03.078.445.445,0,0,1-.057.074.762.762,0,0,1-.155.108,1.857,1.857,0,0,1-.28.125,2.584,2.584,0,0,1-1.707-.007,1.689,1.689,0,0,1-.661-.445,2.024,2.024,0,0,1-.418-.739,3.691,3.691,0,0,1,.013-2.1,2.3,2.3,0,0,1,.445-.783,1.892,1.892,0,0,1,.688-.479,2.343,2.343,0,0,1,.884-.162,1.967,1.967,0,0,1,.378.034,2.343,2.343,0,0,1,.337.084,1.488,1.488,0,0,1,.277.121.807.807,0,0,1,.172.118.524.524,0,0,1,.068.081.345.345,0,0,1,.03.084,1,1,0,0,1,.017.118c0,.047.007.1.007.172s0,.135-.007.186a.4.4,0,0,1-.027.125.231.231,0,0,1-.044.071.092.092,0,0,1-.057.02.246.246,0,0,1-.138-.064c-.057-.044-.128-.088-.216-.142a1.889,1.889,0,0,0-.317-.142,1.307,1.307,0,0,0-.439-.064,1.048,1.048,0,0,0-.5.115,1.115,1.115,0,0,0-.375.327,1.462,1.462,0,0,0-.233.513,2.632,2.632,0,0,0-.081.678,2.659,2.659,0,0,0,.084.719,1.41,1.41,0,0,0,.243.5.977.977,0,0,0,.381.294,1.261,1.261,0,0,0,.5.1,1.405,1.405,0,0,0,.439-.061,2.04,2.04,0,0,0,.317-.132,2.2,2.2,0,0,0,.219-.132.254.254,0,0,1,.132-.057.1.1,0,0,1,.057.014.129.129,0,0,1,.037.057.477.477,0,0,1,.02.121C481.646,188.808,481.659,188.875,481.659,188.963Z" transform="translate(-381.273 -184.883)" fill="#fff"/>
      <path id="Trazado_2982" data-name="Trazado 2982" d="M495.477,187.236a3.438,3.438,0,0,1-.145,1.046,2.1,2.1,0,0,1-.432.783,1.843,1.843,0,0,1-.709.489,2.654,2.654,0,0,1-.979.169,2.848,2.848,0,0,1-.958-.145,1.688,1.688,0,0,1-.682-.439,1.864,1.864,0,0,1-.408-.749,3.764,3.764,0,0,1-.135-1.076,3.334,3.334,0,0,1,.145-1.026,2.094,2.094,0,0,1,.432-.776,1.867,1.867,0,0,1,.712-.489,2.6,2.6,0,0,1,.982-.172,2.862,2.862,0,0,1,.941.142,1.647,1.647,0,0,1,.682.435,1.934,1.934,0,0,1,.415.742A3.749,3.749,0,0,1,495.477,187.236Zm-1.006.051a3.758,3.758,0,0,0-.057-.675,1.465,1.465,0,0,0-.2-.52.932.932,0,0,0-.371-.334,1.287,1.287,0,0,0-.58-.118,1.181,1.181,0,0,0-.587.132,1.068,1.068,0,0,0-.381.354,1.459,1.459,0,0,0-.206.52,3.1,3.1,0,0,0-.061.628,3.9,3.9,0,0,0,.057.692,1.568,1.568,0,0,0,.2.526.911.911,0,0,0,.371.334,1.3,1.3,0,0,0,.584.115,1.213,1.213,0,0,0,.591-.132,1.069,1.069,0,0,0,.381-.354,1.468,1.468,0,0,0,.206-.526A3.54,3.54,0,0,0,494.472,187.286Z" transform="translate(-389.787 -184.85)" fill="#fff"/>
      <path id="Trazado_2983" data-name="Trazado 2983" d="M509.627,185.511a1.31,1.31,0,0,1-.01.179.468.468,0,0,1-.027.121.179.179,0,0,1-.044.067.094.094,0,0,1-.061.02h-1.178v3.789a.089.089,0,0,1-.024.064.169.169,0,0,1-.078.047.868.868,0,0,1-.148.03,1.545,1.545,0,0,1-.229.01,2.154,2.154,0,0,1-.229-.01.669.669,0,0,1-.148-.03.17.17,0,0,1-.078-.047.1.1,0,0,1-.024-.064V185.9h-1.178a.094.094,0,0,1-.061-.02.18.18,0,0,1-.044-.067.468.468,0,0,1-.027-.121,1.392,1.392,0,0,1-.01-.179,1.467,1.467,0,0,1,.01-.186.468.468,0,0,1,.027-.121.164.164,0,0,1,.044-.064.094.094,0,0,1,.061-.02h3.314a.1.1,0,0,1,.061.02.115.115,0,0,1,.044.064.665.665,0,0,1,.027.121A1.455,1.455,0,0,1,509.627,185.511Z" transform="translate(-399.726 -185.029)" fill="#fff"/>
      <path id="Trazado_2984" data-name="Trazado 2984" d="M520.955,189.42a1.1,1.1,0,0,1,.054.206.128.128,0,0,1-.03.115.257.257,0,0,1-.142.047c-.068.007-.162.01-.28.01s-.219,0-.29-.007a.8.8,0,0,1-.159-.02.168.168,0,0,1-.078-.044.276.276,0,0,1-.037-.078l-.317-.945h-1.765l-.3.918a.4.4,0,0,1-.037.084.152.152,0,0,1-.078.054.486.486,0,0,1-.148.027c-.064,0-.148.007-.253.007s-.2,0-.263-.01a.184.184,0,0,1-.132-.054.146.146,0,0,1-.027-.118,1.322,1.322,0,0,1,.054-.2l1.451-4.171a.356.356,0,0,1,.051-.1.177.177,0,0,1,.091-.057.709.709,0,0,1,.175-.024c.074,0,.176-.007.3-.007.142,0,.256,0,.341.007a1.192,1.192,0,0,1,.2.024.185.185,0,0,1,.1.061.455.455,0,0,1,.054.108Zm-2.16-3.449h0l-.665,2h1.333Z" transform="translate(-406.778 -184.983)" fill="#fff"/>
    </g>
  </g>
  <g id="Grupo_3474" data-name="Grupo 3474" transform="translate(34.006 1.913)">
    <path id="Trazado_2985" data-name="Trazado 2985" d="M182.775,92.905q.415-1.847.786-3.708c.226-.877.385-1.572.5-2.1s.179-.867.2-1.022c.061-.425.121-.783.189-1.083s.121-.52.169-.665a8.616,8.616,0,0,0,.253-.833c-.007-.263-.013-.513-.017-.752.071-.152.159-.358.263-.638a.342.342,0,0,0-.034-.256c-.04-.054-.125-.081-.26-.081h-.155a5.508,5.508,0,0,0-1.13.86,5.817,5.817,0,0,0-.938,1.245c-.128.236-.287.584-.483,1.036s-.408,1.029-.645,1.721q-.425,1.189-.884,2.436c-.04.307-.071.763-.091,1.363a12.393,12.393,0,0,1-.084,1.363,4.318,4.318,0,0,1-.118.58c-.057.219-.135.483-.223.786s-.165.577-.24.813a3.8,3.8,0,0,0-.148.557c-.24,1.309-.449,2.349-.621,3.115s-.3,1.272-.378,1.512c-.132.364-.287.813-.472,1.329s-.385,1.12-.607,1.809c-.165.449-.334.854-.5,1.208a5.287,5.287,0,0,0-.263.7,3.731,3.731,0,0,0-.118.516,2.449,2.449,0,0,1-.186.725.357.357,0,0,1-.324.229c-.155,0-.354-.277-.6-.833a22.191,22.191,0,0,1-.867-2.541c-.331-1.083-.638-2.22-.911-3.408s-.53-2.409-.749-3.678c-.283-1.151-.564-2.257-.847-3.31q-.3-1.174-.429-1.957a4.2,4.2,0,0,1-.074-1.181,1.924,1.924,0,0,1,.253-.685,9.682,9.682,0,0,1,.58-.827c.047-.142.128-.354.246-.617s.267-.6.466-.989c.182-.371.327-.665.418-.887a1.837,1.837,0,0,0,.159-.425.656.656,0,0,0-.01-.277.422.422,0,0,0-.165-.175,5.2,5.2,0,0,1-.52-.256,1.634,1.634,0,0,0-.557.28,4.95,4.95,0,0,0-.564.513c-.233.263-.432.483-.587.638a3.216,3.216,0,0,1-.4.337,1.424,1.424,0,0,1-.368-.317c-.179-.182-.321-.277-.439-.277a2.95,2.95,0,0,0-.54.081,3.4,3.4,0,0,1-.56.074,1.849,1.849,0,0,0-.776.148.988.988,0,0,0-.462.429c-.108.263-.219.537-.334.806s-.229.543-.344.806l.145,1.286c-.6,2.079-1.211,4.137-1.826,6.189-.6,2.1-1.076,3.719-1.431,4.889s-.587,1.89-.692,2.153c-.138.348-.253.645-.351.911s-.165.466-.216.641c-.165.672-.321,1.269-.459,1.782s-.253.935-.348,1.252c-.04.108-.135.354-.27.746s-.327.928-.564,1.62c-.219.607-.388,1.11-.5,1.5a6.675,6.675,0,0,0-.219.874,2.026,2.026,0,0,0,0,.725c.037.169.132.236.27.209a1.678,1.678,0,0,0,.418-.169.621.621,0,0,0,.186-.172,1.023,1.023,0,0,0,.658-.253,1.326,1.326,0,0,0,.378-.682c.283-.6.52-1.1.715-1.539s.364-.8.493-1.1c.121-.385.233-.779.341-1.171l.442-.655c.162-.4.307-.779.432-1.151s.263-.725.388-1.073c.422-1.029.83-2,1.2-2.9s.709-1.734,1.006-2.5a8.977,8.977,0,0,0,.55-.955c.192-.557.364-1.029.513-1.427a9.208,9.208,0,0,1,.412-.989l.145-.064c.155.307.287.6.391.867a5.331,5.331,0,0,1,.236.84c.368,1.178.7,2.193.982,3.057s.526,1.583.709,2.166c.037.236.071.445.1.628s.044.341.054.459a7.536,7.536,0,0,0,.388,1.421c.219.628.526,1.427.908,2.389a13.78,13.78,0,0,0,1.087,2.389c.324.523.584.786.786.786a10.662,10.662,0,0,0,1.387-.429,7.648,7.648,0,0,0,1.313-.506l.752-.989c.388-.833.725-1.613,1-2.325a15.01,15.01,0,0,0,.628-1.944,29.569,29.569,0,0,0,1.164-3.283c.361-1.228.7-2.581,1-4.056.277-1.238.56-2.47.84-3.7" transform="translate(-160.471 -81.77)" fill="#fff"/>
    <path id="Trazado_2986" data-name="Trazado 2986" d="M306.844,83.51a2.291,2.291,0,0,0-1.407.793,17.158,17.158,0,0,0-1.971,2.365c-.577.79-1.09,1.562-1.562,2.315a18.093,18.093,0,0,0-1.188,2.17c-.24.4-.459.769-.645,1.1a7.288,7.288,0,0,1-.53.806c-.56,1.232-1.063,2.372-1.518,3.422s-.83,2.025-1.114,2.905l.061.378a5.818,5.818,0,0,0-.489,1.289,11.649,11.649,0,0,0-.381,1.532,2.376,2.376,0,0,1,0,.418,2.449,2.449,0,0,1-.047.27.251.251,0,0,1-.111.162l-1.458,1.147a5.4,5.4,0,0,0-.557.624,3.764,3.764,0,0,1-.425.486l.014.044a2.472,2.472,0,0,1-.321.24c-.1.064-.189.111-.246.142-.111.108-.209.209-.314.317s-.2.216-.31.337a2.732,2.732,0,0,1-.388.256.7.7,0,0,1-.358.1.965.965,0,0,1-.894-.506,1.627,1.627,0,0,1-.189-1.141c.078-.607.172-1.245.29-1.91a1.917,1.917,0,0,0-.121-.982.614.614,0,0,0-.594-.324,3.044,3.044,0,0,0-1.535.526,10.214,10.214,0,0,0-1.93,1.613c-.125.081-.243.145-.337.2s-.2.1-.3.155c-.132.081-.358.25-.682.506s-.729.591-1.228,1a13.662,13.662,0,0,1-1.171.894,4.106,4.106,0,0,1-.979.476l-.118-.175c.462-.547.833-.982,1.11-1.316s.482-.54.58-.638c.833-.644,1.5-1.2,2.008-1.667a5.8,5.8,0,0,0,1.012-1.13,9.456,9.456,0,0,0,.81-.6c.213-.169.351-.294.425-.351.115-.138.243-.287.4-.462a11.292,11.292,0,0,0,1.195-.921,11.657,11.657,0,0,0,.891-.881c.422-.29.82-.557,1.181-.79a1.539,1.539,0,0,0,.537-.547,1.778,1.778,0,0,0,.246-.729.709.709,0,0,0-.159-.614,1.025,1.025,0,0,0-.736-.216,5.145,5.145,0,0,0-2.406.85,26.264,26.264,0,0,0-3.516,2.561,7.235,7.235,0,0,1-.813.6c-.246.155-.449.27-.6.351-.337.267-.621.5-.844.688s-.4.368-.53.5a3.56,3.56,0,0,0-.564.317,1.669,1.669,0,0,0-.432.439,3.479,3.479,0,0,1-.381.483,2.867,2.867,0,0,1-.273.27l-1.96,1.188c-.165.223-.307.412-.422.567a2.344,2.344,0,0,1-.273.3.031.031,0,0,1,0,.017,4.2,4.2,0,0,1-.54.334,12.323,12.323,0,0,0-1.424,1.147,6.907,6.907,0,0,1-.857.621,1.38,1.38,0,0,1-.645.229.253.253,0,0,1-.182-.061.178.178,0,0,1-.044-.162,7.08,7.08,0,0,1,.918-2.227,7.542,7.542,0,0,0,.921-2.278,6.993,6.993,0,0,0-.054-2.561,3.064,3.064,0,0,0-.968-1.647,2.2,2.2,0,0,0-.29-.216c-.253-.294-.513-.57-.79-.833a1.5,1.5,0,0,0-1.083-.4,3.8,3.8,0,0,0-1.751.675,4.5,4.5,0,0,0-1.438,1.171l.068.948a10.384,10.384,0,0,1-1.61,2.055,22.15,22.15,0,0,1-2.683,2.3c-.25.29-.486.57-.722.837l-.017-.057c-.155.054-.3.1-.459.142a1.516,1.516,0,0,1-.381.061.79.79,0,0,1-.749-.364,1.811,1.811,0,0,1-.108-1.1,3.148,3.148,0,0,0-.007-.614,2.81,2.81,0,0,1,0-.638,8.508,8.508,0,0,0,.081-.894,1.759,1.759,0,0,0-.041-.472.638.638,0,0,0-.371-.385,1.988,1.988,0,0,0-.8-.132,1.664,1.664,0,0,0-1.107.466,5.109,5.109,0,0,0-1.039,1.414,5.372,5.372,0,0,1-.4.445c-.142.142-.267.27-.371.371-.3.358-.594.725-.887,1.09-.489.51-.908.941-1.255,1.316s-.661.678-.931.925c-.283.152-.533.28-.749.388s-.388.209-.533.29c-.138.04-.213-.121-.243-.472a8.7,8.7,0,0,1,.115-1.647,9.128,9.128,0,0,1,.287-1.313q.208-.709.516-1.566c.2-.456.395-.908.6-1.37s.4-.928.56-1.39a8.668,8.668,0,0,0,.425-.82c.081-.169.148-.324.209-.472a1.361,1.361,0,0,0,.1-.341.736.736,0,0,0-.088-.54.478.478,0,0,0-.429-.189,2.553,2.553,0,0,0-.617.155c-.3.1-.739.283-1.306.54-.371.408-.729.827-1.07,1.262s-.692.84-1.036,1.242c-.408.391-.8.79-1.164,1.184s-.719.8-1.063,1.191q-.623.653-1.114,1.141a7.611,7.611,0,0,1-.871.759.416.416,0,0,1-.074.2.818.818,0,0,1-.145.138.062.062,0,0,0,.007.024c-.972.739-1.728,1.3-2.278,1.68a3.987,3.987,0,0,1-.938.577.285.285,0,0,1-.277-.162.815.815,0,0,1-.037-.476,11.4,11.4,0,0,1,.358-1.387c.206-.685.493-1.586.854-2.7q.795-2.085,1.421-3.611t1.093-2.521c.1-.25.186-.472.253-.661s.115-.351.159-.489l1.39-.277c.159-.014.3-.229.435-.665a12.322,12.322,0,0,0,.358-1.836,1.874,1.874,0,0,0,.017-.466.381.381,0,0,0-.132-.267,1.257,1.257,0,0,1-.182-.209.979.979,0,0,1-.084-.169,6.107,6.107,0,0,1,.456-1.117,4.011,4.011,0,0,0,.432-1.2,1.174,1.174,0,0,0-.138-.874.8.8,0,0,0-.688-.3c-.594,0-1.245.624-1.934,1.863s-1.269,1.89-1.745,1.947l-.624-.2c-.209.04-.4.071-.564.1s-.341.067-.52.108a2.811,2.811,0,0,0-.564-.1,8.459,8.459,0,0,0-.9-.04c-.182.04-.371.084-.57.125a8.034,8.034,0,0,0-.85-.128,9.968,9.968,0,0,0-1.039-.047,1.043,1.043,0,0,0-.911.668,5.9,5.9,0,0,0-.533,1.947.365.365,0,0,0,.088.31.852.852,0,0,0,.337.209c.1.047.2.1.31.142s.216.108.344.169c.1,0,.277.007.516.02s.418.02.526.02h2.48a1.766,1.766,0,0,0,.415-.067,1.666,1.666,0,0,1,.395-.067.239.239,0,0,1,.2.061.2.2,0,0,1,.037.175c-.209.364-.391.658-.56.894s-.307.425-.435.577a48.267,48.267,0,0,1-3.212,4.174,27.7,27.7,0,0,1-3.165,3.121c-.206.213-.378.4-.523.557s-.267.29-.358.4l-.1.155.017.017a2.269,2.269,0,0,1-.3.219,2.013,2.013,0,0,1-.24.142c-.111.111-.213.213-.317.321s-.206.216-.31.337a2.617,2.617,0,0,1-.385.256.723.723,0,0,1-.361.1.965.965,0,0,1-.894-.51,1.646,1.646,0,0,1-.192-1.134c.084-.611.175-1.249.294-1.91a1.87,1.87,0,0,0-.125-.982.611.611,0,0,0-.591-.327,3.073,3.073,0,0,0-1.539.53,9.857,9.857,0,0,0-1.927,1.613c-.128.081-.246.148-.341.2s-.2.1-.3.155a8.437,8.437,0,0,0-.678.506q-.481.385-1.232,1a13.16,13.16,0,0,1-1.171.894,4.123,4.123,0,0,1-.982.476l-.118-.175c.459-.547.83-.982,1.11-1.313s.479-.543.58-.638c.83-.641,1.495-1.2,2-1.667a5.7,5.7,0,0,0,1.012-1.134,8.489,8.489,0,0,0,.813-.594c.209-.172.351-.294.425-.354.111-.135.243-.283.4-.459a12.145,12.145,0,0,0,1.195-.921,12.292,12.292,0,0,0,.891-.881q.638-.435,1.184-.79a1.628,1.628,0,0,0,.533-.54,1.831,1.831,0,0,0,.25-.732.7.7,0,0,0-.159-.618,1.041,1.041,0,0,0-.736-.216,5.111,5.111,0,0,0-2.4.854,26.2,26.2,0,0,0-3.516,2.558,6.512,6.512,0,0,1-.813.6c-.243.159-.452.273-.6.354-.341.263-.621.493-.844.688a6.856,6.856,0,0,0-.526.5,3.763,3.763,0,0,0-.567.317,1.778,1.778,0,0,0-.432.439,3.24,3.24,0,0,1-.381.483,3.322,3.322,0,0,1-.273.27l-1.964,1.184c-.162.226-.3.415-.422.57a2.436,2.436,0,0,1-.273.307c.091.26.162.513.226.746s.128.445.186.628c.034.1.071.179.1.246a.5.5,0,0,1,.017.209,3.47,3.47,0,0,1-.1.418,3.84,3.84,0,0,0-.81.945,2.638,2.638,0,0,0-.371,1.022,1.8,1.8,0,0,0,.26,1.434,1.688,1.688,0,0,0,1.346.466,1.3,1.3,0,0,0,.456-.125c.209-.088.462-.2.759-.348.472-.236.9-.472,1.279-.7a9.756,9.756,0,0,0,1.012-.668c.155-.135.4-.351.766-.658s.8-.7,1.329-1.168c.378-.28.715-.516,1-.715s.523-.364.712-.5c.125-.115.226-.209.317-.283s.175-.142.246-.209a.943.943,0,0,1,.159.385,1.649,1.649,0,0,1,0,.364,3.151,3.151,0,0,0,.51,2.227,2.284,2.284,0,0,0,1.886.732,3.1,3.1,0,0,0,1.144-.229,6.042,6.042,0,0,0,1.245-.685c.361-.263.719-.547,1.056-.847s.675-.58,1.019-.857c.162-.2.3-.368.425-.5s.209-.233.26-.3c.786-.661,1.566-1.319,2.325-1.964q.734-.577,1.279-1.1a9.092,9.092,0,0,0,.911-1.006l.213-.115c.094.051.138.108.132.179-.2.358-.4.7-.587,1.009-.165.523-.324,1.036-.469,1.552-.095.3-.182.57-.25.79a3.424,3.424,0,0,0-.132.537,1.451,1.451,0,0,1-.152.277,6.48,6.48,0,0,0-.439,1.363c-.132.564-.246,1.225-.351,1.994a2.253,2.253,0,0,0,.213,1.569,1.384,1.384,0,0,0,1.232.516,2.072,2.072,0,0,0,.884-.229,4.013,4.013,0,0,0,1.036-.746c.27-.25.543-.506.81-.769s.537-.53.81-.79c.267-.236.516-.449.742-.628s.4-.344.56-.486c.361-.223.678-.442.938-.638s.472-.375.628-.513l0-.017c.176-.189.321-.354.432-.493a2.814,2.814,0,0,0,.243-.344l1.289-1.164.128-.061c.091,0,.148.1.162.3a4.794,4.794,0,0,1-.01.874,3.187,3.187,0,0,0-.074.688c-.01.385,0,.921.027,1.613a2.369,2.369,0,0,0,.493,1.613,1.755,1.755,0,0,0,1.4.547,3.239,3.239,0,0,0,1.373-.364,5.813,5.813,0,0,0,1.549-1.181c.429-.412.854-.827,1.269-1.245s.827-.84,1.245-1.279c.192-.186.381-.368.564-.557s.331-.337.472-.472a3.31,3.31,0,0,1,.26.472,1.46,1.46,0,0,1,.1.483,2.5,2.5,0,0,0,.729,1.522,2.207,2.207,0,0,0,1.556.513,3.3,3.3,0,0,0,1.188-.364c.543-.24,1.232-.594,2.075-1.066a.481.481,0,0,1,.017.074,1.994,1.994,0,0,0,.3-.358c.071-.108.121-.189.155-.243a9.851,9.851,0,0,0,1.161-.813,4.412,4.412,0,0,0,.668-.671,4.619,4.619,0,0,0,.833-.614c.344-.307.742-.7,1.195-1.174a10.078,10.078,0,0,1,1.2-1.09,7.461,7.461,0,0,1,1.043-.678,1.045,1.045,0,0,1,.894.638,2.98,2.98,0,0,1,.115,1.606,10.18,10.18,0,0,1-.489,1.93,21.674,21.674,0,0,1-.979,2.315,5.13,5.13,0,0,1-.31.55c-.118.175-.229.351-.327.53a5.5,5.5,0,0,0-.334.624,1.777,1.777,0,0,0-.159.51.731.731,0,0,0,.307.8,2.23,2.23,0,0,0,1.218.253,3.971,3.971,0,0,0,.972-.422c1.083-.6,2.025-1.144,2.8-1.613s1.427-.874,1.917-1.2c.24-.182.439-.348.614-.5l.381-.317a3.091,3.091,0,0,1-.091.378,4.053,4.053,0,0,0-.813.941,2.591,2.591,0,0,0-.364,1.022,1.817,1.817,0,0,0,.256,1.437,1.7,1.7,0,0,0,1.346.466,1.38,1.38,0,0,0,.459-.128c.206-.088.459-.2.756-.348.472-.236.9-.472,1.279-.7a9.823,9.823,0,0,0,1.016-.668c.155-.135.4-.354.766-.658s.8-.7,1.329-1.171c.375-.277.712-.513,1-.709s.523-.364.712-.5c.121-.115.226-.213.314-.287s.179-.142.246-.209a.962.962,0,0,1,.159.385,1.322,1.322,0,0,1,0,.364,3.167,3.167,0,0,0,.513,2.227,2.284,2.284,0,0,0,1.886.732,3.1,3.1,0,0,0,1.141-.229,6.116,6.116,0,0,0,1.245-.685c.358-.267.715-.55,1.056-.847s.672-.584,1.016-.86a4.127,4.127,0,0,0-.088-.422l.115.378c.371-.307.685-.577.958-.813s.486-.449.685-.618a.959.959,0,0,1,.2.317,1.217,1.217,0,0,1,.074.317,5.177,5.177,0,0,0,.651,2.683,1.969,1.969,0,0,0,1.718.887c.226,0,.55.027.985.074a8.711,8.711,0,0,0,.958.071,3.419,3.419,0,0,0,1.289-.273,5.876,5.876,0,0,0,1.35-.779q.6-.456,1.181-.935c.381-.317.769-.631,1.157-.931l-.526-1.829c-.341.263-.645.5-.9.685s-.5.344-.678.452c-.611.2-1.083.348-1.427.432a4.131,4.131,0,0,1-.614.145,2.374,2.374,0,0,1-2.156-.982,4.28,4.28,0,0,1-.375-2.905c.523-.665,1.043-1.353,1.545-2.089.368-.445.688-.84.972-1.171s.513-.611.685-.833c.155-.25.3-.472.412-.668s.229-.364.327-.5c.226-.29.412-.526.574-.709a5.156,5.156,0,0,0,.388-.516c.2-.307.361-.567.479-.793a4.339,4.339,0,0,0,.283-.6c.172-.236.337-.452.493-.645s.273-.358.375-.489c.263-.516.506-1,.705-1.427s.375-.823.513-1.154c.219-.375.408-.688.543-.952s.256-.489.337-.675l.013-.277a1.277,1.277,0,0,0,.142-.321,3.664,3.664,0,0,1,.378-1.134,3.577,3.577,0,0,0,.344-.955,7.1,7.1,0,0,1,.243-1,6.656,6.656,0,0,0,.24-.982,2.254,2.254,0,0,0-.2-1.674,2.085,2.085,0,0,0-1.545-.442m-2.058,7.37a5.9,5.9,0,0,0-.216.786,15.568,15.568,0,0,1-1.063,2.3,15.28,15.28,0,0,1-1.313,2.244c-.314.432-.591.813-.83,1.13a8.017,8.017,0,0,0-.567.833,9.713,9.713,0,0,1-.729.992,1,1,0,0,1-.489.358l-.091-.162a4.335,4.335,0,0,1,.327-.989c.192-.459.472-1.063.82-1.809.29-.489.567-.935.837-1.346.216-.348.381-.621.5-.84a1.893,1.893,0,0,0,.192-.469,4.16,4.16,0,0,1,.81-1.842,12.294,12.294,0,0,1,1.95-2.025l.128.074c-.081.253-.172.5-.267.759" transform="translate(-200.973 -82.923)" fill="#fff"/>
    <path id="Trazado_2987" data-name="Trazado 2987" d="M545.023,105.777c-.088-.3-.2-.651-.314-1.036a2.839,2.839,0,0,1-.479.29c-.155.074-.27.132-.337.169a6.7,6.7,0,0,1-1.2.472,6.107,6.107,0,0,1-1.441.256,5.488,5.488,0,0,1-.8-.216,1.418,1.418,0,0,1-.469-.236.837.837,0,0,1-.358-.479,1.627,1.627,0,0,1-.051-.736,1.145,1.145,0,0,1,.152-.445,1.751,1.751,0,0,1,.287-.348,35.711,35.711,0,0,0,3-2.858,8.325,8.325,0,0,0,1.549-2.2l.267-.638c.138-.317.236-.55.3-.692q.066-.157.081-.142c-.013-.3-.02-.58-.017-.833a5.483,5.483,0,0,0-.145-.773,1.479,1.479,0,0,0-.209-.483.854.854,0,0,0-.459-.334,2.507,2.507,0,0,0-.789-.1,3.452,3.452,0,0,0-.665.061,5.048,5.048,0,0,0-.55.135c-.189.135-.381.253-.563.358a4.938,4.938,0,0,0-.52.341c-.354.375-.705.739-1.063,1.1s-.688.705-1.006,1c-.408.55-.736,1.036-1.006,1.468s-.476.8-.628,1.09-.277.564-.4.82-.209.466-.28.648c-.047.263-.111.53-.179.786s-.152.523-.226.786a8.825,8.825,0,0,0-1.07.881,6.628,6.628,0,0,0-.729.84c0,.007,0,.01.007.017a13.509,13.509,0,0,0-1.181,1.414,9.992,9.992,0,0,0-.935,1.549c-.051.074-.189.415-.432,1s-.591,1.407-1.066,2.473a3.423,3.423,0,0,1-.344.712c-.128.189-.226.337-.294.459l.007.391c-.844,1.63-1.508,2.851-2.015,3.665s-.837,1.222-1.022,1.222c-.081,0-.128-.108-.145-.327a7.641,7.641,0,0,1,0-.941c.007-.344.024-.675.057-1,.108-.833.29-1.815.53-2.946s.564-2.419.941-3.86c.388-1.529.773-2.858,1.141-3.982s.722-2.058,1.06-2.8c.189-.314.354-.584.493-.8a2.205,2.205,0,0,1,.375-.452,4.241,4.241,0,0,0,.256-.51c.068-.148.125-.27.179-.364.317-.513.587-.962.813-1.33s.412-.678.577-.914q1.2-2.6,2.045-4.572c.56-1.319,1-2.416,1.343-3.307.452-1.788.688-2.737.7-2.838.064-.466.1-.84.118-1.13a5.242,5.242,0,0,0,.013-.618.826.826,0,0,0-.331-.665,1.334,1.334,0,0,0-.806-.206,2.134,2.134,0,0,0-1.4.661,7.957,7.957,0,0,0-1.461,1.977q-2.025,3.751-3.462,7a43.815,43.815,0,0,0-2.21,6.091,10.187,10.187,0,0,1-.429,1.154,6.464,6.464,0,0,1-.584,1.07c-.121.192-.314.449-.564.786s-.577.739-.958,1.2c-.135.159-.263.294-.358.408a2.378,2.378,0,0,0-.253.307.012.012,0,0,1,0,.01c-.226.165-.462.341-.7.52s-.476.351-.7.52a3.052,3.052,0,0,1-.83.445,2.29,2.29,0,0,1-.746.132,1.13,1.13,0,0,1-.493-.088.529.529,0,0,1-.26-.287,3.562,3.562,0,0,1-.175-.921c-.057-.537-.115-.935-.169-1.2,0-.425-.01-.84-.03-1.259s-.054-.827-.094-1.238a1.421,1.421,0,0,0-.5-1.043,1.719,1.719,0,0,0-1.117-.344,1.25,1.25,0,0,0-.54.135,1.614,1.614,0,0,0-.516.459,15.315,15.315,0,0,1-2.119,1.913,16.346,16.346,0,0,0-2.146,1.91l-.081.2-.081.074a.573.573,0,0,0-.024-.071,2.386,2.386,0,0,1-.385.344,4.232,4.232,0,0,1-.5.334,3.03,3.03,0,0,1-.432.513c-.111.04-.219.081-.321.121a1.381,1.381,0,0,1-.324.081,19.678,19.678,0,0,1-2.777.813,12.185,12.185,0,0,1-2.564.277c-.192,0-.31-.115-.375-.354a2.8,2.8,0,0,1,0-1.012,16.622,16.622,0,0,1,.51-2.136c.287-.948.668-2.143,1.171-3.584.115-.358.209-.661.273-.928s.138-.5.189-.7c.027-.064.115-.25.24-.553s.3-.732.526-1.3c.182-.4.334-.759.439-1.056a3.853,3.853,0,0,0,.192-.725,7.306,7.306,0,0,1,.685-1.917,7.6,7.6,0,0,0,.709-2.092,8.485,8.485,0,0,1,.213-.887c.111-.415.267-.935.435-1.559.169-.223.294-.412.4-.574.071-.226.135-.466.2-.732s.122-.553.179-.874c.041-.118.1-.28.175-.476s.152-.439.243-.715a4.687,4.687,0,0,0,.246-.705,5.478,5.478,0,0,0,.1-.54,1.86,1.86,0,0,0-.1-1.124.759.759,0,0,0-.732-.364,1.679,1.679,0,0,0-.388.067,5.365,5.365,0,0,0-.665.209,4.049,4.049,0,0,0-.793.449,2.176,2.176,0,0,0-.536.564c-.138.27-.273.516-.391.746s-.27.479-.418.746c-.314.54-.587,1.029-.813,1.451a11.481,11.481,0,0,0-.523,1.07c-.125.425-.263.857-.422,1.313s-.314.894-.469,1.329c-.145.371-.283.749-.432,1.134s-.29.779-.456,1.164a11.8,11.8,0,0,0-.456,1.309,9.55,9.55,0,0,0-.223,1.07.478.478,0,0,0,.223.51.518.518,0,0,1,.213.547,18.4,18.4,0,0,1-.759,2.747,18.669,18.669,0,0,0-.725,2.527,2.432,2.432,0,0,0-.017.408,1.839,1.839,0,0,1-.013.385,14.122,14.122,0,0,1-.844,2.541,13.682,13.682,0,0,0-.871,2.784,12.661,12.661,0,0,0-.148,1.9c.017.435.094.7.24.8.115.067.27.165.482.3.095.067.192.138.294.216s.209.162.317.236a.815.815,0,0,0,.321.115,2.929,2.929,0,0,0,.489.027c.24,0,.506,0,.79-.027a4.866,4.866,0,0,0,.881-.152c.422-.054.857-.115,1.3-.169a4.351,4.351,0,0,0,1.292-.375c.368-.169.776-.344,1.221-.52s.925-.364,1.431-.547a5.136,5.136,0,0,0,.931-.435,2.83,2.83,0,0,0,.692-.614c.213-.28.4-.55.591-.82a8.293,8.293,0,0,1,.52-.685.6.6,0,0,1,.017.064,15,15,0,0,1,1.481-1.282,1.82,1.82,0,0,1,.911-.425c.078,0,.172.074.263.229a3.646,3.646,0,0,1,.327.685c.1.2.2.364.29.516a2.746,2.746,0,0,1,.186.378,4.764,4.764,0,0,0,.877,2.318,3.976,3.976,0,0,0,2.281.418,2.433,2.433,0,0,0,.911-.283,12.75,12.75,0,0,0,1.508-.887c.543-.358,1-.672,1.387-.941a10.733,10.733,0,0,0,.935-.715l.445.445q-.395,1.346-.692,2.406c-.192.705-.344,1.279-.445,1.745.027.408.054.813.074,1.211a3.728,3.728,0,0,1-.182.692,4.2,4.2,0,0,0-.179.678l-.4,3.013a6.39,6.39,0,0,0-.068.941,5.475,5.475,0,0,0,.064.827c0,.415-.007.827-.017,1.242s-.013.84,0,1.259a1.663,1.663,0,0,0,.553,1.13,1.992,1.992,0,0,0,1.309.378,1.119,1.119,0,0,0,.553-.148,2.766,2.766,0,0,0,.55-.4c.128-.155.267-.324.412-.5a5,5,0,0,0,.4-.52,21.4,21.4,0,0,0,2.308-3.742q1.291-2.511,2.794-6.3c.142-.358.28-.729.422-1.12s.294-.773.456-1.141a7.535,7.535,0,0,1,.584-1.2,5.843,5.843,0,0,1,.658-.9.146.146,0,0,0,0-.017,3.391,3.391,0,0,1,.479-.432.714.714,0,0,1,.378-.148.371.371,0,0,1,.331.213,2.425,2.425,0,0,1,.25.641c.094.361.2.665.29.921a1.874,1.874,0,0,0,.321.587,2.042,2.042,0,0,0,.857.638,3.437,3.437,0,0,0,1.265.216,5.144,5.144,0,0,0,.975-.084,2.709,2.709,0,0,0,.766-.29,3.725,3.725,0,0,0,1.775-.564,14.93,14.93,0,0,0,2.278-1.68,5.974,5.974,0,0,0-.2-.783m-5.385-4.66a4.408,4.408,0,0,1,.955-1.677c.6-.759,1.033-1.141,1.326-1.141a.2.2,0,0,1,.2.108.477.477,0,0,1,.027.294,1.489,1.489,0,0,1-.192.553,2.542,2.542,0,0,1-.429.557c-.155.142-.31.29-.466.439s-.327.3-.483.425c-.1.135-.206.28-.314.429a.485.485,0,0,1-.391.229c-.108,0-.175-.01-.206-.047a.2.2,0,0,1-.024-.169m-6.293-6.978c.091-.216.209-.472.354-.766.175-.344.324-.628.435-.85a3.284,3.284,0,0,0,.209-.537c.091-.182.159-.324.206-.425s.108-.148.189-.148.159.03.182.1a.655.655,0,0,1,.013.341,1.915,1.915,0,0,1-.162.493c-.095.2-.226.435-.391.712a8.979,8.979,0,0,0-.486.813,2.322,2.322,0,0,0-.246.658l-.337.3-.125-.155a2.115,2.115,0,0,1,.159-.533" transform="translate(-387.083 -82.042)" fill="#fff"/>
    <path id="Trazado_2988" data-name="Trazado 2988" d="M553.5,107.988c.2,0,.4.014.6.027s.418.047.634.074a1.094,1.094,0,0,0,.442-.108,5.356,5.356,0,0,0,.827-.445,4.143,4.143,0,0,0,.823-.591,3.174,3.174,0,0,0,.59-.766c.071-.128.175-.344.314-.651s.307-.7.506-1.171c.091-.25.192-.564.324-.935a.644.644,0,0,0-.155-.577.989.989,0,0,0-.7-.2,2.75,2.75,0,0,0-.742.088,2.13,2.13,0,0,0-.547.229c-.354.361-.658.671-.921.948a2.67,2.67,0,0,0-1.41.972,3.061,3.061,0,0,0-.928,1.495,2.946,2.946,0,0,0,.007,1.073.767.767,0,0,0,.334.533" transform="translate(-420.625 -95.604)" fill="#fff"/>
    <g id="Grupo_3473" data-name="Grupo 3473" transform="translate(158.169 8.588)">
      <path id="Trazado_2989" data-name="Trazado 2989" d="M632.3,108.725a1.546,1.546,0,1,1-1.532-1.5A1.517,1.517,0,0,1,632.3,108.725Zm-2.71,0a1.173,1.173,0,0,0,1.174,1.2,1.152,1.152,0,0,0,1.147-1.191,1.162,1.162,0,1,0-2.322-.01Zm.928.783h-.348V108a4.283,4.283,0,0,1,.577-.047.818.818,0,0,1,.513.118.381.381,0,0,1,.155.321.389.389,0,0,1-.31.358v.017c.148.047.219.165.266.368a1.309,1.309,0,0,0,.111.368h-.368a1.085,1.085,0,0,1-.118-.368c-.027-.155-.118-.229-.31-.229h-.165v.6Zm.01-.847h.165c.192,0,.348-.064.348-.219,0-.138-.1-.229-.32-.229a1.041,1.041,0,0,0-.192.017Z" transform="translate(-629.21 -107.22)" fill="#fff"/>
    </g>
  </g>
  <path id="Trazado_2990" data-name="Trazado 2990" d="M627.2,126.4v.04a.133.133,0,0,0,0-.04" transform="translate(-435.704 -109.428)" fill="#fff"/>
  <g id="Grupo_3475" data-name="Grupo 3475">
    <path id="Trazado_2991" data-name="Trazado 2991" d="M106,82.674a3.322,3.322,0,0,0,3.577-3.094,2.971,2.971,0,0,0-2.767-3.452A3.075,3.075,0,0,0,103.319,79,3.11,3.11,0,0,0,106,82.674" transform="translate(-88.578 -76.102)" fill="#fff"/>
    <path id="Trazado_2992" data-name="Trazado 2992" d="M130.279,94.581a2.84,2.84,0,0,0,3.057-2.646,2.538,2.538,0,0,0-2.365-2.949,2.823,2.823,0,0,0-.692,5.595" transform="translate(-104.926 -84.623)" fill="#fff"/>
    <path id="Trazado_2993" data-name="Trazado 2993" d="M80.444,87.345a3.32,3.32,0,0,0,2.561-3.972,2.975,2.975,0,0,0-3.627-2.537,3.078,3.078,0,0,0-2.541,3.735,3.113,3.113,0,0,0,3.607,2.774" transform="translate(-71.018 -79.203)" fill="#fff"/>
    <path id="Trazado_2994" data-name="Trazado 2994" d="M64.66,103.326a2.973,2.973,0,0,0-4.356.783,3.067,3.067,0,0,0,.854,4.434,3.11,3.11,0,0,0,4.515-.6,3.325,3.325,0,0,0-1.012-4.619" transform="translate(-59.695 -93.724)" fill="#fff"/>
    <path id="Trazado_2995" data-name="Trazado 2995" d="M96.766,122.2h0a1.456,1.456,0,0,0,1.009-.435A1.623,1.623,0,0,1,96.58,122l-.007-.01c-.948-.132-2.649-1.829-3-2.041s-1.039-.219-1.178.108-.739.246-.739.246-.648-.58.557-1.262a2.151,2.151,0,0,1,2.46-.02s.854.54,1.09.226a6.522,6.522,0,0,1,.631-.732.24.24,0,0,0-.034-.375,4.717,4.717,0,0,0-1.07-.408c-.243-.007-.543-.415-.641-.705-.165-.125-.169-.375-.145-.641-.175-.307-.084-.439.135-.564a.881.881,0,0,0,.456-.449c.418-.83.567-1.039,1.38-1.174.132-.226.307-.31.307-.56,0-.3.108-.7.3-.715a2.119,2.119,0,0,1,.985,1.249,3.131,3.131,0,0,1,1.157,1.88,14.726,14.726,0,0,0,.4,1.475c.024.061.047.125.074.192a3.811,3.811,0,0,0,1.765,1.67s0,0,0,.007a15.7,15.7,0,0,0,.651-4.336.026.026,0,0,1-.013.013,15.534,15.534,0,0,0-.611-4.559s0,0,.007,0a10.777,10.777,0,0,0-4.474-6.27c-5.625-3.5-12.1-.6-15.448,4.788A13.2,13.2,0,0,0,80.13,112.2v0c.705-.429,3.1-2.014,3.725-2.4s1.208-.749,1.336-.83a9.7,9.7,0,0,1,1.694-1.37,2.638,2.638,0,0,1,2.581-.014,4.489,4.489,0,0,1,2.025,1.674,2.122,2.122,0,0,1,.547.661c.1.226-.243.881.489,1.525.614.54,1.876,1.353,1.991,1.788.084.317-.682.705-1.016,1.016a2.575,2.575,0,0,1-1.815.8,3.869,3.869,0,0,1-1.853-.925,3.707,3.707,0,0,0-1.225-.614c.03-.813.628-.881.786-1.954.094-.712-.219-1.5-.138-2.119a3.381,3.381,0,0,0,.051-.9,1.826,1.826,0,0,0-.324.806c-.067.587.2,1.572.088,2.241-.169.992-.56.962-.661,1.846a1.412,1.412,0,0,1-.3.729c-.223.132-.634.321-.925.081a3.557,3.557,0,0,1-1.2-1.809,4.562,4.562,0,0,1-.5-2.7,3.828,3.828,0,0,0,.246,2.76,2.632,2.632,0,0,0,.854,1.39,7.714,7.714,0,0,0-.881.432,2.286,2.286,0,0,0-.547,1.68,9.618,9.618,0,0,1,.03,1.589c-.094.645-.067,1.3-.209,1.937a6.114,6.114,0,0,1-.57,1.6,6.287,6.287,0,0,0-.675,1.809c.182.138.368.277.56.412-.014,0-.027,0-.04-.007.209.145.425.29.651.429,4.933,3.064,10.356,3.823,13.872.337a5.664,5.664,0,0,1-2.018-1.893" transform="translate(-73.234 -93.74)" fill="#fff"/>
    <path id="Trazado_2996" data-name="Trazado 2996" d="M90.83,162.553h0v0" transform="translate(-80.324 -133.379)" fill="#fff"/>
    <path id="Trazado_2997" data-name="Trazado 2997" d="M135.41,166.033v0Z" transform="translate(-109.861 -135.685)" fill="#fff"/>
  </g>
  <path id="Trazado_2998" data-name="Trazado 2998" d="M629.09,125.93v.041c0-.024,0-.037,0-.041" transform="translate(-436.956 -109.116)" fill="#fff"/>
  <path id="Trazado_2999" data-name="Trazado 2999" d="M628.01,128.08v.04a.138.138,0,0,0,0-.04" transform="translate(-436.24 -110.541)" fill="#fff"/>
</svg>
