<svg xmlns="http://www.w3.org/2000/svg" width="14.191" height="14.191" viewBox="0 0 14.191 14.191"><g transform="translate(-264 -1364)"><path d="M12.066,4.312A7.034,7.034,0,0,0,1,12.8L0,16.441l3.728-.979a7.011,7.011,0,0,0,3.361.855h0a7.1,7.1,0,0,0,7.1-7.032,7.06,7.06,0,0,0-2.126-4.973ZM7.092,15.133a5.835,5.835,0,0,1-2.978-.814L3.9,14.192l-2.211.58.589-2.157-.139-.222A5.856,5.856,0,1,1,13,9.285a5.91,5.91,0,0,1-5.911,5.848ZM10.3,10.755c-.174-.089-1.039-.513-1.2-.57s-.279-.089-.4.089-.453.57-.558.691-.206.133-.38.044A4.783,4.783,0,0,1,5.372,8.918c-.181-.31.181-.288.516-.96a.326.326,0,0,0-.016-.307c-.044-.089-.4-.953-.542-1.305s-.288-.295-.4-.3-.219-.006-.336-.006a.651.651,0,0,0-.469.219,1.974,1.974,0,0,0-.615,1.467,3.442,3.442,0,0,0,.716,1.818,7.852,7.852,0,0,0,3,2.655,3.438,3.438,0,0,0,2.11.44,1.8,1.8,0,0,0,1.185-.836,1.47,1.47,0,0,0,.1-.836C10.59,10.885,10.472,10.841,10.3,10.755Z" transform="translate(264 1361.75)" fill="#3c3c3c"/></g></svg>