<svg xmlns="http://www.w3.org/2000/svg" width="44.919" height="24.063" viewBox="0 0 44.919 24.063">
  <g id="Grupo_3501" data-name="Grupo 3501" transform="translate(2349.251 -15217.967)">
    <rect id="Rectángulo_2660" data-name="Rectángulo 2660" width="44.919" height="24.063" rx="3" transform="translate(-2349.251 15217.967)" fill="#fff"/>
    <g id="Grupo_3457" data-name="Grupo 3457" transform="translate(-2339.326 15221.488)">
      <path id="Trazado_1741" data-name="Trazado 1741" d="M154.129,87.22c0-4.5-5.592-8.169-12.49-8.169s-12.489,3.669-12.489,8.169c0,.117,0,.438,0,.479,0,4.774,4.888,8.641,12.489,8.641,7.649,0,12.491-3.866,12.491-8.641V87.22" transform="translate(-129.148 -79.051)" fill="#253e8b"/>
      <path id="Trazado_1742" data-name="Trazado 1742" d="M155.858,89.414c0,4.243-5.377,7.683-12.009,7.683s-12.009-3.44-12.009-7.683,5.377-7.683,12.009-7.683,12.009,3.44,12.009,7.683" transform="translate(-131.356 -81.248)" fill="#00aeef"/>
      <path id="Trazado_1743" data-name="Trazado 1743" d="M176.083,98.29c-.006.012-.126.136-.049.236a1.5,1.5,0,0,0,1.367.248,3.946,3.946,0,0,0,1.242-.786,4.972,4.972,0,0,1,1.418-.9,1.62,1.62,0,0,1,1.034-.027,3.168,3.168,0,0,1,.943.55c.822.618,4.125,3.5,4.7,4a28.506,28.506,0,0,1,5.28-1.7,6.545,6.545,0,0,0-2.508-3.944,7.707,7.707,0,0,1-6.5.106,6.291,6.291,0,0,0-2.457-.559,4.4,4.4,0,0,0-3.414,1.65l-1.048,1.129" transform="translate(-167.577 -92.548)" fill="#fff"/>
      <path id="Trazado_1744" data-name="Trazado 1744" d="M150.788,102.832c-.039-.035-3.885-3.4-4.756-4.055a2.133,2.133,0,0,0-1.08-.512,1.457,1.457,0,0,0-.513.049,4.644,4.644,0,0,0-1.406.838,4.015,4.015,0,0,1-1.373.849,2.225,2.225,0,0,1-1.513-.227.672.672,0,0,1-.251-.276.463.463,0,0,1,.129-.5l1.061-1.148c.124-.123.247-.246.375-.368a6.942,6.942,0,0,0-.967.218,4.216,4.216,0,0,1-1.129.211,10.613,10.613,0,0,1-1.152-.181,17.158,17.158,0,0,1-3.063-1.107,6.79,6.79,0,0,0-2.81,4.075c.217.058.566.162.713.194,3.414.759,4.478,1.541,4.671,1.7a1.13,1.13,0,0,1,1.772.1,1.291,1.291,0,0,1,.814-.286,1.529,1.529,0,0,1,.489.086,1.123,1.123,0,0,1,.687.621,1.137,1.137,0,0,1,.475-.1,1.425,1.425,0,0,1,.568.125,1.212,1.212,0,0,1,.67,1.354,1.26,1.26,0,0,1,.136-.007,1.356,1.356,0,0,1,1.354,1.354,1.333,1.333,0,0,1-.162.639,2.146,2.146,0,0,0,1.176.315.75.75,0,0,0,.55-.24c.034-.048.07-.1.037-.144l-.963-1.071s-.159-.15-.106-.208.153.026.221.084c.491.41,1.089,1.028,1.089,1.028s.05.085.271.125a1,1,0,0,0,.761-.178,1.144,1.144,0,0,0,.167-.171s-.007.008-.011.009a.513.513,0,0,0-.027-.635l-1.125-1.263s-.16-.149-.106-.209.153.027.224.085c.356.3.859.8,1.342,1.275a.914.914,0,0,0,1.079-.037.773.773,0,0,0,.4-.7.8.8,0,0,0-.238-.469l-1.536-1.545s-.162-.139-.1-.209.153.026.221.084c.489.41,1.815,1.625,1.815,1.625a.931.931,0,0,0,1.042-.021.7.7,0,0,0,.343-.551.814.814,0,0,0-.259-.626" transform="translate(-131.766 -93.46)" fill="#fff"/>
      <path id="Trazado_1745" data-name="Trazado 1745" d="M167.912,131.655a3.39,3.39,0,0,0-.533.118c-.019-.013.014-.108.037-.164s.337-1-.428-1.327a.9.9,0,0,0-1.066.16c-.032.034-.046.031-.051-.012a.844.844,0,0,0-.592-.784,1.159,1.159,0,0,0-1.3.465.834.834,0,1,0-.248.711s.007.012,0,.028a1.1,1.1,0,0,0,.689,1.267.823.823,0,0,0,.808-.125c.066-.047.077-.027.067.035a.787.787,0,0,0,.59.844.748.748,0,0,0,.876-.162c.074-.068.095-.058.1.048a1.054,1.054,0,1,0,1.053-1.1" transform="translate(-156.343 -120.324)" fill="#fff"/>
      <path id="Trazado_1746" data-name="Trazado 1746" d="M143.008,104.091a.972.972,0,0,1-.977-.933c0-.045-.006-.164-.106-.164a.186.186,0,0,0-.119.062.687.687,0,0,1-.479.217.844.844,0,0,1-.316-.069c-.558-.226-.566-.609-.543-.763a.14.14,0,0,0-.02-.117l-.035-.03h-.034a.167.167,0,0,0-.1.039.817.817,0,0,1-.474.168.732.732,0,0,1-.264-.052,1.023,1.023,0,0,1-.639-1.186.1.1,0,0,0-.032-.1l-.052-.043-.049.046a.755.755,0,0,1-.526.214.762.762,0,1,1,.753-.859l.026.2.112-.173a1.117,1.117,0,0,1,.887-.486,1.1,1.1,0,0,1,.331.052.771.771,0,0,1,.54.718c.008.1.079.1.093.1a.123.123,0,0,0,.088-.046.77.77,0,0,1,.561-.236,1.071,1.071,0,0,1,.42.094c.718.308.392,1.22.389,1.229-.062.151-.065.218-.006.257l.028.013h.021a.5.5,0,0,0,.138-.037,1.241,1.241,0,0,1,.383-.084h0a.979.979,0,1,1,0,1.957Zm7.6-4.394c-1.185-1.034-3.923-3.414-4.665-3.972a3.257,3.257,0,0,0-.966-.562,1.6,1.6,0,0,0-.475-.074,1.992,1.992,0,0,0-.6.1,4.958,4.958,0,0,0-1.419.9l-.024.019a3.907,3.907,0,0,1-1.211.771,2.044,2.044,0,0,1-.448.05,1.15,1.15,0,0,1-.843-.271c-.021-.028-.008-.07.042-.133l.007-.008,1.042-1.123a4.334,4.334,0,0,1,3.362-1.628h.089a6.291,6.291,0,0,1,2.333.552,7.225,7.225,0,0,0,3.18.763,8.3,8.3,0,0,0,3.492-.836c-.136-.114-.277-.225-.422-.334a7.7,7.7,0,0,1-3.066.7,6.773,6.773,0,0,1-2.977-.716,6.7,6.7,0,0,0-2.54-.6h-.1a4.409,4.409,0,0,0-2.9,1.028,5.705,5.705,0,0,0-1.444.264,3.947,3.947,0,0,1-1.018.195c-.131,0-.366-.012-.387-.013a19.826,19.826,0,0,1-3.661-1.014c-.149.105-.292.214-.432.325a18.1,18.1,0,0,0,3.969,1.147c.163.011.337.029.51.029a4.339,4.339,0,0,0,1.149-.213c.221-.063.465-.13.722-.179l-.206.2-1.059,1.146a.532.532,0,0,0-.146.585.744.744,0,0,0,.279.309,2.2,2.2,0,0,0,1.124.285,2.063,2.063,0,0,0,.448-.047,4.067,4.067,0,0,0,1.4-.863,4.662,4.662,0,0,1,1.379-.825,1.579,1.579,0,0,1,.384-.053.728.728,0,0,1,.1.006,2.063,2.063,0,0,1,1.043.5c.869.653,4.716,4.018,4.754,4.052a.741.741,0,0,1,.231.565.617.617,0,0,1-.307.491.938.938,0,0,1-.5.157.838.838,0,0,1-.446-.129c-.014-.012-1.332-1.22-1.817-1.626a.408.408,0,0,0-.229-.122.126.126,0,0,0-.1.048c-.076.094.009.224.11.31l1.539,1.547a.732.732,0,0,1,.212.418.7.7,0,0,1-.365.638.993.993,0,0,1-.545.18.8.8,0,0,1-.439-.134l-.221-.218c-.4-.4-.82-.807-1.125-1.062a.409.409,0,0,0-.23-.119.13.13,0,0,0-.1.041c-.035.039-.059.108.028.224a.751.751,0,0,0,.077.086l1.124,1.262a.431.431,0,0,1,.025.538l-.04.05a1.079,1.079,0,0,1-.1.1.9.9,0,0,1-.549.174.839.839,0,0,1-.152-.013.381.381,0,0,1-.222-.093l-.013-.014c-.061-.063-.628-.642-1.1-1.033a.385.385,0,0,0-.218-.117.134.134,0,0,0-.1.046c-.093.1.046.253.105.309l.959,1.056a.239.239,0,0,1-.037.065c-.034.047-.15.164-.5.207a.932.932,0,0,1-.127.008,2.195,2.195,0,0,1-.938-.278,1.429,1.429,0,0,0-1.293-2.038h-.051a1.269,1.269,0,0,0-.725-1.342,1.507,1.507,0,0,0-.6-.131,1.217,1.217,0,0,0-.438.079,1.2,1.2,0,0,0-.7-.594,1.581,1.581,0,0,0-.513-.091,1.352,1.352,0,0,0-.8.256,1.2,1.2,0,0,0-1.794-.1,12.814,12.814,0,0,0-4.649-1.7c-.153-.035-.5-.136-.72-.2a5.088,5.088,0,0,0-.082.519s.584.14.7.166c3.235.718,4.3,1.465,4.485,1.607a1.2,1.2,0,0,0-.094.465,1.214,1.214,0,0,0,1.212,1.213,1.227,1.227,0,0,0,.222-.02,1.415,1.415,0,0,0,.914,1.056,1.216,1.216,0,0,0,.432.084,1.118,1.118,0,0,0,.276-.034,1.407,1.407,0,0,0,1.228.8,1.068,1.068,0,0,0,.37-.066,1.427,1.427,0,0,0,2.345.453,2.685,2.685,0,0,0,1.209.361,1.509,1.509,0,0,0,.184-.012,1.106,1.106,0,0,0,.821-.4.614.614,0,0,0,.051-.082,1.378,1.378,0,0,0,.387.061,1.3,1.3,0,0,0,.782-.281,1.074,1.074,0,0,0,.461-.67l0-.01a1.294,1.294,0,0,0,.261.027,1.453,1.453,0,0,0,.8-.255,1.159,1.159,0,0,0,.577-1.032,1.278,1.278,0,0,0,.264.028,1.386,1.386,0,0,0,.753-.231,1.1,1.1,0,0,0,.523-.852,1.142,1.142,0,0,0-.166-.687,31.106,31.106,0,0,1,4.99-1.562,5.108,5.108,0,0,0-.07-.518A28.647,28.647,0,0,0,150.61,99.7" transform="translate(-131.438 -90.727)" fill="#253e8b"/>
    </g>
  </g>
</svg>
